<svg width="801" height="227" viewBox="0 0 801 227" fill="none" xmlns="http://www.w3.org/2000/svg">
<g clip-path="url(#clip0_569_46)">
<path d="M110.33 5.72968C119.474 9.5321 127.308 14.8451 133.882 21.6165C140.432 28.414 145.57 36.4616 149.273 45.7853C152.976 55.1091 154.815 65.2923 154.815 76.3089C154.815 87.3255 152.976 97.5087 149.273 106.832C145.57 116.156 140.457 124.23 133.882 131.001C127.308 137.799 119.474 143.086 110.355 146.914C101.237 150.743 91.337 152.644 80.6818 152.644H41.3102C38.0608 152.644 35.441 155.352 35.441 158.712V216.556C35.441 219.915 32.8213 222.624 29.5718 222.624H6.24616C2.99668 222.624 0.376953 219.915 0.376953 216.556V6.06825C0.376953 2.70857 2.99668 0 6.24616 0H80.6566C91.3118 0 101.211 1.90121 110.33 5.72968ZM108.793 47.5563C101.514 40.0296 92.1431 36.2793 80.6566 36.2793H41.3102C38.0608 36.2793 35.441 38.9878 35.441 42.3475V110.374C35.441 113.734 38.0608 116.443 41.3102 116.443H80.6566C92.1431 116.443 101.514 112.692 108.793 105.166C116.073 97.6389 119.701 88.0547 119.701 76.387C119.701 64.7193 116.073 55.083 108.793 47.5563Z" fill="#293147"/>
<path d="M307.314 222.624H287.061C283.812 222.624 281.192 219.915 281.192 216.556V215.618C281.192 210.331 275.046 207.544 271.343 211.191C268.169 214.316 264.768 217.024 261.192 219.29C253.609 224.056 243.962 226.452 232.274 226.452C222.425 226.452 213.961 224.864 206.908 221.686C199.829 218.509 194.036 213.951 189.527 208.013C185.018 202.075 181.743 195.069 179.678 187.022C177.637 178.974 176.604 169.963 176.604 159.988V69.6676C176.604 66.3079 179.224 63.5994 182.474 63.5994H204.893C208.142 63.5994 210.762 66.3079 210.762 69.6676V155.196C210.762 167.072 212.978 176.448 217.387 183.35C221.795 190.251 229.755 193.689 241.216 193.689C248.597 193.689 254.743 192.257 259.68 189.392C264.592 186.527 268.547 182.594 271.519 177.62C274.492 172.645 276.658 166.812 277.968 160.118C279.303 153.451 279.958 146.289 279.958 138.658V69.6676C279.958 66.3079 282.578 63.5994 285.827 63.5994H307.314C310.563 63.5994 313.183 66.3079 313.183 69.6676V216.556C313.183 219.915 310.563 222.624 307.314 222.624Z" fill="#293147"/>
<path d="M374.973 222.624H352.856C349.607 222.624 346.987 219.915 346.987 216.556V6.06825C346.987 2.70857 349.607 0 352.856 0H374.973C378.223 0 380.842 2.70857 380.842 6.06825V216.556C380.842 219.915 378.223 222.624 374.973 222.624Z" fill="#293147"/>
<path d="M425.755 72.819C436.411 64.1203 451.399 59.771 470.669 59.771C485.43 59.771 497.748 62.3754 507.572 67.5582C515.683 71.8554 522.635 77.4028 528.378 84.2003C530.419 86.6224 530.242 90.3206 527.975 92.5604L514.02 106.39C511.678 108.708 507.95 108.63 505.733 106.181C502.458 102.561 498.403 99.436 493.566 96.8316C486.689 93.1334 478.452 91.2582 468.805 91.2582C461.223 91.2582 455.127 92.6385 450.492 95.3992C445.857 98.1598 443.565 101.962 443.565 106.859C443.565 112.797 446.587 116.938 452.633 119.255C458.678 121.599 467.747 124.126 479.863 126.886C486.438 128.371 492.836 130.116 499.083 132.121C505.33 134.127 510.922 136.939 515.859 140.559C520.771 144.154 524.726 148.763 527.698 154.389C530.671 160.014 532.157 167.176 532.157 175.849C532.157 184.548 530.62 192.075 527.547 198.429C524.474 204.784 520.217 210.045 514.776 214.16C509.335 218.301 502.786 221.374 495.078 223.379C487.395 225.385 478.931 226.4 469.712 226.4C454.95 226.4 441.524 223.848 429.408 218.77C418.954 214.368 410.566 207.675 404.243 198.69C402.53 196.242 402.858 192.856 404.974 190.772L419.231 176.63C421.675 174.208 425.629 174.365 427.745 177.073C432.053 182.621 437.469 186.84 444.018 189.678C452.532 193.377 461.802 195.252 471.853 195.252C479.636 195.252 486.009 193.924 490.921 191.267C495.833 188.611 498.302 184.209 498.302 178.063C498.302 171.916 495.531 167.619 489.989 165.171C484.448 162.723 475.833 160.249 464.145 157.696C458.2 156.42 452.003 154.779 445.529 152.774C439.056 150.769 433.161 147.956 427.846 144.336C422.506 140.742 418.148 136.002 414.773 130.194C411.397 124.36 409.684 117.094 409.684 108.421C409.76 93.3938 415.075 81.5177 425.755 72.819Z" fill="#293147"/>
<path d="M571.075 69.9542C581.831 63.1567 596.239 59.771 614.3 59.771C636.039 59.771 652.186 64.9537 662.74 75.3453C673.295 85.7368 678.585 101.207 678.585 121.782V216.53C678.585 219.889 675.965 222.598 672.715 222.598H651.229C647.979 222.598 645.359 219.889 645.359 216.53C645.359 211.347 639.515 208.586 635.712 211.946C632.84 214.472 629.641 216.764 626.14 218.77C618.029 223.431 608.154 225.775 596.466 225.775C588.481 225.775 581.252 224.551 574.778 222.129C568.304 219.707 562.888 216.295 558.48 211.946C554.072 207.597 550.646 202.414 548.177 196.372C545.709 190.329 544.475 183.714 544.475 176.5C544.475 161.863 549.135 150.326 558.48 141.836C567.8 133.345 579.539 128.475 593.695 127.199L636.442 122.745C642.387 122.12 645.359 119.672 645.359 115.427V111.937C645.359 105.791 642.84 100.764 637.828 96.8316C632.815 92.8989 625.157 90.9456 614.905 90.9456C605.484 90.9456 597.172 92.7948 589.992 96.5191C584.728 99.2537 580.773 103.369 578.153 108.916C576.617 112.171 572.712 113.396 569.74 111.468L553.19 100.66C550.747 99.0714 549.739 95.8159 550.948 93.1073C555.105 83.4971 561.83 75.788 571.075 69.9542ZM601.051 154.884C593.469 155.951 587.876 158.321 584.274 162.046C580.697 165.744 578.884 170.25 578.884 175.563C578.884 181.709 580.975 186.631 585.181 190.356C589.388 194.054 595.685 195.929 604.099 195.929C610.446 195.929 616.19 194.861 621.328 192.752C626.442 190.642 630.749 187.829 634.251 184.313C637.727 180.823 640.447 176.787 642.412 172.229C644.352 167.671 645.334 163.061 645.334 158.4V156.056C645.334 152.409 642.236 149.597 638.734 150.039L601.051 154.884Z" fill="#293147"/>
<path d="M758.083 67.4278C765.363 62.3492 774.432 59.7969 785.314 59.7969C788.764 59.7969 792.165 60.0834 795.515 60.6563C798.337 61.1512 800.377 63.7035 800.377 66.6464V90.9455C800.377 94.6958 797.128 97.5086 793.551 96.9096C793.122 96.8314 792.669 96.7533 792.216 96.7012C789.445 96.2845 786.523 96.0761 783.449 96.0761C768.059 96.0761 757.202 100.79 750.854 110.218C744.506 119.646 741.307 132.85 741.307 149.805V216.582C741.307 219.941 738.687 222.65 735.438 222.65H713.951C710.702 222.65 708.082 219.941 708.082 216.582V69.6936C708.082 66.3339 710.702 63.6253 713.951 63.6253H734.204C737.453 63.6253 740.073 66.3339 740.073 69.6936V70.1103C740.073 75.6056 746.496 78.1579 750.224 74.2252C752.643 71.6469 755.262 69.3811 758.083 67.4278Z" fill="#293147"/>
</g>
<defs>
<clipPath id="clip0_569_46">
<rect width="800" height="226.452" fill="white" transform="translate(0.376953)"/>
</clipPath>
</defs>
</svg>
