<svg width="300" height="300" viewBox="0 0 300 300" fill="none" xmlns="http://www.w3.org/2000/svg">
<path fill-rule="evenodd" clip-rule="evenodd" d="M150 300C232.843 300 300 232.843 300 150C300 67.1573 232.843 0 150 0C67.1573 0 0 67.1573 0 150V225C0 245.987 16.7893 263 37.5 263C58.2107 263 75 245.987 75 225V150C75 108.579 108.579 75 150 75C191.421 75 225 108.579 225 150C225 191.421 191.421 225 150 225C129.013 225 112 241.789 112 262.5C112 283.211 129.013 300 150 300ZM149.5 187C170.211 187 187 170.211 187 149.5C187 128.789 170.211 112 149.5 112C128.789 112 112 128.789 112 149.5C112 170.211 128.789 187 149.5 187Z" fill="#0261F5"/>
</svg>
