<svg width="1750" height="600" viewBox="0 0 1750 600" fill="none" xmlns="http://www.w3.org/2000/svg">
<circle cx="300" cy="300" r="300" fill="#0261F5"/>
<path fill-rule="evenodd" clip-rule="evenodd" d="M224.766 169.922C294.511 129.655 383.151 151.764 426.091 218.939L353.479 247.962C330.114 223.877 292.558 217.744 262.174 235.286C231.79 252.828 218.324 288.419 227.5 320.697L166.515 368.71C129.865 297.948 155.045 210.176 224.766 169.922ZM173.824 381.31C216.906 448.019 305.228 469.878 374.766 429.73C444.328 389.568 469.552 302.103 433.266 231.425L371.848 279.779C381.024 312.057 367.558 347.648 337.174 365.19C306.79 382.732 269.235 376.598 245.869 352.513L173.824 381.31Z" fill="white"/>
<path d="M887.441 165.162C898.871 169.915 908.664 176.556 916.882 185.021C925.069 193.517 931.492 203.577 936.121 215.232C940.749 226.886 943.048 239.615 943.048 253.386C943.048 267.157 940.749 279.886 936.121 291.541C931.492 303.195 925.1 313.287 916.882 321.752C908.664 330.248 898.871 336.857 887.473 341.643C876.075 346.428 863.7 348.805 850.381 348.805H801.167C797.105 348.805 793.83 352.19 793.83 356.39V428.695C793.83 432.894 790.555 436.28 786.494 436.28H757.337C753.275 436.28 750 432.894 750 428.695V165.585C750 161.386 753.275 158 757.337 158H850.35C863.669 158 876.043 160.377 887.441 165.162ZM885.521 217.445C876.421 208.037 864.708 203.349 850.35 203.349H801.167C797.105 203.349 793.83 206.735 793.83 210.934V295.968C793.83 300.168 797.105 303.553 801.167 303.553H850.35C864.708 303.553 876.421 298.865 885.521 289.457C894.62 280.049 899.155 268.068 899.155 253.484C899.155 238.899 894.62 226.854 885.521 217.445Z" fill="#293147"/>
<path d="M1133.67 436.28H1108.35C1104.29 436.28 1101.02 432.894 1101.02 428.695V427.523C1101.02 420.914 1093.33 417.431 1088.7 421.988C1084.74 425.895 1080.49 429.281 1076.02 432.113C1066.54 438.071 1054.48 441.066 1039.87 441.066C1027.56 441.066 1016.98 439.08 1008.16 435.108C999.312 431.136 992.07 425.439 986.434 418.017C980.798 410.594 976.705 401.837 974.123 391.777C971.572 381.718 970.281 370.454 970.281 357.985V245.085C970.281 240.885 973.556 237.499 977.618 237.499H1005.64C1009.7 237.499 1012.98 240.885 1012.98 245.085V351.995C1012.98 366.84 1015.75 378.56 1021.26 387.187C1026.77 395.814 1036.72 400.112 1051.05 400.112C1060.27 400.112 1067.95 398.321 1074.13 394.74C1080.27 391.159 1085.21 386.243 1088.92 380.025C1092.64 373.807 1095.35 366.515 1096.99 358.148C1098.65 349.814 1099.47 340.861 1099.47 331.323V245.085C1099.47 240.885 1102.75 237.499 1106.81 237.499H1133.67C1137.73 237.499 1141 240.885 1141 245.085V428.695C1141 432.894 1137.73 436.28 1133.67 436.28Z" fill="#293147"/>
<path d="M1218.25 436.28H1190.6C1186.54 436.28 1183.26 432.894 1183.26 428.695V165.585C1183.26 161.386 1186.54 158 1190.6 158H1218.25C1222.31 158 1225.58 161.386 1225.58 165.585V428.695C1225.58 432.894 1222.31 436.28 1218.25 436.28Z" fill="#293147"/>
<path d="M1281.72 249.024C1295.04 238.15 1313.78 232.714 1337.86 232.714C1356.32 232.714 1371.71 235.969 1383.99 242.448C1394.13 247.819 1402.82 254.753 1410 263.25C1412.55 266.278 1412.33 270.901 1409.5 273.7L1392.05 290.987C1389.13 293.885 1384.47 293.787 1381.7 290.727C1377.6 286.202 1372.53 282.295 1366.49 279.039C1357.89 274.417 1347.59 272.073 1335.53 272.073C1326.06 272.073 1318.44 273.798 1312.64 277.249C1306.85 280.7 1303.98 285.453 1303.98 291.573C1303.98 298.996 1307.76 304.172 1315.32 307.069C1322.88 309.999 1334.21 313.157 1349.36 316.608C1357.58 318.464 1365.57 320.645 1373.38 323.151C1381.19 325.658 1388.18 329.174 1394.35 333.699C1400.49 338.192 1405.44 343.954 1409.15 350.986C1412.87 358.018 1414.73 366.971 1414.73 377.811C1414.73 388.685 1412.8 398.093 1408.96 406.037C1405.12 413.98 1399.8 420.556 1393 425.7C1386.2 430.876 1378.01 434.717 1368.38 437.224C1358.77 439.731 1348.19 441.001 1336.67 441.001C1318.22 441.001 1301.43 437.81 1286.29 431.462C1273.22 425.96 1262.74 417.594 1254.83 406.362C1252.69 403.302 1253.1 399.07 1255.75 396.465L1273.57 378.788C1276.62 375.76 1281.57 375.956 1284.21 379.341C1289.6 386.276 1296.36 391.55 1304.55 395.098C1315.19 399.721 1326.78 402.065 1339.34 402.065C1349.07 402.065 1357.04 400.405 1363.18 397.084C1369.32 393.763 1372.41 388.262 1372.41 380.579C1372.41 372.896 1368.94 367.524 1362.02 364.464C1355.09 361.404 1344.32 358.311 1329.71 355.12C1322.28 353.525 1314.53 351.474 1306.44 348.968C1298.35 346.461 1290.98 342.945 1284.34 338.42C1277.66 333.927 1272.21 328.002 1267.99 320.742C1263.78 313.45 1261.63 304.367 1261.63 293.526C1261.73 274.742 1268.37 259.897 1281.72 249.024Z" fill="#293147"/>
<path d="M1463.37 245.443C1476.82 236.946 1494.83 232.714 1517.4 232.714C1544.58 232.714 1564.76 239.192 1577.95 252.182C1591.15 265.171 1597.76 284.509 1597.76 310.227V428.662C1597.76 432.862 1594.48 436.247 1590.42 436.247H1563.56C1559.5 436.247 1556.23 432.862 1556.23 428.662C1556.23 422.184 1548.92 418.733 1544.17 422.932C1540.58 426.09 1536.58 428.955 1532.2 431.462C1522.06 437.289 1509.72 440.219 1495.11 440.219C1485.13 440.219 1476.09 438.689 1468 435.661C1459.91 432.634 1453.14 428.369 1447.63 422.932C1442.12 417.496 1437.84 411.017 1434.75 403.465C1431.66 395.912 1430.12 387.643 1430.12 378.625C1430.12 360.329 1435.95 345.907 1447.63 335.294C1459.28 324.682 1473.95 318.594 1491.65 316.999L1545.08 311.432C1552.51 310.65 1556.23 307.59 1556.23 302.284V297.921C1556.23 290.238 1553.08 283.955 1546.81 279.039C1540.55 274.124 1530.97 271.682 1518.16 271.682C1506.38 271.682 1495.99 273.993 1487.02 278.649C1480.44 282.067 1475.49 287.211 1472.22 294.145C1470.3 298.214 1465.42 299.744 1461.7 297.335L1441.02 283.825C1437.96 281.839 1436.7 277.77 1438.21 274.384C1443.41 262.371 1451.82 252.735 1463.37 245.443ZM1500.84 351.605C1491.36 352.939 1484.37 355.902 1479.87 360.557C1475.4 365.18 1473.13 370.812 1473.13 377.453C1473.13 385.136 1475.75 391.289 1481 395.944C1486.26 400.567 1494.13 402.911 1504.65 402.911C1512.59 402.911 1519.76 401.576 1526.19 398.939C1532.58 396.303 1537.96 392.787 1542.34 388.392C1546.69 384.029 1550.09 378.983 1552.54 373.286C1554.97 367.589 1556.2 361.827 1556.2 355.999V353.069C1556.2 348.512 1552.32 344.996 1547.95 345.549L1500.84 351.605Z" fill="#293147"/>
<path d="M1697.13 242.285C1706.23 235.937 1717.57 232.746 1731.17 232.746C1735.48 232.746 1739.73 233.104 1743.92 233.821C1747.45 234.439 1750 237.629 1750 241.308V271.682C1750 276.37 1745.94 279.886 1741.47 279.137C1740.93 279.039 1740.36 278.942 1739.8 278.877C1736.33 278.356 1732.68 278.095 1728.84 278.095C1709.6 278.095 1696.03 283.988 1688.1 295.773C1680.16 307.558 1676.16 324.063 1676.16 345.256V428.727C1676.16 432.927 1672.89 436.313 1668.83 436.313H1641.97C1637.91 436.313 1634.63 432.927 1634.63 428.727V245.117C1634.63 240.918 1637.91 237.532 1641.97 237.532H1667.28C1671.34 237.532 1674.62 240.918 1674.62 245.117V245.638C1674.62 252.507 1682.65 255.698 1687.31 250.782C1690.33 247.559 1693.61 244.726 1697.13 242.285Z" fill="#293147"/>
</svg>
