<svg width="346" height="346" viewBox="0 0 346 346" fill="none" xmlns="http://www.w3.org/2000/svg">
<circle cx="172.75" cy="172.75" r="172.75" fill="white"/>
<path d="M298 173C298 242.036 242.036 298 173 298C103.964 298 48 242.036 48 173C48 103.964 103.964 48 173 48C242.036 48 298 103.964 298 173Z" fill="white"/>
<circle cx="173.25" cy="173.25" r="77.25" fill="#293147"/>
<path fill-rule="evenodd" clip-rule="evenodd" d="M155.02 296.716C132.96 293.539 112.762 284.6 96 271.475V108H155.02V296.716Z" fill="#293147"/>
<path d="M202.02 172.51C202.02 188.808 188.808 202.02 172.51 202.02C156.212 202.02 143 188.808 143 172.51C143 156.212 156.212 143 172.51 143C188.808 143 202.02 156.212 202.02 172.51Z" fill="white"/>
</svg>
