<svg width="253" height="282" viewBox="0 0 253 282" fill="none" xmlns="http://www.w3.org/2000/svg">
<path fill-rule="evenodd" clip-rule="evenodd" d="M150.576 1.54235C96.1865 -8.04797 44.3207 28.2689 34.7304 82.6583C34.7304 82.6583 34.7303 82.6584 34.7303 82.6584C34.7301 82.6584 34.7299 82.6583 34.7296 82.6583L0 279.62C54.3894 289.21 106.255 252.893 115.846 198.504C115.846 198.504 115.846 198.504 115.846 198.504L150.576 1.54235ZM170.273 5.01532C224.662 14.6056 260.979 66.4715 251.389 120.861C241.798 175.25 189.932 211.567 135.543 201.977L170.273 5.01532ZM131.446 110H29.903L26.3764 130H127.92L131.446 110Z" fill="#0261F5"/>
</svg>
