<svg width="1650" height="500" viewBox="0 0 1650 500" fill="none" xmlns="http://www.w3.org/2000/svg">
<rect width="500" height="500" rx="100" fill="#293147"/>
<path fill-rule="evenodd" clip-rule="evenodd" d="M174.766 119.922C244.511 79.6552 333.151 101.764 376.091 168.939L303.479 197.962C280.114 173.877 242.558 167.744 212.174 185.286C181.79 202.828 168.324 238.419 177.5 270.697L116.515 318.71C79.8647 247.948 105.045 160.176 174.766 119.922ZM123.824 331.31C166.906 398.019 255.228 419.878 324.766 379.73C394.328 339.568 419.552 252.103 383.266 181.425L321.848 229.779C331.024 262.057 317.558 297.648 287.174 315.19C256.79 332.732 219.235 326.598 195.869 302.513L123.824 331.31Z" fill="white"/>
<path d="M787.441 115.162C798.871 119.915 808.664 126.556 816.882 135.021C825.069 143.517 831.492 153.577 836.121 165.232C840.749 176.886 843.048 189.615 843.048 203.386C843.048 217.157 840.749 229.886 836.121 241.541C831.492 253.195 825.1 263.287 816.882 271.752C808.664 280.248 798.871 286.857 787.473 291.643C776.075 296.428 763.7 298.805 750.381 298.805H701.167C697.105 298.805 693.83 302.19 693.83 306.39V378.695C693.83 382.894 690.555 386.28 686.494 386.28H657.337C653.275 386.28 650 382.894 650 378.695V115.585C650 111.386 653.275 108 657.337 108H750.35C763.669 108 776.043 110.377 787.441 115.162ZM785.521 167.445C776.421 158.037 764.708 153.349 750.35 153.349H701.167C697.105 153.349 693.83 156.735 693.83 160.934V245.968C693.83 250.168 697.105 253.553 701.167 253.553H750.35C764.708 253.553 776.421 248.865 785.521 239.457C794.62 230.049 799.155 218.068 799.155 203.484C799.155 188.899 794.62 176.854 785.521 167.445Z" fill="#293147"/>
<path d="M1033.67 386.28H1008.35C1004.29 386.28 1001.02 382.894 1001.02 378.695V377.523C1001.02 370.914 993.333 367.431 988.704 371.988C984.737 375.895 980.486 379.281 976.015 382.113C966.537 388.071 954.478 391.066 939.868 391.066C927.556 391.066 916.977 389.08 908.16 385.108C899.312 381.136 892.07 375.439 886.434 368.017C880.798 360.594 876.705 351.837 874.123 341.777C871.572 331.718 870.281 320.454 870.281 307.985V195.085C870.281 190.885 873.556 187.499 877.618 187.499H905.641C909.703 187.499 912.978 190.885 912.978 195.085V301.995C912.978 316.84 915.749 328.56 921.259 337.187C926.769 345.814 936.719 350.112 951.046 350.112C960.272 350.112 967.954 348.321 974.126 344.74C980.266 341.159 985.209 336.243 988.925 330.025C992.64 323.807 995.348 316.515 996.986 308.148C998.654 299.814 999.473 290.861 999.473 281.323V195.085C999.473 190.885 1002.75 187.499 1006.81 187.499H1033.67C1037.73 187.499 1041 190.885 1041 195.085V378.695C1041 382.894 1037.73 386.28 1033.67 386.28Z" fill="#293147"/>
<path d="M1118.25 386.28H1090.6C1086.54 386.28 1083.26 382.894 1083.26 378.695V115.585C1083.26 111.386 1086.54 108 1090.6 108H1118.25C1122.31 108 1125.58 111.386 1125.58 115.585V378.695C1125.58 382.894 1122.31 386.28 1118.25 386.28Z" fill="#293147"/>
<path d="M1181.72 199.024C1195.04 188.15 1213.78 182.714 1237.86 182.714C1256.32 182.714 1271.71 185.969 1283.99 192.448C1294.13 197.819 1302.82 204.753 1310 213.25C1312.55 216.278 1312.33 220.901 1309.5 223.7L1292.05 240.987C1289.13 243.885 1284.47 243.787 1281.7 240.727C1277.6 236.202 1272.53 232.295 1266.49 229.039C1257.89 224.417 1247.59 222.073 1235.53 222.073C1226.06 222.073 1218.44 223.798 1212.64 227.249C1206.85 230.7 1203.98 235.453 1203.98 241.573C1203.98 248.996 1207.76 254.172 1215.32 257.069C1222.88 259.999 1234.21 263.157 1249.36 266.608C1257.58 268.464 1265.57 270.645 1273.38 273.151C1281.19 275.658 1288.18 279.174 1294.35 283.699C1300.49 288.192 1305.44 293.954 1309.15 300.986C1312.87 308.018 1314.73 316.971 1314.73 327.811C1314.73 338.685 1312.8 348.093 1308.96 356.037C1305.12 363.98 1299.8 370.556 1293 375.7C1286.2 380.876 1278.01 384.717 1268.38 387.224C1258.77 389.731 1248.19 391.001 1236.67 391.001C1218.22 391.001 1201.43 387.81 1186.29 381.462C1173.22 375.96 1162.74 367.594 1154.83 356.362C1152.69 353.302 1153.1 349.07 1155.75 346.465L1173.57 328.788C1176.62 325.76 1181.57 325.956 1184.21 329.341C1189.6 336.276 1196.36 341.55 1204.55 345.098C1215.19 349.721 1226.78 352.065 1239.34 352.065C1249.07 352.065 1257.04 350.405 1263.18 347.084C1269.32 343.763 1272.41 338.262 1272.41 330.579C1272.41 322.896 1268.94 317.524 1262.02 314.464C1255.09 311.404 1244.32 308.311 1229.71 305.12C1222.28 303.525 1214.53 301.474 1206.44 298.968C1198.35 296.461 1190.98 292.945 1184.34 288.42C1177.66 283.927 1172.21 278.002 1167.99 270.742C1163.78 263.45 1161.63 254.367 1161.63 243.526C1161.73 224.742 1168.37 209.897 1181.72 199.024Z" fill="#293147"/>
<path d="M1363.37 195.443C1376.82 186.946 1394.83 182.714 1417.4 182.714C1444.58 182.714 1464.76 189.192 1477.95 202.182C1491.15 215.171 1497.76 234.509 1497.76 260.227V378.662C1497.76 382.862 1494.48 386.247 1490.42 386.247H1463.56C1459.5 386.247 1456.23 382.862 1456.23 378.662C1456.23 372.184 1448.92 368.733 1444.17 372.932C1440.58 376.09 1436.58 378.955 1432.2 381.462C1422.06 387.289 1409.72 390.219 1395.11 390.219C1385.13 390.219 1376.09 388.689 1368 385.661C1359.91 382.634 1353.14 378.369 1347.63 372.932C1342.12 367.496 1337.84 361.017 1334.75 353.465C1331.66 345.912 1330.12 337.643 1330.12 328.625C1330.12 310.329 1335.95 295.907 1347.63 285.294C1359.28 274.682 1373.95 268.594 1391.65 266.999L1445.08 261.432C1452.51 260.65 1456.23 257.59 1456.23 252.284V247.921C1456.23 240.238 1453.08 233.955 1446.81 229.039C1440.55 224.124 1430.97 221.682 1418.16 221.682C1406.38 221.682 1395.99 223.993 1387.02 228.649C1380.44 232.067 1375.49 237.211 1372.22 244.145C1370.3 248.214 1365.42 249.744 1361.7 247.335L1341.02 233.825C1337.96 231.839 1336.7 227.77 1338.21 224.384C1343.41 212.371 1351.82 202.735 1363.37 195.443ZM1400.84 301.605C1391.36 302.939 1384.37 305.902 1379.87 310.557C1375.4 315.18 1373.13 320.812 1373.13 327.453C1373.13 335.136 1375.75 341.289 1381 345.944C1386.26 350.567 1394.13 352.911 1404.65 352.911C1412.59 352.911 1419.76 351.576 1426.19 348.939C1432.58 346.303 1437.96 342.787 1442.34 338.392C1446.69 334.029 1450.09 328.983 1452.54 323.286C1454.97 317.589 1456.2 311.827 1456.2 305.999V303.069C1456.2 298.512 1452.32 294.996 1447.95 295.549L1400.84 301.605Z" fill="#293147"/>
<path d="M1597.13 192.285C1606.23 185.937 1617.57 182.746 1631.17 182.746C1635.48 182.746 1639.73 183.104 1643.92 183.821C1647.45 184.439 1650 187.629 1650 191.308V221.682C1650 226.37 1645.94 229.886 1641.47 229.137C1640.93 229.039 1640.36 228.942 1639.8 228.877C1636.33 228.356 1632.68 228.095 1628.84 228.095C1609.6 228.095 1596.03 233.988 1588.1 245.773C1580.16 257.558 1576.16 274.063 1576.16 295.256V378.727C1576.16 382.927 1572.89 386.313 1568.83 386.313H1541.97C1537.91 386.313 1534.63 382.927 1534.63 378.727V195.117C1534.63 190.918 1537.91 187.532 1541.97 187.532H1567.28C1571.34 187.532 1574.62 190.918 1574.62 195.117V195.638C1574.62 202.507 1582.65 205.697 1587.31 200.782C1590.33 197.559 1593.61 194.726 1597.13 192.285Z" fill="#293147"/>
</svg>
