<svg width="1001" height="346" viewBox="0 0 1001 346" fill="none" xmlns="http://www.w3.org/2000/svg">
<path d="M517.832 98.0038C524.222 100.661 529.696 104.373 534.29 109.105C538.867 113.855 542.458 119.478 545.045 125.994C547.633 132.509 548.917 139.625 548.917 147.323C548.917 155.021 547.633 162.137 545.045 168.652C542.458 175.167 538.884 180.809 534.29 185.54C529.696 190.29 524.222 193.985 517.85 196.66C511.478 199.335 504.561 200.664 497.115 200.664H469.603C467.332 200.664 465.502 202.556 465.502 204.904V245.324C465.502 247.671 463.671 249.564 461.401 249.564H445.101C442.831 249.564 441 247.671 441 245.324V98.2403C441 95.8927 442.831 94 445.101 94H497.097C504.543 94 511.461 95.3285 517.832 98.0038ZM516.759 127.231C511.672 121.972 505.124 119.351 497.097 119.351H469.603C467.332 119.351 465.502 121.244 465.502 123.591V171.127C465.502 173.474 467.332 175.367 469.603 175.367H497.097C505.124 175.367 511.672 172.747 516.759 167.487C521.846 162.228 524.38 155.53 524.38 147.377C524.38 139.224 521.846 132.491 516.759 127.231Z" fill="#293147"/>
<path d="M655.479 249.564H641.327C639.056 249.564 637.226 247.671 637.226 245.324V244.668C637.226 240.974 632.931 239.027 630.343 241.575C628.126 243.759 625.749 245.651 623.25 247.235C617.952 250.565 611.21 252.239 603.043 252.239C596.16 252.239 590.246 251.129 585.318 248.909C580.372 246.689 576.323 243.504 573.172 239.354C570.022 235.205 567.733 230.31 566.29 224.686C564.864 219.063 564.143 212.766 564.143 205.796V142.682C564.143 140.334 565.973 138.442 568.244 138.442H583.91C586.18 138.442 588.011 140.334 588.011 142.682V202.447C588.011 210.746 589.56 217.297 592.64 222.12C595.72 226.943 601.283 229.345 609.292 229.345C614.449 229.345 618.744 228.344 622.194 226.342C625.626 224.34 628.39 221.592 630.467 218.116C632.544 214.64 634.057 210.564 634.973 205.887C635.906 201.228 636.363 196.223 636.363 190.891V142.682C636.363 140.334 638.194 138.442 640.465 138.442H655.479C657.75 138.442 659.58 140.334 659.58 142.682V245.324C659.58 247.671 657.75 249.564 655.479 249.564Z" fill="#293147"/>
<path d="M702.759 249.564H687.304C685.034 249.564 683.203 247.671 683.203 245.324V98.2403C683.203 95.8927 685.034 94 687.304 94H702.759C705.03 94 706.86 95.8927 706.86 98.2403V245.324C706.86 247.671 705.03 249.564 702.759 249.564Z" fill="#293147"/>
<path d="M738.244 144.884C745.689 138.806 756.162 135.766 769.628 135.766C779.943 135.766 788.55 137.586 795.415 141.208C801.083 144.211 805.941 148.087 809.954 152.837C811.38 154.53 811.256 157.114 809.672 158.679L799.921 168.342C798.284 169.962 795.679 169.908 794.13 168.197C791.841 165.667 789.008 163.483 785.628 161.663C780.823 159.079 775.067 157.769 768.325 157.769C763.027 157.769 758.767 158.733 755.529 160.663C752.29 162.592 750.688 165.249 750.688 168.67C750.688 172.819 752.8 175.713 757.025 177.333C761.249 178.971 767.586 180.736 776.053 182.665C780.647 183.702 785.118 184.922 789.483 186.323C793.848 187.724 797.756 189.69 801.206 192.219C804.638 194.731 807.402 197.952 809.479 201.883C811.556 205.814 812.594 210.819 812.594 216.879C812.594 222.957 811.52 228.217 809.373 232.657C807.226 237.098 804.251 240.774 800.449 243.649C796.647 246.543 792.07 248.691 786.684 250.092C781.316 251.493 775.401 252.203 768.959 252.203C758.644 252.203 749.262 250.419 740.796 246.871C733.491 243.795 727.63 239.118 723.212 232.839C722.015 231.129 722.243 228.763 723.722 227.307L733.685 217.425C735.392 215.732 738.156 215.842 739.634 217.734C742.644 221.611 746.428 224.559 751.005 226.542C756.954 229.127 763.432 230.437 770.455 230.437C775.894 230.437 780.347 229.509 783.78 227.653C787.212 225.796 788.937 222.721 788.937 218.426C788.937 214.131 787.001 211.128 783.129 209.417C779.256 207.707 773.236 205.978 765.069 204.194C760.915 203.303 756.585 202.156 752.061 200.755C747.537 199.353 743.419 197.388 739.705 194.858C735.973 192.347 732.928 189.035 730.569 184.976C728.21 180.9 727.014 175.822 727.014 169.762C727.066 159.261 730.78 150.963 738.244 144.884Z" fill="#293147"/>
<path d="M839.789 142.882C847.305 138.132 857.373 135.766 869.994 135.766C885.184 135.766 896.467 139.388 903.842 146.649C911.218 153.911 914.914 164.721 914.914 179.098V245.306C914.914 247.653 913.083 249.546 910.813 249.546H895.798C893.528 249.546 891.697 247.653 891.697 245.306C891.697 241.684 887.613 239.755 884.955 242.103C882.949 243.868 880.713 245.469 878.267 246.871C872.599 250.128 865.699 251.766 857.532 251.766C851.952 251.766 846.9 250.911 842.376 249.218C837.853 247.526 834.068 245.142 830.988 242.103C827.908 239.063 825.514 235.442 823.789 231.22C822.064 226.997 821.201 222.375 821.201 217.334C821.201 207.106 824.458 199.044 830.988 193.111C837.501 187.178 845.703 183.775 855.595 182.883L885.466 179.771C889.62 179.335 891.697 177.624 891.697 174.657V172.219C891.697 167.924 889.937 164.412 886.434 161.663C882.931 158.915 877.58 157.551 870.416 157.551C863.833 157.551 858.024 158.843 853.008 161.445C849.329 163.356 846.566 166.231 844.735 170.108C843.661 172.383 840.933 173.238 838.856 171.891L827.291 164.339C825.584 163.229 824.88 160.954 825.725 159.061C828.629 152.346 833.329 146.959 839.789 142.882ZM860.735 202.229C855.437 202.975 851.529 204.631 849.012 207.233C846.513 209.818 845.245 212.966 845.245 216.679C845.245 220.974 846.706 224.413 849.646 227.016C852.585 229.6 856.986 230.91 862.865 230.91C867.301 230.91 871.314 230.164 874.905 228.69C878.478 227.216 881.488 225.25 883.934 222.793C886.364 220.355 888.265 217.534 889.638 214.349C890.993 211.164 891.679 207.943 891.679 204.686V203.048C891.679 200.5 889.514 198.534 887.068 198.844L860.735 202.229Z" fill="#293147"/>
<path d="M970.466 141.117C975.553 137.568 981.89 135.785 989.494 135.785C991.905 135.785 994.282 135.985 996.623 136.385C998.594 136.731 1000.02 138.515 1000.02 140.571V157.551C1000.02 160.171 997.749 162.137 995.25 161.718C994.95 161.663 994.634 161.609 994.317 161.572C992.381 161.281 990.339 161.136 988.191 161.136C977.437 161.136 969.85 164.43 965.414 171.018C960.979 177.606 958.743 186.833 958.743 198.68V245.342C958.743 247.69 956.913 249.582 954.642 249.582H939.628C937.357 249.582 935.526 247.69 935.526 245.342V142.7C935.526 140.353 937.357 138.46 939.628 138.46H953.78C956.05 138.46 957.881 140.353 957.881 142.7V142.991C957.881 146.831 962.369 148.615 964.974 145.867C966.664 144.065 968.495 142.482 970.466 141.117Z" fill="#293147"/>
<path d="M345.5 172.75C345.5 268.157 268.157 345.5 172.75 345.5C77.3428 345.5 0 268.157 0 172.75C0 77.3428 77.3428 0 172.75 0C268.157 0 345.5 77.3428 345.5 172.75Z" fill="#0261F5"/>
<path d="M298 173C298 242.036 242.036 298 173 298C103.964 298 48 242.036 48 173C48 103.964 103.964 48 173 48C242.036 48 298 103.964 298 173Z" fill="#0261F5"/>
<circle cx="173.25" cy="173.25" r="77.25" fill="white"/>
<path fill-rule="evenodd" clip-rule="evenodd" d="M155.02 296.716C132.96 293.539 112.762 284.6 96 271.475V108H155.02V296.716Z" fill="white"/>
<path fill-rule="evenodd" clip-rule="evenodd" d="M190 148.739C185.105 145.132 179.057 143 172.51 143C156.212 143 143 156.212 143 172.51C143 188.808 156.212 202.02 172.51 202.02C179.057 202.02 185.105 199.888 190 196.281V148.739Z" fill="#0261F5"/>
<path d="M195 48V298" stroke="#0261F5" stroke-width="10"/>
<path d="M215 48V298" stroke="#0261F5" stroke-width="10"/>
<path d="M235 48V298" stroke="#0261F5" stroke-width="10"/>
</svg>
