<svg width="1001" height="346" viewBox="0 0 1001 346" fill="none" xmlns="http://www.w3.org/2000/svg">
<circle cx="172.75" cy="172.75" r="172.75" fill="#0261F5"/>
<path d="M298 173C298 242.036 242.036 298 173 298C103.964 298 48 242.036 48 173C48 103.964 103.964 48 173 48C242.036 48 298 103.964 298 173Z" fill="#0261F5"/>
<circle cx="173.25" cy="173.25" r="77.25" fill="white"/>
<path fill-rule="evenodd" clip-rule="evenodd" d="M155.02 296.716C132.96 293.539 112.762 284.6 96 271.475V108H155.02V296.716Z" fill="white"/>
<path d="M202.02 172.51C202.02 188.808 188.808 202.02 172.51 202.02C156.212 202.02 143 188.808 143 172.51C143 156.212 156.212 143 172.51 143C188.808 143 202.02 156.212 202.02 172.51Z" fill="#0261F5"/>
<path d="M517.832 98.0038C524.222 100.661 529.696 104.373 534.29 109.105C538.867 113.855 542.458 119.478 545.045 125.994C547.633 132.509 548.917 139.625 548.917 147.323C548.917 155.021 547.633 162.137 545.045 168.652C542.458 175.167 538.884 180.809 534.29 185.54C529.696 190.29 524.222 193.985 517.85 196.66C511.478 199.335 504.561 200.664 497.115 200.664H469.603C467.332 200.664 465.502 202.556 465.502 204.904V245.324C465.502 247.671 463.671 249.564 461.401 249.564H445.101C442.831 249.564 441 247.671 441 245.324V98.2403C441 95.8927 442.831 94 445.101 94H497.097C504.543 94 511.461 95.3285 517.832 98.0038ZM516.759 127.231C511.672 121.972 505.124 119.351 497.097 119.351H469.603C467.332 119.351 465.502 121.244 465.502 123.591V171.127C465.502 173.474 467.332 175.367 469.603 175.367H497.097C505.124 175.367 511.672 172.747 516.759 167.487C521.846 162.228 524.38 155.53 524.38 147.377C524.38 139.224 521.846 132.491 516.759 127.231Z" fill="#293147"/>
<path d="M655.479 249.564H641.328C639.057 249.564 637.226 247.671 637.226 245.324V244.668C637.226 240.974 632.931 239.027 630.344 241.575C628.126 243.759 625.75 245.651 623.25 247.235C617.952 250.565 611.211 252.239 603.043 252.239C596.161 252.239 590.247 251.129 585.318 248.909C580.372 246.689 576.324 243.504 573.173 239.354C570.022 235.205 567.734 230.31 566.291 224.686C564.865 219.063 564.143 212.766 564.143 205.796V142.682C564.143 140.334 565.974 138.442 568.244 138.442H583.91C586.181 138.442 588.011 140.334 588.011 142.682V202.447C588.011 210.746 589.56 217.297 592.641 222.12C595.721 226.943 601.283 229.345 609.292 229.345C614.449 229.345 618.744 228.344 622.194 226.342C625.627 224.34 628.39 221.592 630.467 218.116C632.544 214.64 634.058 210.564 634.973 205.887C635.906 201.228 636.364 196.223 636.364 190.891V142.682C636.364 140.334 638.194 138.442 640.465 138.442H655.479C657.75 138.442 659.581 140.334 659.581 142.682V245.324C659.581 247.671 657.75 249.564 655.479 249.564Z" fill="#293147"/>
<path d="M702.758 249.564H687.304C685.033 249.564 683.203 247.671 683.203 245.324V98.2403C683.203 95.8927 685.033 94 687.304 94H702.758C705.029 94 706.86 95.8927 706.86 98.2403V245.324C706.86 247.671 705.029 249.564 702.758 249.564Z" fill="#293147"/>
<path d="M738.244 144.884C745.69 138.806 756.163 135.766 769.628 135.766C779.943 135.766 788.55 137.586 795.415 141.208C801.083 144.211 805.941 148.087 809.954 152.837C811.38 154.53 811.257 157.114 809.673 158.679L799.921 168.342C798.284 169.962 795.679 169.908 794.13 168.197C791.842 165.667 789.008 163.483 785.628 161.663C780.823 159.079 775.067 157.769 768.326 157.769C763.028 157.769 758.768 158.733 755.529 160.663C752.29 162.592 750.689 165.249 750.689 168.67C750.689 172.819 752.801 175.713 757.025 177.333C761.25 178.971 767.587 180.736 776.053 182.665C780.647 183.702 785.118 184.922 789.483 186.323C793.849 187.724 797.756 189.69 801.206 192.219C804.639 194.731 807.402 197.952 809.479 201.883C811.556 205.814 812.595 210.819 812.595 216.879C812.595 222.957 811.521 228.217 809.374 232.657C807.226 237.098 804.251 240.774 800.449 243.649C796.647 246.543 792.071 248.691 786.685 250.092C781.316 251.493 775.402 252.203 768.959 252.203C758.645 252.203 749.263 250.419 740.796 246.871C733.492 243.795 727.63 239.118 723.212 232.839C722.015 231.129 722.244 228.763 723.722 227.307L733.685 217.425C735.393 215.732 738.156 215.842 739.635 217.734C742.645 221.611 746.429 224.559 751.005 226.542C756.955 229.127 763.432 230.437 770.456 230.437C775.895 230.437 780.348 229.509 783.78 227.653C787.213 225.796 788.938 222.721 788.938 218.426C788.938 214.131 787.001 211.128 783.129 209.417C779.257 207.707 773.237 205.978 765.069 204.194C760.915 203.303 756.585 202.156 752.062 200.755C747.538 199.353 743.419 197.388 739.705 194.858C735.973 192.347 732.928 189.035 730.57 184.976C728.211 180.9 727.014 175.822 727.014 169.762C727.067 159.261 730.781 150.963 738.244 144.884Z" fill="#293147"/>
<path d="M839.789 142.882C847.305 138.132 857.374 135.766 869.994 135.766C885.185 135.766 896.468 139.388 903.843 146.649C911.218 153.911 914.914 164.721 914.914 179.098V245.306C914.914 247.653 913.084 249.546 910.813 249.546H895.799C893.528 249.546 891.697 247.653 891.697 245.306C891.697 241.684 887.614 239.755 884.956 242.103C882.949 243.868 880.714 245.469 878.267 246.871C872.599 250.128 865.699 251.766 857.532 251.766C851.952 251.766 846.9 250.911 842.377 249.218C837.853 247.526 834.069 245.142 830.988 242.103C827.908 239.063 825.514 235.442 823.789 231.22C822.064 226.997 821.202 222.375 821.202 217.334C821.202 207.106 824.458 199.044 830.988 193.111C837.501 187.178 845.704 183.775 855.596 182.883L885.466 179.771C889.62 179.335 891.697 177.624 891.697 174.657V172.219C891.697 167.924 889.937 164.412 886.434 161.663C882.932 158.915 877.581 157.551 870.417 157.551C863.834 157.551 858.025 158.843 853.008 161.445C849.33 163.356 846.566 166.231 844.735 170.108C843.662 172.383 840.933 173.238 838.856 171.891L827.292 164.339C825.585 163.229 824.88 160.954 825.725 159.061C828.63 152.346 833.329 146.959 839.789 142.882ZM860.736 202.229C855.437 202.975 851.53 204.631 849.013 207.233C846.513 209.818 845.246 212.966 845.246 216.679C845.246 220.974 846.707 224.413 849.646 227.016C852.586 229.6 856.986 230.91 862.865 230.91C867.301 230.91 871.314 230.164 874.905 228.69C878.478 227.216 881.488 225.25 883.935 222.793C886.364 220.355 888.265 217.534 889.638 214.349C890.993 211.164 891.68 207.943 891.68 204.686V203.048C891.68 200.5 889.515 198.534 887.068 198.844L860.736 202.229Z" fill="#293147"/>
<path d="M970.467 141.117C975.554 137.568 981.89 135.785 989.494 135.785C991.906 135.785 994.282 135.985 996.623 136.385C998.595 136.731 1000.02 138.515 1000.02 140.571V157.551C1000.02 160.171 997.75 162.137 995.25 161.718C994.951 161.663 994.634 161.609 994.317 161.572C992.381 161.281 990.339 161.136 988.192 161.136C977.437 161.136 969.851 164.43 965.415 171.018C960.979 177.606 958.744 186.833 958.744 198.68V245.342C958.744 247.69 956.913 249.582 954.643 249.582H939.628C937.357 249.582 935.527 247.69 935.527 245.342V142.7C935.527 140.353 937.357 138.46 939.628 138.46H953.78C956.051 138.46 957.881 140.353 957.881 142.7V142.991C957.881 146.831 962.37 148.615 964.975 145.867C966.665 144.065 968.495 142.482 970.467 141.117Z" fill="#293147"/>
</svg>
