<svg width="250" height="250" viewBox="0 0 250 250" fill="none" xmlns="http://www.w3.org/2000/svg">
<path d="M250 125C250 194.036 194.036 250 125 250C55.9644 250 0 194.036 0 125C0 55.9644 55.9644 0 125 0C194.036 0 250 55.9644 250 125Z" fill="white"/>
<circle cx="125.25" cy="125.25" r="77.25" fill="#0261F5"/>
<path fill-rule="evenodd" clip-rule="evenodd" d="M107.02 248.716C84.96 245.539 64.762 236.6 48 223.475V60H107.02V248.716Z" fill="#0261F5"/>
<path d="M154.02 124.51C154.02 140.808 140.808 154.02 124.51 154.02C108.212 154.02 95 140.808 95 124.51C95 108.212 108.212 95 124.51 95C140.808 95 154.02 108.212 154.02 124.51Z" fill="white"/>
</svg>
