<svg width="714" height="250" viewBox="0 0 714 250" fill="none" xmlns="http://www.w3.org/2000/svg">
<path d="M364.595 70.8971C369.218 72.8197 373.179 75.506 376.504 78.9298C379.815 82.3668 382.413 86.4359 384.286 91.1502C386.158 95.8645 387.088 101.013 387.088 106.584C387.088 112.154 386.158 117.303 384.286 122.017C382.413 126.731 379.828 130.814 376.504 134.237C373.179 137.674 369.218 140.348 364.608 142.283C359.997 144.219 354.992 145.18 349.604 145.18H329.697C328.054 145.18 326.729 146.55 326.729 148.249V177.496C326.729 179.195 325.405 180.564 323.762 180.564H311.968C310.325 180.564 309 179.195 309 177.496V71.0683C309 69.3695 310.325 68 311.968 68H349.591C354.979 68 359.984 68.9613 364.595 70.8971ZM363.818 92.0457C360.137 88.24 355.399 86.3437 349.591 86.3437H329.697C328.054 86.3437 326.729 87.7132 326.729 89.412V123.808C326.729 125.507 328.054 126.876 329.697 126.876H349.591C355.399 126.876 360.137 124.98 363.818 121.174C367.499 117.369 369.333 112.523 369.333 106.623C369.333 100.724 367.499 95.8513 363.818 92.0457Z" fill="#293147"/>
<path d="M464.194 180.564H453.954C452.311 180.564 450.987 179.195 450.987 177.496V177.022C450.987 174.349 447.879 172.94 446.007 174.783C444.402 176.364 442.682 177.733 440.874 178.879C437.04 181.289 432.162 182.5 426.252 182.5C421.272 182.5 416.993 181.697 413.427 180.09C409.848 178.484 406.918 176.179 404.638 173.177C402.358 170.174 400.703 166.632 399.658 162.563C398.627 158.494 398.104 153.938 398.104 148.894V103.226C398.104 101.527 399.429 100.157 401.072 100.157H412.408C414.051 100.157 415.375 101.527 415.375 103.226V146.471C415.375 152.476 416.496 157.217 418.725 160.706C420.954 164.196 424.979 165.934 430.774 165.934C434.506 165.934 437.613 165.21 440.11 163.761C442.593 162.313 444.593 160.324 446.096 157.809C447.599 155.294 448.694 152.344 449.356 148.96C450.031 145.589 450.363 141.967 450.363 138.109V103.226C450.363 101.527 451.687 100.157 453.33 100.157H464.194C465.837 100.157 467.162 101.527 467.162 103.226V177.496C467.162 179.195 465.837 180.564 464.194 180.564Z" fill="#293147"/>
<path d="M498.405 180.564H487.222C485.579 180.564 484.255 179.195 484.255 177.496V71.0683C484.255 69.3695 485.579 68 487.222 68H498.405C500.048 68 501.373 69.3695 501.373 71.0683V177.496C501.373 179.195 500.048 180.564 498.405 180.564Z" fill="#293147"/>
<path d="M524.083 104.819C529.47 100.421 537.048 98.2217 546.792 98.2217C554.255 98.2217 560.484 99.5385 565.451 102.159C569.552 104.332 573.067 107.137 575.971 110.574C577.003 111.798 576.914 113.668 575.767 114.801L568.711 121.793C567.527 122.965 565.642 122.926 564.521 121.688C562.865 119.858 560.815 118.277 558.369 116.96C554.892 115.091 550.727 114.142 545.849 114.142C542.016 114.142 538.933 114.84 536.59 116.236C534.246 117.632 533.087 119.555 533.087 122.03C533.087 125.033 534.616 127.127 537.672 128.299C540.729 129.484 545.314 130.761 551.441 132.157C554.765 132.907 558 133.79 561.159 134.804C564.317 135.818 567.145 137.24 569.641 139.07C572.125 140.888 574.124 143.218 575.627 146.063C577.13 148.907 577.882 152.529 577.882 156.914C577.882 161.312 577.105 165.118 575.551 168.331C573.997 171.544 571.845 174.204 569.094 176.285C566.342 178.378 563.031 179.932 559.134 180.946C555.249 181.96 550.969 182.474 546.308 182.474C538.844 182.474 532.056 181.183 525.929 178.615C520.644 176.39 516.402 173.006 513.206 168.462C512.339 167.225 512.505 165.513 513.575 164.459L520.784 157.309C522.019 156.084 524.019 156.163 525.089 157.533C527.267 160.337 530.005 162.471 533.317 163.906C537.621 165.776 542.309 166.724 547.39 166.724C551.326 166.724 554.548 166.053 557.032 164.709C559.516 163.366 560.764 161.141 560.764 158.033C560.764 154.925 559.363 152.752 556.561 151.515C553.759 150.277 549.403 149.026 543.493 147.735C540.487 147.09 537.354 146.26 534.081 145.246C530.807 144.232 527.827 142.81 525.14 140.98C522.44 139.163 520.236 136.766 518.529 133.829C516.823 130.88 515.957 127.206 515.957 122.82C515.995 115.222 518.682 109.217 524.083 104.819Z" fill="#293147"/>
<path d="M597.559 103.371C602.998 99.9336 610.283 98.2217 619.415 98.2217C630.407 98.2217 638.571 100.842 643.908 106.096C649.244 111.351 651.919 119.173 651.919 129.576V177.483C651.919 179.182 650.594 180.551 648.951 180.551H638.087C636.444 180.551 635.119 179.182 635.119 177.483C635.119 174.862 632.164 173.466 630.241 175.165C628.789 176.443 627.172 177.601 625.401 178.615C621.3 180.972 616.307 182.158 610.398 182.158C606.36 182.158 602.705 181.539 599.431 180.314C596.158 179.089 593.42 177.364 591.191 175.165C588.962 172.966 587.23 170.345 585.982 167.29C584.733 164.235 584.109 160.891 584.109 157.243C584.109 149.842 586.466 144.009 591.191 139.716C595.903 135.423 601.839 132.96 608.997 132.315L630.611 130.063C633.616 129.747 635.119 128.509 635.119 126.363V124.598C635.119 121.49 633.846 118.949 631.311 116.96C628.776 114.972 624.905 113.984 619.721 113.984C614.957 113.984 610.754 114.919 607.124 116.802C604.462 118.185 602.463 120.266 601.138 123.071C600.361 124.717 598.387 125.336 596.884 124.361L588.516 118.896C587.281 118.093 586.771 116.447 587.383 115.077C589.484 110.218 592.885 106.32 597.559 103.371ZM612.716 146.313C608.882 146.853 606.054 148.051 604.233 149.934C602.425 151.804 601.508 154.082 601.508 156.769C601.508 159.877 602.565 162.365 604.692 164.248C606.819 166.118 610.003 167.067 614.257 167.067C617.466 167.067 620.37 166.527 622.969 165.46C625.554 164.393 627.732 162.971 629.502 161.193C631.26 159.429 632.636 157.388 633.629 155.083C634.61 152.779 635.107 150.448 635.107 148.091V146.906C635.107 145.062 633.54 143.64 631.77 143.864L612.716 146.313Z" fill="#293147"/>
<path d="M692.115 102.093C695.796 99.5254 700.381 98.2349 705.883 98.2349C707.628 98.2349 709.348 98.3797 711.042 98.6694C712.468 98.9196 713.5 100.21 713.5 101.698V113.984C713.5 115.881 711.857 117.303 710.048 117C709.832 116.96 709.602 116.921 709.373 116.895C707.972 116.684 706.495 116.579 704.941 116.579C697.159 116.579 691.669 118.962 688.46 123.729C685.25 128.496 683.633 135.172 683.633 143.745V177.509C683.633 179.208 682.308 180.577 680.665 180.577H669.801C668.158 180.577 666.833 179.208 666.833 177.509V103.239C666.833 101.54 668.158 100.171 669.801 100.171H680.041C681.684 100.171 683.008 101.54 683.008 103.239V103.45C683.008 106.228 686.256 107.519 688.141 105.53C689.364 104.227 690.689 103.081 692.115 102.093Z" fill="#293147"/>
<path d="M250 125C250 194.036 194.036 250 125 250C55.9644 250 0 194.036 0 125C0 55.9644 55.9644 0 125 0C194.036 0 250 55.9644 250 125Z" fill="#293147"/>
<circle cx="125.25" cy="125.25" r="77.25" fill="white"/>
<path fill-rule="evenodd" clip-rule="evenodd" d="M107.02 248.716C84.96 245.539 64.762 236.6 48 223.475V60H107.02V248.716Z" fill="white"/>
<path fill-rule="evenodd" clip-rule="evenodd" d="M142 100.739C137.105 97.1318 131.057 95 124.51 95C108.212 95 95 108.212 95 124.51C95 140.808 108.212 154.02 124.51 154.02C131.057 154.02 137.105 151.888 142 148.281V100.739Z" fill="#293147"/>
<path d="M147 48V202.5" stroke="#293147" stroke-width="10"/>
<path d="M167 48V202.5" stroke="#293147" stroke-width="10"/>
<path d="M187 48V202.5" stroke="#293147" stroke-width="10"/>
</svg>
