<svg width="405" height="405" viewBox="0 0 405 405" fill="none" xmlns="http://www.w3.org/2000/svg">
<path d="M0 0H404.5V404.5H0V0Z" fill="white"/>
<path d="M327 202C327 271.036 271.036 327 202 327C132.964 327 77 271.036 77 202C77 132.964 132.964 77 202 77C271.036 77 327 132.964 327 202Z" fill="#0261F5"/>
<circle cx="202.25" cy="202.25" r="77.25" fill="white"/>
<path fill-rule="evenodd" clip-rule="evenodd" d="M184.02 325.716C161.96 322.539 141.762 313.6 125 300.475V137H184.02V325.716Z" fill="white"/>
<path d="M231.02 201.51C231.02 217.808 217.808 231.02 201.51 231.02C185.212 231.02 172 217.808 172 201.51C172 185.212 185.212 172 201.51 172C217.808 172 231.02 185.212 231.02 201.51Z" fill="#0261F5"/>
</svg>
