<svg width="501" height="500" viewBox="0 0 501 500" fill="none" xmlns="http://www.w3.org/2000/svg">
<rect x="0.535156" width="500" height="500" fill="white"/>
<path fill-rule="evenodd" clip-rule="evenodd" d="M175.301 119.922C245.046 79.6552 333.686 101.764 376.627 168.939L304.014 197.962C280.649 173.877 243.093 167.744 212.709 185.286C182.326 202.828 168.86 238.419 178.035 270.697L117.05 318.71C80.3999 247.948 105.58 160.176 175.301 119.922ZM124.359 331.31C167.441 398.019 255.763 419.878 325.301 379.73C394.863 339.568 420.087 252.103 383.801 181.425L322.383 229.779C331.559 262.057 318.093 297.648 287.709 315.19C257.326 332.732 219.77 326.598 196.404 302.513L124.359 331.31Z" fill="#293147"/>
</svg>
