<svg width="827" height="772" viewBox="0 0 827 772" fill="none" xmlns="http://www.w3.org/2000/svg">
<rect x="160" width="500" height="500" rx="100" fill="#293147"/>
<path fill-rule="evenodd" clip-rule="evenodd" d="M334.766 119.922C404.511 79.6552 493.151 101.764 536.091 168.939L463.479 197.962C440.114 173.877 402.558 167.744 372.175 185.286C341.791 202.828 328.325 238.418 337.5 270.696L276.514 318.71C239.865 247.948 265.045 160.175 334.766 119.922ZM283.824 331.31C326.906 398.019 415.228 419.878 484.766 379.73C554.328 339.568 579.552 252.103 543.266 181.425L481.849 229.778C491.025 262.056 477.559 297.648 447.175 315.19C416.791 332.732 379.235 326.598 355.87 302.513L283.824 331.31Z" fill="white"/>
<path d="M733.938 710.304L755.47 710.297L755.492 710.339L781.976 759.607L783.391 762.24H786.38H810.001H818.445L814.385 754.835L786.743 704.43L786.575 704.122C794.117 700.204 799.942 694.708 803.844 687.616C807.844 680.384 809.766 672.136 809.766 663.021C809.766 653.878 807.872 645.599 803.932 638.331C799.927 630.899 793.882 625.144 786.002 621.059C778.063 616.919 768.374 615 757.189 615H708.203H703.203V620V637.758V642.758H708.203H728.938H754.975C761.383 642.758 766.075 643.73 769.354 645.333L769.383 645.347L769.412 645.36C772.776 646.952 775.024 649.124 776.438 651.853L776.449 651.874L776.46 651.894C778.019 654.836 778.897 658.489 778.897 663.021C778.897 667.525 778.036 671.072 776.54 673.856C775.154 676.435 772.934 678.517 769.557 680.043L769.548 680.047L769.539 680.051C766.212 681.571 761.535 682.481 755.243 682.481H728.938H708.203H703.203V687.481V757.24V762.24H708.203H728.938H733.938V757.24V710.304Z" fill="#293147" stroke="#293147" stroke-width="10"/>
<path d="M570.092 762.24H573.651L574.817 758.877L609.546 658.66L644.215 758.874L645.379 762.24H648.94H670.95H678.067L675.654 755.544L626.198 618.305L625.007 615H621.494H597.538H594.025L592.834 618.305L543.378 755.544L540.965 762.24H548.082H570.092Z" fill="#293147" stroke="#293147" stroke-width="10"/>
<path d="M483.864 658.489L484.365 662.929H488.833H508.83H513.953L513.828 657.807C513.626 649.482 511.18 641.969 506.441 635.433C501.761 628.934 495.407 623.922 487.556 620.345C479.679 616.734 470.738 615 460.85 615C451.033 615 442.046 616.762 433.979 620.395C425.929 623.975 419.392 629.08 414.532 635.753C409.562 642.578 407.132 650.531 407.132 659.403C407.132 670.206 410.808 679.295 418.367 686.157L418.374 686.163L418.38 686.168C425.558 692.639 435.053 697.344 446.585 700.48C446.586 700.48 446.586 700.481 446.587 700.481L462.824 704.903L462.845 704.909L462.865 704.914C467.585 706.157 471.743 707.574 475.359 709.152L475.368 709.156L475.378 709.16C478.796 710.634 481.243 712.387 482.933 714.306L482.949 714.324L482.965 714.342C484.332 715.864 485.175 717.935 485.175 720.986C485.175 724.382 484.202 727.184 482.298 729.606C480.282 732.127 477.414 734.244 473.471 735.851C469.604 737.401 465.046 738.234 459.709 738.234C454.891 738.234 450.567 737.529 446.692 736.179C443.011 734.837 440.109 732.869 437.857 730.314C435.83 727.923 434.557 724.837 434.227 720.783L433.854 716.187H429.244H408.441H403.163L403.449 721.458C403.94 730.543 406.545 738.622 411.4 745.511L411.405 745.518L411.41 745.526C416.248 752.34 422.893 757.508 431.146 761.089C439.428 764.683 449.039 766.394 459.843 766.394C471.1 766.394 481.002 764.57 489.379 760.71C497.691 756.9 504.263 751.58 508.835 744.658C513.445 737.748 515.709 729.869 515.709 721.187C515.709 714.363 514.345 708.2 511.397 702.892C508.651 697.871 505.018 693.625 500.515 690.202C496.216 686.933 491.547 684.297 486.519 682.298C481.729 680.394 477.025 678.872 472.407 677.74L459.02 674.265L458.997 674.259L458.974 674.253C456.47 673.628 453.837 672.83 451.073 671.855C448.492 670.901 446.086 669.738 443.847 668.369C441.929 667.13 440.424 665.645 439.272 663.911C438.357 662.475 437.8 660.64 437.8 658.197C437.8 655.344 438.597 652.929 440.178 650.779C441.845 648.529 444.273 646.628 447.701 645.177L447.722 645.168L447.743 645.159C451.091 643.705 455.259 642.892 460.38 642.892C467.507 642.892 472.992 644.484 477.163 647.32L477.175 647.329L477.187 647.337C481.128 649.983 483.309 653.569 483.864 658.489Z" fill="#293147" stroke="#293147" stroke-width="10"/>
<path d="M283.164 757.406V762.406H288.164H371.204H376.204V757.406V739.56V734.56H371.204H313.907V620V615H308.907H288.164H283.164V620V757.406Z" fill="#293147" stroke="#293147" stroke-width="10"/>
<path d="M230.668 615H225.668V620V709.808C225.668 715.371 224.487 720.117 222.256 724.181L222.248 724.196L222.239 724.211C220.066 728.235 216.93 731.408 212.712 733.769C208.62 736.039 203.571 737.28 197.38 737.28C191.243 737.28 186.217 736.043 182.122 733.773C177.942 731.411 174.765 728.226 172.495 724.166C170.269 720.106 169.092 715.364 169.092 709.808V620V615H164.092H143.684H138.684V620V711.506C138.684 722.033 141.097 731.56 146.051 739.934L146.058 739.946C150.995 748.242 157.937 754.753 166.757 759.462L166.766 759.467L166.776 759.472C175.675 764.174 185.927 766.437 197.38 766.437C208.873 766.437 219.148 764.175 228.05 759.472L228.059 759.467L228.069 759.462C236.889 754.753 243.831 748.242 248.768 739.946L248.775 739.934C253.729 731.56 256.142 722.033 256.142 711.506V620V615H251.142H230.668Z" fill="#293147" stroke="#293147" stroke-width="10"/>
<path d="M35.7353 760.962V713.991H58.9192C70.1465 713.991 79.8789 711.945 87.8463 707.536L87.8557 707.531C95.7144 703.16 101.72 697.156 105.694 689.527C109.641 681.992 111.563 673.589 111.563 664.429C111.563 655.319 109.666 646.965 105.767 639.475C101.797 631.804 95.8139 625.79 87.9805 621.455C80.0104 617.045 70.2542 615 58.9863 615H10H5V620V620.037V620.074V620.111V620.149V620.186V620.223V620.26V620.297V620.334V620.371V620.408V620.445V620.482V620.519V620.556V620.593V620.63V620.667V620.704V620.741V620.778V620.815V620.852V620.889V620.925V620.962V620.999V621.036V621.073V621.11V621.146V621.183V621.22V621.257V621.294V621.33V621.367V621.404V621.441V621.477V621.514V621.551V621.587V621.624V621.661V621.697V621.734V621.771V621.807V621.844V621.88V621.917V621.954V621.99V622.027V622.063V622.1V622.136V622.173V622.209V622.246V622.282V622.319V622.355V622.392V622.428V622.464V622.501V622.537V622.574V622.61V622.646V622.683V622.719V622.755V622.792V622.828V622.864V622.901V622.937V622.973V623.009V623.046V623.082V623.118V623.154V623.191V623.227V623.263V623.299V623.335V623.371V623.408V623.444V623.48V623.516V623.552V623.588V623.624V623.66V623.696V623.732V623.768V623.805V623.841V623.877V623.913V623.949V623.984V624.02V624.056V624.092V624.128V624.164V624.2V624.236V624.272V624.308V624.344V624.38V624.415V624.451V624.487V624.523V624.559V624.595V624.63V624.666V624.702V624.738V624.773V624.809V624.845V624.881V624.916V624.952V624.988V625.023V625.059V625.095V625.13V625.166V625.202V625.237V625.273V625.308V625.344V625.38V625.415V625.451V625.486V625.522V625.557V625.593V625.628V625.664V625.699V625.735V625.77V625.806V625.841V625.877V625.912V625.948V625.983V626.018V626.054V626.089V626.125V626.16V626.195V626.231V626.266V626.301V626.337V626.372V626.407V626.443V626.478V626.513V626.548V626.584V626.619V626.654V626.689V626.724V626.76V626.795V626.83V626.865V626.9V626.936V626.971V627.006V627.041V627.076V627.111V627.146V627.181V627.216V627.252V627.287V627.322V627.357V627.392V627.427V627.462V627.497V627.532V627.567V627.602V627.637V627.672V627.707V627.742V627.776V627.811V627.846V627.881V627.916V627.951V627.986V628.021V628.056V628.09V628.125V628.16V628.195V628.23V628.265V628.299V628.334V628.369V628.404V628.438V628.473V628.508V628.543V628.577V628.612V628.647V628.681V628.716V628.751V628.786V628.82V628.855V628.889V628.924V628.959V628.993V629.028V629.063V629.097V629.132V629.166V629.201V629.235V629.27V629.304V629.339V629.374V629.408V629.443V629.477V629.512V629.546V629.58V629.615V629.649V629.684V629.718V629.753V629.787V629.822V629.856V629.89V629.925V629.959V629.993V630.028V630.062V630.096V630.131V630.165V630.199V630.234V630.268V630.302V630.337V630.371V630.405V630.439V630.474V630.508V630.542V630.576V630.611V630.645V630.679V630.713V630.747V630.781V630.816V630.85V630.884V630.918V630.952V630.986V631.02V631.055V631.089V631.123V631.157V631.191V631.225V631.259V631.293V631.327V631.361V631.395V631.429V631.463V631.497V631.531V631.565V631.599V631.633V631.667V631.701V631.735V631.769V631.803V631.837V631.871V631.905V631.938V631.972V632.006V632.04V632.074V632.108V632.142V632.176V632.209V632.243V632.277V632.311V632.345V632.378V632.412V632.446V632.48V632.513V632.547V632.581V632.615V632.648V632.682V632.716V632.75V632.783V632.817V632.851V632.884V632.918V632.952V632.985V633.019V633.053V633.086V633.12V633.154V633.187V633.221V633.254V633.288V633.322V633.355V633.389V633.422V633.456V633.489V633.523V633.556V633.59V633.623V633.657V633.69V633.724V633.757V633.791V633.824V633.858V633.891V633.925V633.958V633.992V634.025V634.058V634.092V634.125V634.159V634.192V634.225V634.259V634.292V634.326V634.359V634.392V634.426V634.459V634.492V634.526V634.559V634.592V634.625V634.659V634.692V634.725V634.759V634.792V634.825V634.858V634.892V634.925V634.958V634.991V635.024V635.058V635.091V635.124V635.157V635.19V635.224V635.257V635.29V635.323V635.356V635.389V635.423V635.456V635.489V635.522V635.555V635.588V635.621V635.654V635.687V635.72V635.753V635.787V635.82V635.853V635.886V635.919V635.952V635.985V636.018V636.051V636.084V636.117V636.15V636.183V636.216V636.249V636.282V636.315V636.347V636.38V636.413V636.446V636.479V636.512V636.545V636.578V636.611V636.644V636.677V636.709V636.742V636.775V636.808V636.841V636.874V636.907V636.939V636.972V637.005V637.038V637.071V637.103V637.136V637.169V637.202V637.235V637.267V637.3V637.333V637.366V637.398V637.431V637.464V637.496V637.529V637.562V637.595V637.627V637.66V637.693V637.725V637.758V642.758H10H30.7353H56.7718C63.1721 642.758 67.8094 643.826 71.0318 645.572L71.0416 645.577L71.0513 645.582C74.4533 647.406 76.7789 649.817 78.2505 652.823C79.8348 656.059 80.6938 659.888 80.6938 664.429C80.6938 668.967 79.8352 672.829 78.241 676.121C76.7506 679.199 74.4169 681.68 71.0458 683.583C67.8217 685.359 63.2632 686.434 57.0402 686.434H30.7353H10H5V691.434V760.962V765.962H10H30.7353H35.7353V760.962Z" fill="#293147" stroke="#293147" stroke-width="10"/>
</svg>
