<svg width="1600" height="600" viewBox="0 0 1600 600" fill="none" xmlns="http://www.w3.org/2000/svg">
<circle cx="300" cy="300" r="300" fill="#293147"/>
<path fill-rule="evenodd" clip-rule="evenodd" d="M300 450C382.843 450 450 382.843 450 300C450 217.157 382.843 150 300 150C217.157 150 150 217.157 150 300V350V450C205.228 450 250 405.229 250 350V300C250 272.386 272.386 250 300 250C327.614 250 350 272.386 350 300C350 327.614 327.614 350 300 350H290V450H300Z" fill="white"/>
<path d="M823.697 179.446C833.984 183.724 842.797 189.701 850.194 197.319C857.562 204.966 863.343 214.019 867.508 224.508C871.674 234.998 873.743 246.454 873.743 258.847C873.743 271.241 871.674 282.697 867.508 293.186C863.343 303.676 857.59 312.758 850.194 320.376C842.797 328.024 833.984 333.971 823.726 338.278C813.467 342.585 802.33 344.724 790.343 344.724H746.05C742.394 344.724 739.447 347.771 739.447 351.551V416.625C739.447 420.405 736.5 423.452 732.844 423.452H706.603C702.947 423.452 700 420.405 700 416.625V179.827C700 176.047 702.947 173 706.603 173H790.315C802.302 173 813.439 175.139 823.697 179.446ZM821.969 226.501C813.779 218.033 803.237 213.814 790.315 213.814H746.05C742.394 213.814 739.447 216.861 739.447 220.641V297.171C739.447 300.951 742.394 303.998 746.05 303.998H790.315C803.237 303.998 813.779 299.779 821.969 291.311C830.158 282.844 834.239 272.062 834.239 258.935C834.239 245.809 830.158 234.968 821.969 226.501Z" fill="#293147"/>
<path d="M1045.3 423.452H1022.52C1018.86 423.452 1015.92 420.405 1015.92 416.625V415.57C1015.92 409.623 1009 406.488 1004.83 410.589C1001.26 414.105 997.438 417.153 993.414 419.702C984.884 425.063 974.031 427.759 960.882 427.759C949.801 427.759 940.28 425.972 932.345 422.397C924.382 418.823 917.864 413.695 912.792 407.015C907.719 400.335 904.035 392.453 901.711 383.4C899.416 374.346 898.254 364.208 898.254 352.987V251.376C898.254 247.596 901.201 244.549 904.857 244.549H930.078C933.734 244.549 936.681 247.596 936.681 251.376V347.596C936.681 360.956 939.175 371.504 944.134 379.268C949.093 387.033 958.048 390.9 970.942 390.9C979.245 390.9 986.16 389.289 991.714 386.066C997.24 382.843 1001.69 378.419 1005.03 372.822C1008.38 367.226 1010.81 360.663 1012.29 353.133C1013.79 345.633 1014.53 337.575 1014.53 328.99V251.376C1014.53 247.596 1017.47 244.549 1021.13 244.549H1045.3C1048.96 244.549 1051.9 247.596 1051.9 251.376V416.625C1051.9 420.405 1048.96 423.452 1045.3 423.452Z" fill="#293147"/>
<path d="M1121.42 423.452H1096.54C1092.88 423.452 1089.94 420.405 1089.94 416.625V179.827C1089.94 176.047 1092.88 173 1096.54 173H1121.42C1125.08 173 1128.02 176.047 1128.02 179.827V416.625C1128.02 420.405 1125.08 423.452 1121.42 423.452Z" fill="#293147"/>
<path d="M1178.55 254.921C1190.54 245.135 1207.4 240.242 1229.08 240.242C1245.69 240.242 1259.54 243.172 1270.59 249.003C1279.72 253.837 1287.54 260.078 1294 267.725C1296.3 270.45 1296.1 274.611 1293.55 277.13L1277.85 292.688C1275.21 295.296 1271.02 295.208 1268.53 292.454C1264.84 288.381 1260.28 284.865 1254.84 281.935C1247.1 277.775 1237.84 275.665 1226.98 275.665C1218.45 275.665 1211.59 277.218 1206.38 280.324C1201.17 283.43 1198.59 287.707 1198.59 293.216C1198.59 299.896 1201.99 304.555 1208.79 307.162C1215.59 309.799 1225.79 312.641 1239.42 315.747C1246.82 317.417 1254.02 319.38 1261.04 321.636C1268.07 323.892 1274.36 327.057 1279.92 331.129C1285.44 335.173 1289.89 340.359 1293.24 346.687C1296.58 353.016 1298.25 361.073 1298.25 370.83C1298.25 380.616 1296.52 389.084 1293.07 396.233C1289.61 403.382 1284.82 409.3 1278.7 413.93C1272.58 418.588 1265.21 422.046 1256.54 424.302C1247.9 426.558 1238.37 427.7 1228 427.7C1211.4 427.7 1196.29 424.829 1182.66 419.116C1170.9 414.164 1161.46 406.634 1154.35 396.526C1152.42 393.772 1152.79 389.963 1155.17 387.619L1171.21 371.709C1173.96 368.984 1178.41 369.16 1180.79 372.207C1185.64 378.448 1191.73 383.195 1199.1 386.388C1208.68 390.549 1219.1 392.658 1230.41 392.658C1239.17 392.658 1246.34 391.164 1251.86 388.175C1257.39 385.187 1260.17 380.235 1260.17 373.321C1260.17 366.406 1257.05 361.572 1250.81 358.817C1244.58 356.063 1234.89 353.28 1221.74 350.408C1215.05 348.973 1208.08 347.127 1200.8 344.871C1193.51 342.615 1186.88 339.45 1180.9 335.378C1174.9 331.334 1169.99 326.002 1166.2 319.468C1162.4 312.905 1160.47 304.73 1160.47 294.974C1160.56 278.068 1166.54 264.707 1178.55 254.921Z" fill="#293147"/>
<path d="M1342.03 251.698C1354.14 244.051 1370.34 240.242 1390.66 240.242C1415.12 240.242 1433.28 246.073 1445.16 257.763C1457.03 269.454 1462.98 286.858 1462.98 310.004V416.596C1462.98 420.376 1460.04 423.423 1456.38 423.423H1432.21C1428.55 423.423 1425.6 420.376 1425.6 416.596C1425.6 410.765 1419.03 407.66 1414.75 411.439C1411.52 414.281 1407.92 416.86 1403.98 419.116C1394.86 424.36 1383.75 426.997 1370.6 426.997C1361.62 426.997 1353.48 425.62 1346.2 422.895C1338.92 420.17 1332.82 416.332 1327.87 411.439C1322.91 406.546 1319.05 400.716 1316.28 393.918C1313.5 387.121 1312.11 379.679 1312.11 371.563C1312.11 355.096 1317.35 342.117 1327.87 332.565C1338.35 323.013 1351.56 317.534 1367.48 316.099L1415.57 311.088C1422.26 310.385 1425.6 307.631 1425.6 302.855V298.929C1425.6 292.014 1422.77 286.36 1417.13 281.935C1411.49 277.511 1402.88 275.314 1391.34 275.314C1380.75 275.314 1371.39 277.394 1363.32 281.584C1357.39 284.66 1352.95 289.29 1350 295.53C1348.27 299.193 1343.88 300.57 1340.53 298.402L1321.91 286.243C1319.17 284.455 1318.03 280.793 1319.39 277.746C1324.07 266.934 1331.63 258.261 1342.03 251.698ZM1375.76 347.244C1367.23 348.445 1360.94 351.112 1356.88 355.301C1352.86 359.462 1350.82 364.531 1350.82 370.508C1350.82 377.422 1353.17 382.96 1357.9 387.15C1362.64 391.31 1369.72 393.42 1379.19 393.42C1386.33 393.42 1392.79 392.219 1398.57 389.845C1404.32 387.472 1409.17 384.308 1413.11 380.352C1417.02 376.426 1420.08 371.885 1422.29 366.757C1424.47 361.63 1425.58 356.444 1425.58 351.199V348.562C1425.58 344.461 1422.09 341.296 1418.15 341.794L1375.76 347.244Z" fill="#293147"/>
<path d="M1552.42 248.856C1560.61 243.143 1570.81 240.272 1583.05 240.272C1586.94 240.272 1590.76 240.594 1594.53 241.238C1597.7 241.795 1600 244.667 1600 247.977V275.314C1600 279.533 1596.34 282.697 1592.32 282.023C1591.84 281.935 1591.33 281.848 1590.82 281.789C1587.7 281.32 1584.41 281.086 1580.96 281.086C1563.64 281.086 1551.43 286.389 1544.29 296.995C1537.15 307.602 1533.55 322.457 1533.55 341.531V416.654C1533.55 420.434 1530.6 423.481 1526.94 423.481H1502.77C1499.12 423.481 1496.17 420.434 1496.17 416.654V251.405C1496.17 247.626 1499.12 244.579 1502.77 244.579H1525.55C1529.21 244.579 1532.16 247.626 1532.16 251.405V251.874C1532.16 258.056 1539.38 260.928 1543.58 256.504C1546.3 253.603 1549.25 251.054 1552.42 248.856Z" fill="#293147"/>
</svg>
