<svg width="560" height="600" viewBox="0 0 560 600" fill="none" xmlns="http://www.w3.org/2000/svg">
<circle cx="279.75" cy="172.75" r="172.75" fill="#0261F5"/>
<path d="M405 173C405 242.036 349.036 298 280 298C210.964 298 155 242.036 155 173C155 103.964 210.964 48 280 48C349.036 48 405 103.964 405 173Z" fill="#0261F5"/>
<circle cx="280.25" cy="173.25" r="77.25" fill="white"/>
<path fill-rule="evenodd" clip-rule="evenodd" d="M262.02 296.716C239.96 293.539 219.762 284.6 203 271.475V108H262.02V296.716Z" fill="white"/>
<path d="M309.02 172.51C309.02 188.808 295.808 202.02 279.51 202.02C263.212 202.02 250 188.808 250 172.51C250 156.212 263.212 143 279.51 143C295.808 143 309.02 156.212 309.02 172.51Z" fill="#0261F5"/>
<path d="M76.8324 445.004C83.2219 447.661 88.6961 451.373 93.2902 456.105C97.8667 460.855 101.458 466.478 104.045 472.994C106.633 479.509 107.917 486.625 107.917 494.323C107.917 502.021 106.633 509.137 104.045 515.652C101.458 522.167 97.8843 527.809 93.2902 532.54C88.6961 537.29 83.2219 540.985 76.85 543.66C70.4781 546.335 63.5606 547.664 56.115 547.664H28.6031C26.3325 547.664 24.5019 549.556 24.5019 551.904V592.324C24.5019 594.671 22.6713 596.564 20.4006 596.564H4.10125C1.8306 596.564 0 594.671 0 592.324V445.24C0 442.893 1.8306 441 4.10125 441H56.0974C63.543 441 70.4605 442.329 76.8324 445.004ZM75.7587 474.231C70.6718 468.972 64.1238 466.351 56.0974 466.351H28.6031C26.3325 466.351 24.5019 468.244 24.5019 470.591V518.127C24.5019 520.474 26.3325 522.367 28.6031 522.367H56.0974C64.1238 522.367 70.6718 519.747 75.7587 514.487C80.8457 509.228 83.3803 502.53 83.3803 494.377C83.3803 486.224 80.8457 479.491 75.7587 474.231Z" fill="#293147"/>
<path d="M214.479 596.564H200.328C198.057 596.564 196.226 594.671 196.226 592.324V591.668C196.226 587.974 191.931 586.027 189.344 588.575C187.126 590.759 184.75 592.651 182.25 594.235C176.952 597.565 170.211 599.239 162.043 599.239C155.161 599.239 149.247 598.129 144.318 595.909C139.372 593.689 135.324 590.504 132.173 586.354C129.022 582.205 126.734 577.31 125.291 571.686C123.865 566.063 123.143 559.766 123.143 552.796V489.682C123.143 487.334 124.974 485.442 127.244 485.442H142.91C145.181 485.442 147.011 487.334 147.011 489.682V549.447C147.011 557.746 148.56 564.297 151.641 569.12C154.721 573.943 160.283 576.345 168.292 576.345C173.449 576.345 177.744 575.344 181.194 573.342C184.627 571.34 187.39 568.592 189.467 565.116C191.544 561.64 193.058 557.564 193.973 552.887C194.906 548.228 195.364 543.223 195.364 537.891V489.682C195.364 487.334 197.194 485.442 199.465 485.442H214.479C216.75 485.442 218.581 487.334 218.581 489.682V592.324C218.581 594.671 216.75 596.564 214.479 596.564Z" fill="#293147"/>
<path d="M261.758 596.564H246.304C244.033 596.564 242.203 594.671 242.203 592.324V445.24C242.203 442.893 244.033 441 246.304 441H261.758C264.029 441 265.86 442.893 265.86 445.24V592.324C265.86 594.671 264.029 596.564 261.758 596.564Z" fill="#293147"/>
<path d="M297.244 491.884C304.69 485.806 315.163 482.766 328.628 482.766C338.943 482.766 347.55 484.586 354.415 488.208C360.083 491.211 364.941 495.087 368.954 499.837C370.38 501.53 370.257 504.114 368.673 505.679L358.921 515.342C357.284 516.962 354.679 516.908 353.13 515.197C350.842 512.667 348.008 510.483 344.628 508.663C339.823 506.079 334.067 504.769 327.326 504.769C322.028 504.769 317.768 505.733 314.529 507.663C311.29 509.592 309.689 512.249 309.689 515.67C309.689 519.819 311.801 522.713 316.025 524.333C320.25 525.971 326.587 527.736 335.053 529.665C339.647 530.702 344.118 531.922 348.483 533.323C352.849 534.724 356.756 536.69 360.206 539.219C363.639 541.731 366.402 544.952 368.479 548.883C370.556 552.814 371.595 557.819 371.595 563.879C371.595 569.957 370.521 575.217 368.374 579.657C366.226 584.098 363.251 587.774 359.449 590.649C355.647 593.543 351.071 595.691 345.685 597.092C340.316 598.493 334.402 599.203 327.959 599.203C317.645 599.203 308.263 597.419 299.796 593.871C292.492 590.795 286.63 586.118 282.212 579.839C281.015 578.129 281.244 575.763 282.722 574.307L292.685 564.425C294.393 562.732 297.156 562.842 298.635 564.734C301.645 568.611 305.429 571.559 310.005 573.542C315.955 576.127 322.432 577.437 329.456 577.437C334.895 577.437 339.348 576.509 342.78 574.653C346.213 572.796 347.938 569.721 347.938 565.426C347.938 561.131 346.001 558.128 342.129 556.417C338.257 554.707 332.237 552.978 324.069 551.194C319.915 550.303 315.585 549.156 311.062 547.755C306.538 546.353 302.419 544.388 298.705 541.858C294.973 539.347 291.928 536.035 289.57 531.976C287.211 527.9 286.014 522.822 286.014 516.762C286.067 506.261 289.781 497.963 297.244 491.884Z" fill="#293147"/>
<path d="M398.789 489.882C406.305 485.132 416.374 482.766 428.994 482.766C444.185 482.766 455.468 486.388 462.843 493.649C470.218 500.911 473.914 511.721 473.914 526.098V592.306C473.914 594.653 472.084 596.546 469.813 596.546H454.799C452.528 596.546 450.697 594.653 450.697 592.306C450.697 588.684 446.614 586.755 443.956 589.103C441.949 590.868 439.714 592.469 437.267 593.871C431.599 597.128 424.699 598.766 416.532 598.766C410.952 598.766 405.9 597.911 401.377 596.218C396.853 594.526 393.069 592.142 389.988 589.103C386.908 586.063 384.514 582.442 382.789 578.22C381.064 573.997 380.202 569.375 380.202 564.334C380.202 554.106 383.458 546.044 389.988 540.111C396.501 534.178 404.704 530.775 414.596 529.883L444.466 526.771C448.62 526.335 450.697 524.624 450.697 521.657V519.219C450.697 514.924 448.937 511.412 445.434 508.663C441.932 505.915 436.581 504.551 429.417 504.551C422.834 504.551 417.025 505.843 412.008 508.445C408.33 510.356 405.566 513.231 403.735 517.108C402.662 519.383 399.933 520.238 397.856 518.891L386.292 511.339C384.585 510.229 383.88 507.954 384.725 506.061C387.63 499.346 392.329 493.959 398.789 489.882ZM419.736 549.229C414.437 549.975 410.53 551.631 408.013 554.233C405.513 556.818 404.246 559.966 404.246 563.679C404.246 567.974 405.707 571.413 408.646 574.016C411.586 576.6 415.986 577.91 421.865 577.91C426.301 577.91 430.314 577.164 433.905 575.69C437.478 574.216 440.488 572.25 442.935 569.793C445.364 567.355 447.265 564.534 448.638 561.349C449.993 558.164 450.68 554.943 450.68 551.686V550.048C450.68 547.5 448.515 545.534 446.068 545.844L419.736 549.229Z" fill="#293147"/>
<path d="M529.467 488.117C534.554 484.568 540.89 482.785 548.494 482.785C550.906 482.785 553.282 482.985 555.623 483.385C557.595 483.731 559.02 485.515 559.02 487.571V504.551C559.02 507.171 556.75 509.137 554.25 508.718C553.951 508.663 553.634 508.609 553.317 508.572C551.381 508.281 549.339 508.136 547.192 508.136C536.437 508.136 528.851 511.43 524.415 518.018C519.979 524.606 517.744 533.833 517.744 545.68V592.342C517.744 594.69 515.913 596.582 513.643 596.582H498.628C496.357 596.582 494.527 594.69 494.527 592.342V489.7C494.527 487.353 496.357 485.46 498.628 485.46H512.78C515.051 485.46 516.881 487.353 516.881 489.7V489.991C516.881 493.831 521.37 495.615 523.975 492.867C525.665 491.065 527.495 489.482 529.467 488.117Z" fill="#293147"/>
</svg>
