<svg width="500" height="500" viewBox="0 0 500 500" fill="none" xmlns="http://www.w3.org/2000/svg">
<circle cx="250" cy="250" r="250" fill="#0261F5"/>
<path fill-rule="evenodd" clip-rule="evenodd" d="M174.766 114.922C244.511 74.6552 333.151 96.7636 376.091 163.939L303.479 192.962C280.114 168.877 242.558 162.744 212.174 180.286C181.79 197.828 168.324 233.419 177.5 265.697L116.515 313.71C79.8647 242.948 105.045 155.176 174.766 114.922ZM123.824 326.31C166.906 393.019 255.228 414.878 324.766 374.73C394.328 334.568 419.552 247.103 383.266 176.425L321.848 224.779C331.024 257.057 317.558 292.648 287.174 310.19C256.79 327.732 219.235 321.598 195.869 297.513L123.824 326.31Z" fill="white"/>
</svg>
