<svg width="1500" height="500" viewBox="0 0 1500 500" fill="none" xmlns="http://www.w3.org/2000/svg">
<circle cx="250" cy="250" r="250" fill="#0261F5"/>
<path fill-rule="evenodd" clip-rule="evenodd" d="M250 402C332.843 402 400 334.843 400 252C400 169.157 332.843 102 250 102C167.157 102 100 169.157 100 252V327C100 347.987 116.789 365 137.5 365C158.211 365 175 347.987 175 327V252C175 210.579 208.579 177 250 177C291.421 177 325 210.579 325 252C325 293.421 291.421 327 250 327C229.013 327 212 343.789 212 364.5C212 385.211 229.013 402 250 402ZM249.5 289C270.211 289 287 272.211 287 251.5C287 230.789 270.211 214 249.5 214C228.789 214 212 230.789 212 251.5C212 272.211 228.789 289 249.5 289Z" fill="white"/>
<path d="M723.697 131.446C733.984 135.724 742.797 141.701 750.194 149.319C757.562 156.966 763.343 166.019 767.508 176.508C771.674 186.998 773.743 198.454 773.743 210.847C773.743 223.241 771.674 234.697 767.508 245.186C763.343 255.676 757.59 264.758 750.194 272.376C742.797 280.024 733.984 285.971 723.726 290.278C713.467 294.585 702.33 296.724 690.343 296.724H646.05C642.394 296.724 639.447 299.771 639.447 303.551V368.625C639.447 372.405 636.5 375.452 632.844 375.452H606.603C602.947 375.452 600 372.405 600 368.625V131.827C600 128.047 602.947 125 606.603 125H690.315C702.302 125 713.439 127.139 723.697 131.446ZM721.969 178.501C713.779 170.033 703.237 165.814 690.315 165.814H646.05C642.394 165.814 639.447 168.861 639.447 172.641V249.171C639.447 252.951 642.394 255.998 646.05 255.998H690.315C703.237 255.998 713.779 251.779 721.969 243.311C730.158 234.844 734.239 224.062 734.239 210.935C734.239 197.809 730.158 186.968 721.969 178.501Z" fill="#293147"/>
<path d="M945.302 375.452H922.518C918.862 375.452 915.915 372.405 915.915 368.625V367.57C915.915 361.623 909 358.488 904.835 362.589C901.264 366.105 897.438 369.153 893.414 371.702C884.884 377.063 874.031 379.759 860.882 379.759C849.801 379.759 840.28 377.972 832.345 374.397C824.382 370.823 817.864 365.695 812.792 359.015C807.719 352.335 804.035 344.453 801.711 335.4C799.416 326.346 798.254 316.208 798.254 304.987V203.376C798.254 199.596 801.201 196.549 804.857 196.549H830.078C833.734 196.549 836.681 199.596 836.681 203.376V299.596C836.681 312.956 839.175 323.504 844.134 331.268C849.093 339.033 858.048 342.9 870.942 342.9C879.245 342.9 886.16 341.289 891.714 338.066C897.24 334.843 901.689 330.419 905.033 324.822C908.377 319.226 910.814 312.663 912.288 305.133C913.79 297.633 914.526 289.575 914.526 280.99V203.376C914.526 199.596 917.474 196.549 921.129 196.549H945.302C948.958 196.549 951.905 199.596 951.905 203.376V368.625C951.905 372.405 948.958 375.452 945.302 375.452Z" fill="#293147"/>
<path d="M1021.42 375.452H996.54C992.885 375.452 989.938 372.405 989.938 368.625V131.827C989.938 128.047 992.885 125 996.54 125H1021.42C1025.08 125 1028.02 128.047 1028.02 131.827V368.625C1028.02 372.405 1025.08 375.452 1021.42 375.452Z" fill="#293147"/>
<path d="M1078.55 206.921C1090.54 197.135 1107.4 192.242 1129.08 192.242C1145.69 192.242 1159.54 195.172 1170.6 201.003C1179.72 205.837 1187.54 212.078 1194 219.725C1196.3 222.45 1196.1 226.611 1193.55 229.13L1177.85 244.688C1175.22 247.296 1171.02 247.208 1168.53 244.454C1164.84 240.381 1160.28 236.865 1154.84 233.935C1147.1 229.775 1137.84 227.665 1126.98 227.665C1118.45 227.665 1111.6 229.218 1106.38 232.324C1101.17 235.43 1098.59 239.707 1098.59 245.216C1098.59 251.896 1101.99 256.555 1108.79 259.162C1115.59 261.799 1125.79 264.641 1139.42 267.747C1146.82 269.417 1154.02 271.38 1161.05 273.636C1168.07 275.892 1174.37 279.057 1179.92 283.129C1185.45 287.173 1189.9 292.359 1193.24 298.687C1196.58 305.016 1198.25 313.073 1198.25 322.83C1198.25 332.616 1196.53 341.084 1193.07 348.233C1189.61 355.382 1184.82 361.3 1178.7 365.93C1172.58 370.588 1165.21 374.046 1156.54 376.302C1147.9 378.558 1138.38 379.7 1128 379.7C1111.4 379.7 1096.29 376.829 1082.66 371.116C1070.9 366.164 1061.47 358.634 1054.35 348.526C1052.43 345.772 1052.79 341.963 1055.17 339.619L1071.21 323.709C1073.96 320.984 1078.41 321.16 1080.79 324.207C1085.64 330.448 1091.73 335.195 1099.1 338.388C1108.68 342.549 1119.11 344.658 1130.41 344.658C1139.17 344.658 1146.34 343.164 1151.86 340.175C1157.39 337.187 1160.17 332.235 1160.17 325.321C1160.17 318.406 1157.05 313.572 1150.82 310.817C1144.58 308.063 1134.89 305.28 1121.74 302.408C1115.05 300.973 1108.08 299.127 1100.8 296.871C1093.52 294.615 1086.88 291.45 1080.91 287.378C1074.9 283.334 1070 278.002 1066.2 271.468C1062.4 264.905 1060.47 256.73 1060.47 246.974C1060.56 230.068 1066.54 216.707 1078.55 206.921Z" fill="#293147"/>
<path d="M1242.03 203.698C1254.14 196.051 1270.34 192.242 1290.66 192.242C1315.12 192.242 1333.28 198.073 1345.16 209.763C1357.03 221.454 1362.98 238.858 1362.98 262.004V368.596C1362.98 372.376 1360.04 375.423 1356.38 375.423H1332.21C1328.55 375.423 1325.6 372.376 1325.6 368.596C1325.6 362.765 1319.03 359.66 1314.75 363.439C1311.52 366.281 1307.92 368.86 1303.98 371.116C1294.86 376.36 1283.75 378.997 1270.6 378.997C1261.62 378.997 1253.48 377.62 1246.2 374.895C1238.92 372.17 1232.82 368.332 1227.87 363.439C1222.91 358.546 1219.05 352.716 1216.28 345.918C1213.5 339.121 1212.11 331.679 1212.11 323.563C1212.11 307.096 1217.35 294.117 1227.87 284.565C1238.35 275.013 1251.56 269.534 1267.48 268.099L1315.57 263.088C1322.26 262.385 1325.6 259.631 1325.6 254.855V250.929C1325.6 244.014 1322.77 238.36 1317.13 233.935C1311.49 229.511 1302.88 227.314 1291.34 227.314C1280.75 227.314 1271.39 229.394 1263.32 233.584C1257.39 236.66 1252.95 241.29 1250 247.53C1248.27 251.193 1243.88 252.57 1240.53 250.402L1221.91 238.243C1219.17 236.455 1218.03 232.793 1219.39 229.746C1224.07 218.934 1231.63 210.261 1242.03 203.698ZM1275.76 299.244C1267.23 300.445 1260.94 303.112 1256.88 307.301C1252.86 311.462 1250.82 316.531 1250.82 322.508C1250.82 329.422 1253.17 334.96 1257.9 339.15C1262.64 343.31 1269.72 345.42 1279.19 345.42C1286.33 345.42 1292.79 344.219 1298.57 341.845C1304.32 339.472 1309.17 336.308 1313.11 332.352C1317.02 328.426 1320.08 323.885 1322.29 318.757C1324.47 313.63 1325.58 308.444 1325.58 303.199V300.562C1325.58 296.461 1322.09 293.296 1318.15 293.794L1275.76 299.244Z" fill="#293147"/>
<path d="M1452.42 200.856C1460.61 195.143 1470.81 192.272 1483.05 192.272C1486.94 192.272 1490.76 192.594 1494.53 193.238C1497.7 193.795 1500 196.667 1500 199.977V227.314C1500 231.533 1496.34 234.697 1492.32 234.023C1491.84 233.935 1491.33 233.848 1490.82 233.789C1487.7 233.32 1484.41 233.086 1480.96 233.086C1463.64 233.086 1451.43 238.389 1444.29 248.995C1437.15 259.602 1433.55 274.457 1433.55 293.531V368.654C1433.55 372.434 1430.6 375.481 1426.94 375.481H1402.77C1399.12 375.481 1396.17 372.434 1396.17 368.654V203.405C1396.17 199.626 1399.12 196.579 1402.77 196.579H1425.55C1429.21 196.579 1432.16 199.626 1432.16 203.405V203.874C1432.16 210.056 1439.38 212.928 1443.58 208.504C1446.3 205.603 1449.25 203.054 1452.42 200.856Z" fill="#293147"/>
</svg>
