<svg width="500" height="500" viewBox="0 0 500 500" fill="none" xmlns="http://www.w3.org/2000/svg">
<rect width="500" height="500" fill="#293147"/>
<path fill-rule="evenodd" clip-rule="evenodd" d="M174.766 119.922C244.511 79.6552 333.151 101.764 376.091 168.939L303.479 197.962C280.114 173.877 242.558 167.744 212.174 185.286C181.79 202.828 168.324 238.419 177.5 270.697L116.515 318.71C79.8647 247.948 105.045 160.176 174.766 119.922ZM123.824 331.31C166.906 398.019 255.228 419.878 324.766 379.73C394.328 339.568 419.552 252.103 383.266 181.425L321.848 229.779C331.024 262.057 317.558 297.648 287.174 315.19C256.79 332.732 219.235 326.598 195.869 302.513L123.824 331.31Z" fill="white"/>
</svg>
