<svg width="301" height="301" viewBox="0 0 301 301" fill="none" xmlns="http://www.w3.org/2000/svg">
<path fill-rule="evenodd" clip-rule="evenodd" d="M75.7659 20.9223C145.511 -19.3448 234.151 2.76359 277.091 69.939L204.479 98.9624C181.114 74.8774 143.558 68.7438 113.174 86.2858C82.7905 103.828 69.3244 139.419 78.4999 171.697L17.5146 219.71C-19.1353 148.948 6.0453 61.1755 75.7659 20.9223ZM24.8237 232.31C67.9062 299.019 156.228 320.878 225.766 280.73C295.328 240.568 320.552 153.103 284.266 82.425L222.848 130.779C232.024 163.057 218.558 198.648 188.174 216.19C157.79 233.732 120.235 227.598 96.8691 203.513L24.8237 232.31Z" fill="white"/>
</svg>
