<svg width="800" height="227" viewBox="0 0 800 227" fill="none" xmlns="http://www.w3.org/2000/svg">
<g clip-path="url(#clip0_656_762)">
<path d="M109.953 5.72968C119.097 9.5321 126.931 14.8451 133.505 21.6165C140.055 28.414 145.193 36.4616 148.896 45.7853C152.599 55.1091 154.438 65.2923 154.438 76.3089C154.438 87.3255 152.599 97.5087 148.896 106.832C145.193 116.156 140.08 124.23 133.505 131.001C126.931 137.799 119.097 143.086 109.978 146.914C100.86 150.743 90.96 152.644 80.3048 152.644H40.9333C37.6838 152.644 35.0641 155.352 35.0641 158.712V216.556C35.0641 219.915 32.4444 222.624 29.1949 222.624H5.8692C2.61973 222.624 0 219.915 0 216.556V6.06825C0 2.70857 2.61973 0 5.8692 0H80.2796C90.9349 0 100.834 1.90121 109.953 5.72968ZM108.417 47.5563C101.137 40.0296 91.7661 36.2793 80.2796 36.2793H40.9333C37.6838 36.2793 35.0641 38.9878 35.0641 42.3475V110.374C35.0641 113.734 37.6838 116.443 40.9333 116.443H80.2796C91.7661 116.443 101.137 112.692 108.417 105.166C115.696 97.6389 119.324 88.0547 119.324 76.387C119.324 64.7193 115.696 55.083 108.417 47.5563Z" fill="#293147"/>
<path d="M306.937 222.624H286.684C283.435 222.624 280.815 219.915 280.815 216.556V215.618C280.815 210.331 274.669 207.544 270.966 211.191C267.792 214.316 264.392 217.024 260.815 219.29C253.232 224.056 243.585 226.452 231.897 226.452C222.048 226.452 213.584 224.864 206.531 221.686C199.452 218.509 193.659 213.951 189.15 208.013C184.641 202.075 181.366 195.069 179.301 187.022C177.26 178.974 176.228 169.963 176.228 159.988V69.6676C176.228 66.3079 178.847 63.5994 182.097 63.5994H204.516C207.765 63.5994 210.385 66.3079 210.385 69.6676V155.196C210.385 167.072 212.601 176.448 217.01 183.35C221.418 190.251 229.378 193.689 240.839 193.689C248.22 193.689 254.366 192.257 259.303 189.392C264.215 186.527 268.17 182.594 271.142 177.62C274.115 172.646 276.281 166.812 277.591 160.118C278.926 153.451 279.581 146.289 279.581 138.658V69.6676C279.581 66.3079 282.201 63.5994 285.45 63.5994H306.937C310.186 63.5994 312.806 66.3079 312.806 69.6676V216.556C312.806 219.915 310.186 222.624 306.937 222.624Z" fill="#293147"/>
<path d="M374.596 222.624H352.48C349.23 222.624 346.61 219.915 346.61 216.556V6.06825C346.61 2.70857 349.23 0 352.48 0H374.596C377.846 0 380.465 2.70857 380.465 6.06825V216.556C380.465 219.915 377.846 222.624 374.596 222.624Z" fill="#293147"/>
<path d="M425.378 72.819C436.034 64.1203 451.022 59.771 470.292 59.771C485.053 59.771 497.371 62.3754 507.195 67.5582C515.306 71.8554 522.258 77.4028 528.001 84.2003C530.042 86.6224 529.866 90.3206 527.598 92.5604L513.643 106.39C511.301 108.708 507.573 108.63 505.356 106.181C502.081 102.561 498.026 99.436 493.189 96.8316C486.312 93.1334 478.075 91.2582 468.428 91.2582C460.846 91.2582 454.75 92.6385 450.115 95.3992C445.48 98.1598 443.188 101.962 443.188 106.859C443.188 112.797 446.21 116.938 452.256 119.255C458.301 121.599 467.37 124.126 479.486 126.886C486.061 128.371 492.459 130.116 498.706 132.121C504.953 134.127 510.545 136.939 515.482 140.559C520.394 144.154 524.349 148.763 527.321 154.389C530.294 160.014 531.78 167.176 531.78 175.849C531.78 184.548 530.243 192.075 527.17 198.429C524.097 204.784 519.84 210.045 514.399 214.16C508.958 218.301 502.409 221.374 494.701 223.379C487.018 225.385 478.554 226.4 469.335 226.4C454.573 226.4 441.147 223.848 429.031 218.77C418.577 214.368 410.189 207.675 403.866 198.69C402.154 196.242 402.481 192.856 404.597 190.772L418.854 176.63C421.298 174.208 425.253 174.365 427.368 177.073C431.676 182.621 437.092 186.84 443.641 189.678C452.155 193.377 461.425 195.252 471.476 195.252C479.259 195.252 485.632 193.924 490.544 191.267C495.456 188.611 497.925 184.209 497.925 178.063C497.925 171.916 495.154 167.619 489.612 165.171C484.071 162.723 475.456 160.249 463.768 157.696C457.823 156.42 451.626 154.779 445.152 152.774C438.679 150.769 432.784 147.956 427.469 144.336C422.129 140.742 417.771 136.002 414.396 130.194C411.02 124.36 409.307 117.094 409.307 108.421C409.383 93.3938 414.698 81.5177 425.378 72.819Z" fill="#293147"/>
<path d="M570.698 69.9542C581.454 63.1567 595.863 59.771 613.924 59.771C635.662 59.771 651.809 64.9537 662.363 75.3453C672.918 85.7368 678.208 101.207 678.208 121.782V216.53C678.208 219.889 675.588 222.598 672.338 222.598H650.852C647.602 222.598 644.982 219.889 644.982 216.53C644.982 211.347 639.138 208.586 635.335 211.946C632.463 214.472 629.264 216.764 625.763 218.77C617.652 223.431 607.777 225.775 596.089 225.775C588.104 225.775 580.875 224.551 574.401 222.129C567.927 219.707 562.511 216.295 558.103 211.946C553.695 207.597 550.269 202.414 547.801 196.372C545.332 190.329 544.098 183.714 544.098 176.5C544.098 161.863 548.758 150.326 558.103 141.836C567.423 133.345 579.162 128.475 593.318 127.199L636.065 122.745C642.01 122.12 644.982 119.672 644.982 115.427V111.937C644.982 105.791 642.463 100.764 637.451 96.8316C632.438 92.8989 624.78 90.9456 614.528 90.9456C605.107 90.9456 596.795 92.7948 589.615 96.5191C584.351 99.2537 580.396 103.369 577.776 108.916C576.24 112.171 572.335 113.396 569.363 111.468L552.813 100.66C550.37 99.0714 549.362 95.8159 550.571 93.1073C554.728 83.4971 561.453 75.788 570.698 69.9542ZM600.674 154.884C593.092 155.951 587.5 158.321 583.897 162.046C580.32 165.744 578.507 170.25 578.507 175.563C578.507 181.709 580.598 186.631 584.804 190.356C589.011 194.054 595.308 195.929 603.722 195.929C610.07 195.929 615.813 194.861 620.951 192.752C626.065 190.642 630.372 187.829 633.874 184.313C637.35 180.823 640.07 176.787 642.035 172.229C643.975 167.671 644.957 163.061 644.957 158.4V156.056C644.957 152.409 641.859 149.597 638.358 150.039L600.674 154.884Z" fill="#293147"/>
<path d="M757.707 67.4278C764.986 62.3492 774.055 59.7969 784.937 59.7969C788.388 59.7969 791.788 60.0834 795.138 60.6563C797.96 61.1512 800 63.7035 800 66.6464V90.9455C800 94.6958 796.751 97.5086 793.174 96.9096C792.745 96.8314 792.292 96.7533 791.839 96.7012C789.068 96.2845 786.146 96.0761 783.073 96.0761C767.682 96.0761 756.825 100.79 750.477 110.218C744.129 119.646 740.93 132.85 740.93 149.805V216.582C740.93 219.941 738.31 222.65 735.061 222.65H713.574C710.325 222.65 707.705 219.941 707.705 216.582V69.6936C707.705 66.3339 710.325 63.6253 713.574 63.6253H733.827C737.076 63.6253 739.696 66.3339 739.696 69.6936V70.1103C739.696 75.6056 746.119 78.1579 749.847 74.2252C752.266 71.6469 754.885 69.3811 757.707 67.4278Z" fill="#293147"/>
</g>
<defs>
<clipPath id="clip0_656_762">
<rect width="800" height="226.452" fill="white"/>
</clipPath>
</defs>
</svg>
