<svg width="801" height="827" viewBox="0 0 801 827" fill="none" xmlns="http://www.w3.org/2000/svg">
<circle cx="399.377" cy="250" r="250" fill="#293147"/>
<path fill-rule="evenodd" clip-rule="evenodd" d="M415.951 125.365C361.562 115.774 309.696 152.091 300.106 206.481C290.516 260.87 326.832 312.736 381.222 322.326L415.951 125.365Z" fill="white"/>
<path fill-rule="evenodd" clip-rule="evenodd" d="M435.647 128.838C490.037 138.428 526.353 190.294 516.763 244.683C507.173 299.073 455.307 335.39 400.918 325.799L435.647 128.838Z" fill="white"/>
<path fill-rule="evenodd" clip-rule="evenodd" d="M300.106 206.481C354.496 216.071 390.812 267.937 381.222 322.326C371.632 376.716 319.766 413.033 265.377 403.442L300.106 206.481Z" fill="white"/>
<rect x="249" y="240" width="150" height="20" fill="#293147"/>
<path d="M110.33 605.73C119.474 609.532 127.308 614.845 133.882 621.617C140.432 628.414 145.57 636.462 149.273 645.785C152.976 655.109 154.815 665.292 154.815 676.309C154.815 687.325 152.976 697.509 149.273 706.832C145.57 716.156 140.457 724.23 133.882 731.001C127.308 737.799 119.474 743.086 110.355 746.914C101.237 750.743 91.337 752.644 80.6818 752.644H41.3102C38.0608 752.644 35.441 755.352 35.441 758.712V816.556C35.441 819.915 32.8213 822.624 29.5718 822.624H6.24616C2.99668 822.624 0.376953 819.915 0.376953 816.556V606.068C0.376953 602.709 2.99668 600 6.24616 600H80.6566C91.3118 600 101.211 601.901 110.33 605.73ZM108.793 647.556C101.514 640.03 92.1431 636.279 80.6566 636.279H41.3102C38.0608 636.279 35.441 638.988 35.441 642.348V710.374C35.441 713.734 38.0608 716.443 41.3102 716.443H80.6566C92.1431 716.443 101.514 712.692 108.793 705.166C116.073 697.639 119.701 688.055 119.701 676.387C119.701 664.719 116.073 655.083 108.793 647.556Z" fill="#293147"/>
<path d="M307.314 822.624H287.061C283.812 822.624 281.192 819.915 281.192 816.556V815.618C281.192 810.331 275.046 807.544 271.343 811.191C268.169 814.316 264.768 817.024 261.192 819.29C253.609 824.056 243.962 826.452 232.274 826.452C222.425 826.452 213.961 824.864 206.908 821.686C199.829 818.509 194.036 813.951 189.527 808.013C185.018 802.075 181.743 795.069 179.678 787.022C177.637 778.974 176.604 769.963 176.604 759.988V669.668C176.604 666.308 179.224 663.599 182.474 663.599H204.893C208.142 663.599 210.762 666.308 210.762 669.668V755.196C210.762 767.072 212.978 776.448 217.387 783.35C221.795 790.251 229.755 793.689 241.216 793.689C248.597 793.689 254.743 792.257 259.68 789.392C264.592 786.527 268.547 782.594 271.519 777.62C274.492 772.645 276.658 766.812 277.968 760.118C279.303 753.451 279.958 746.289 279.958 738.658V669.668C279.958 666.308 282.578 663.599 285.827 663.599H307.314C310.563 663.599 313.183 666.308 313.183 669.668V816.556C313.183 819.915 310.563 822.624 307.314 822.624Z" fill="#293147"/>
<path d="M374.973 822.624H352.856C349.607 822.624 346.987 819.915 346.987 816.556V606.068C346.987 602.709 349.607 600 352.856 600H374.973C378.223 600 380.842 602.709 380.842 606.068V816.556C380.842 819.915 378.223 822.624 374.973 822.624Z" fill="#293147"/>
<path d="M425.755 672.819C436.411 664.12 451.399 659.771 470.669 659.771C485.43 659.771 497.748 662.375 507.572 667.558C515.683 671.855 522.635 677.403 528.378 684.2C530.419 686.622 530.242 690.321 527.975 692.56L514.02 706.39C511.678 708.708 507.95 708.63 505.733 706.181C502.458 702.561 498.403 699.436 493.566 696.832C486.689 693.133 478.452 691.258 468.805 691.258C461.223 691.258 455.127 692.639 450.492 695.399C445.857 698.16 443.565 701.962 443.565 706.859C443.565 712.797 446.587 716.938 452.633 719.255C458.678 721.599 467.747 724.126 479.863 726.886C486.438 728.371 492.836 730.116 499.083 732.121C505.33 734.127 510.922 736.939 515.859 740.559C520.771 744.154 524.726 748.763 527.698 754.389C530.671 760.014 532.157 767.176 532.157 775.849C532.157 784.548 530.62 792.075 527.547 798.429C524.474 804.784 520.217 810.045 514.776 814.16C509.335 818.301 502.786 821.374 495.078 823.379C487.395 825.385 478.931 826.4 469.712 826.4C454.95 826.4 441.524 823.848 429.408 818.77C418.954 814.368 410.566 807.675 404.243 798.69C402.53 796.242 402.858 792.856 404.974 790.772L419.231 776.63C421.675 774.208 425.629 774.365 427.745 777.073C432.053 782.621 437.469 786.84 444.018 789.678C452.532 793.377 461.802 795.252 471.853 795.252C479.636 795.252 486.009 793.924 490.921 791.267C495.833 788.611 498.302 784.209 498.302 778.063C498.302 771.916 495.531 767.619 489.989 765.171C484.448 762.723 475.833 760.249 464.145 757.696C458.2 756.42 452.003 754.779 445.529 752.774C439.056 750.769 433.161 747.956 427.846 744.336C422.506 740.742 418.148 736.002 414.773 730.194C411.397 724.36 409.684 717.094 409.684 708.421C409.76 693.394 415.075 681.518 425.755 672.819Z" fill="#293147"/>
<path d="M571.075 669.954C581.831 663.157 596.239 659.771 614.3 659.771C636.039 659.771 652.186 664.954 662.74 675.345C673.295 685.737 678.585 701.207 678.585 721.782V816.53C678.585 819.889 675.965 822.598 672.715 822.598H651.229C647.979 822.598 645.359 819.889 645.359 816.53C645.359 811.347 639.515 808.586 635.712 811.946C632.84 814.472 629.641 816.764 626.14 818.77C618.029 823.431 608.154 825.775 596.466 825.775C588.481 825.775 581.252 824.551 574.778 822.129C568.304 819.707 562.888 816.295 558.48 811.946C554.072 807.597 550.646 802.414 548.177 796.372C545.709 790.329 544.475 783.714 544.475 776.5C544.475 761.863 549.135 750.326 558.48 741.836C567.8 733.345 579.539 728.475 593.695 727.199L636.442 722.745C642.387 722.12 645.359 719.672 645.359 715.427V711.937C645.359 705.791 642.84 700.764 637.828 696.832C632.815 692.899 625.157 690.946 614.905 690.946C605.484 690.946 597.172 692.795 589.992 696.519C584.728 699.254 580.773 703.369 578.153 708.916C576.617 712.171 572.712 713.396 569.74 711.468L553.19 700.66C550.747 699.071 549.739 695.816 550.948 693.107C555.105 683.497 561.83 675.788 571.075 669.954ZM601.051 754.884C593.469 755.951 587.876 758.321 584.274 762.046C580.697 765.744 578.884 770.25 578.884 775.563C578.884 781.709 580.975 786.631 585.181 790.356C589.388 794.054 595.685 795.929 604.099 795.929C610.446 795.929 616.19 794.861 621.328 792.752C626.442 790.642 630.749 787.829 634.251 784.313C637.727 780.823 640.447 776.787 642.412 772.229C644.352 767.671 645.334 763.061 645.334 758.4V756.056C645.334 752.409 642.236 749.597 638.734 750.039L601.051 754.884Z" fill="#293147"/>
<path d="M758.083 667.428C765.363 662.349 774.432 659.797 785.314 659.797C788.764 659.797 792.165 660.083 795.515 660.656C798.337 661.151 800.377 663.704 800.377 666.647V690.946C800.377 694.696 797.128 697.509 793.551 696.91C793.122 696.832 792.669 696.753 792.216 696.701C789.445 696.285 786.523 696.076 783.449 696.076C768.059 696.076 757.202 700.79 750.854 710.218C744.506 719.646 741.307 732.85 741.307 749.805V816.582C741.307 819.941 738.687 822.65 735.438 822.65H713.951C710.702 822.65 708.082 819.941 708.082 816.582V669.694C708.082 666.334 710.702 663.625 713.951 663.625H734.204C737.453 663.625 740.073 666.334 740.073 669.694V670.11C740.073 675.606 746.496 678.158 750.224 674.225C752.643 671.647 755.262 669.381 758.083 667.428Z" fill="#293147"/>
</svg>
