<svg width="800" height="227" viewBox="0 0 800 227" fill="none" xmlns="http://www.w3.org/2000/svg">
<g clip-path="url(#clip0_819_18)">
<path d="M109.953 5.72968C119.097 9.5321 126.931 14.8451 133.505 21.6165C140.055 28.414 145.194 36.4616 148.896 45.7853C152.599 55.1091 154.438 65.2923 154.438 76.3089C154.438 87.3255 152.599 97.5087 148.896 106.832C145.194 116.156 140.08 124.23 133.505 131.001C126.931 137.799 119.097 143.086 109.978 146.914C100.86 150.743 90.96 152.644 80.3048 152.644H40.9333C37.6838 152.644 35.0641 155.352 35.0641 158.712V216.556C35.0641 219.915 32.4443 222.624 29.1949 222.624H5.8692C2.61973 222.624 0 219.915 0 216.556V6.06825C0 2.70857 2.61973 0 5.8692 0H80.2796C90.9349 0 100.834 1.90121 109.953 5.72968ZM108.417 47.5563C101.137 40.0296 91.7661 36.2793 80.2796 36.2793H40.9333C37.6838 36.2793 35.0641 38.9878 35.0641 42.3475V110.374C35.0641 113.734 37.6838 116.443 40.9333 116.443H80.2796C91.7661 116.443 101.137 112.692 108.417 105.166C115.696 97.6389 119.324 88.0547 119.324 76.387C119.324 64.7193 115.696 55.083 108.417 47.5563Z" fill="white"/>
<path d="M306.936 222.624H286.683C283.434 222.624 280.814 219.915 280.814 216.556V215.618C280.814 210.331 274.668 207.544 270.965 211.191C267.791 214.316 264.391 217.024 260.814 219.29C253.232 224.056 243.584 226.452 231.896 226.452C222.047 226.452 213.583 224.864 206.53 221.686C199.451 218.509 193.658 213.951 189.149 208.013C184.64 202.075 181.365 195.069 179.3 187.022C177.259 178.974 176.227 169.963 176.227 159.988V69.6676C176.227 66.3079 178.846 63.5994 182.096 63.5994H204.515C207.764 63.5994 210.384 66.3079 210.384 69.6676V155.196C210.384 167.072 212.601 176.448 217.009 183.35C221.417 190.251 229.377 193.689 240.838 193.689C248.219 193.689 254.365 192.257 259.302 189.392C264.214 186.527 268.169 182.594 271.141 177.62C274.114 172.645 276.28 166.812 277.59 160.118C278.925 153.451 279.58 146.289 279.58 138.658V69.6676C279.58 66.3079 282.2 63.5994 285.449 63.5994H306.936C310.185 63.5994 312.805 66.3079 312.805 69.6676V216.556C312.805 219.915 310.185 222.624 306.936 222.624Z" fill="white"/>
<path d="M374.597 222.624H352.481C349.231 222.624 346.611 219.915 346.611 216.556V6.06825C346.611 2.70857 349.231 0 352.481 0H374.597C377.847 0 380.466 2.70857 380.466 6.06825V216.556C380.466 219.915 377.847 222.624 374.597 222.624Z" fill="white"/>
<path d="M425.379 72.819C436.035 64.1203 451.023 59.771 470.293 59.771C485.054 59.771 497.372 62.3754 507.196 67.5582C515.307 71.8554 522.259 77.4028 528.002 84.2003C530.043 86.6224 529.866 90.3206 527.599 92.5604L513.644 106.39C511.302 108.708 507.574 108.63 505.357 106.181C502.082 102.561 498.027 99.436 493.19 96.8316C486.313 93.1334 478.076 91.2582 468.429 91.2582C460.847 91.2582 454.751 92.6385 450.116 95.3992C445.481 98.1598 443.189 101.962 443.189 106.859C443.189 112.797 446.211 116.938 452.257 119.255C458.302 121.599 467.371 124.126 479.487 126.886C486.062 128.371 492.46 130.116 498.707 132.121C504.954 134.127 510.546 136.939 515.483 140.559C520.395 144.154 524.35 148.763 527.322 154.389C530.295 160.014 531.781 167.176 531.781 175.849C531.781 184.548 530.244 192.075 527.171 198.429C524.098 204.784 519.841 210.045 514.4 214.16C508.959 218.301 502.41 221.374 494.702 223.379C487.019 225.385 478.555 226.4 469.336 226.4C454.574 226.4 441.148 223.848 429.032 218.77C418.578 214.368 410.19 207.675 403.867 198.69C402.155 196.242 402.482 192.856 404.598 190.772L418.855 176.63C421.299 174.208 425.254 174.365 427.369 177.073C431.677 182.621 437.093 186.84 443.642 189.678C452.156 193.377 461.426 195.252 471.477 195.252C479.26 195.252 485.633 193.924 490.545 191.267C495.457 188.611 497.926 184.209 497.926 178.063C497.926 171.916 495.155 167.619 489.613 165.171C484.072 162.723 475.457 160.249 463.769 157.696C457.824 156.42 451.627 154.779 445.153 152.774C438.68 150.769 432.785 147.956 427.47 144.336C422.13 140.742 417.772 136.002 414.397 130.194C411.021 124.36 409.308 117.094 409.308 108.421C409.384 93.3938 414.699 81.5177 425.379 72.819Z" fill="white"/>
<path d="M570.698 69.9542C581.454 63.1567 595.863 59.771 613.924 59.771C635.662 59.771 651.809 64.9537 662.363 75.3453C672.918 85.7368 678.208 101.207 678.208 121.782V216.53C678.208 219.889 675.588 222.598 672.338 222.598H650.852C647.602 222.598 644.982 219.889 644.982 216.53C644.982 211.347 639.138 208.586 635.335 211.946C632.463 214.472 629.264 216.764 625.763 218.77C617.652 223.431 607.777 225.775 596.089 225.775C588.104 225.775 580.875 224.551 574.401 222.129C567.927 219.707 562.511 216.295 558.103 211.946C553.695 207.597 550.269 202.414 547.801 196.372C545.332 190.329 544.098 183.714 544.098 176.5C544.098 161.863 548.758 150.326 558.103 141.836C567.423 133.345 579.162 128.475 593.318 127.199L636.065 122.745C642.01 122.12 644.982 119.672 644.982 115.427V111.937C644.982 105.791 642.463 100.764 637.451 96.8316C632.438 92.8989 624.78 90.9456 614.528 90.9456C605.107 90.9456 596.795 92.7948 589.615 96.5191C584.351 99.2537 580.396 103.369 577.776 108.916C576.24 112.171 572.335 113.396 569.363 111.468L552.813 100.66C550.37 99.0714 549.362 95.8159 550.571 93.1073C554.728 83.4971 561.453 75.788 570.698 69.9542ZM600.674 154.884C593.092 155.951 587.5 158.321 583.897 162.046C580.32 165.744 578.507 170.25 578.507 175.563C578.507 181.709 580.598 186.631 584.804 190.356C589.011 194.054 595.308 195.929 603.722 195.929C610.07 195.929 615.813 194.861 620.951 192.752C626.065 190.642 630.372 187.829 633.874 184.313C637.35 180.823 640.07 176.787 642.035 172.229C643.975 167.671 644.957 163.061 644.957 158.4V156.056C644.957 152.409 641.859 149.597 638.358 150.039L600.674 154.884Z" fill="white"/>
<path d="M757.707 67.4278C764.986 62.3492 774.055 59.7969 784.937 59.7969C788.388 59.7969 791.788 60.0834 795.138 60.6563C797.96 61.1512 800 63.7035 800 66.6464V90.9455C800 94.6958 796.751 97.5086 793.174 96.9096C792.745 96.8314 792.292 96.7533 791.839 96.7012C789.068 96.2845 786.146 96.0761 783.073 96.0761C767.682 96.0761 756.825 100.79 750.477 110.218C744.129 119.646 740.93 132.85 740.93 149.805V216.582C740.93 219.941 738.31 222.65 735.061 222.65H713.574C710.325 222.65 707.705 219.941 707.705 216.582V69.6936C707.705 66.3339 710.325 63.6253 713.574 63.6253H733.827C737.076 63.6253 739.696 66.3339 739.696 69.6936V70.1103C739.696 75.6056 746.119 78.1579 749.847 74.2252C752.266 71.6469 754.885 69.3811 757.707 67.4278Z" fill="white"/>
</g>
<defs>
<clipPath id="clip0_819_18">
<rect width="800" height="226.452" fill="white"/>
</clipPath>
</defs>
</svg>
