<svg width="1400" height="500" viewBox="0 0 1400 500" fill="none" xmlns="http://www.w3.org/2000/svg">
<circle cx="250" cy="250" r="250" fill="#293147"/>
<path fill-rule="evenodd" clip-rule="evenodd" d="M277.239 126.882C223.892 112.588 169.059 144.246 154.765 197.593C140.47 250.939 172.129 305.773 225.475 320.067L277.239 126.882Z" fill="white"/>
<path fill-rule="evenodd" clip-rule="evenodd" d="M301.388 133.352C354.734 147.647 386.393 202.48 372.099 255.827C357.804 309.173 302.971 340.832 249.624 326.538L301.388 133.352Z" fill="white"/>
<path fill-rule="evenodd" clip-rule="evenodd" d="M154.765 197.593C208.111 211.887 239.77 266.72 225.476 320.067C211.181 373.414 156.348 405.072 103.001 390.778L154.765 197.593Z" fill="white"/>
<path d="M709.953 142.73C719.097 146.532 726.931 151.845 733.505 158.617C740.055 165.414 745.194 173.462 748.896 182.785C752.599 192.109 754.438 202.292 754.438 213.309C754.438 224.325 752.599 234.509 748.896 243.832C745.194 253.156 740.08 261.23 733.505 268.001C726.931 274.799 719.097 280.086 709.978 283.914C700.86 287.743 690.96 289.644 680.305 289.644H640.933C637.684 289.644 635.064 292.352 635.064 295.712V353.556C635.064 356.915 632.444 359.624 629.195 359.624H605.869C602.62 359.624 600 356.915 600 353.556V143.068C600 139.709 602.62 137 605.869 137H680.28C690.935 137 700.834 138.901 709.953 142.73ZM708.417 184.556C701.137 177.03 691.766 173.279 680.28 173.279H640.933C637.684 173.279 635.064 175.988 635.064 179.348V247.374C635.064 250.734 637.684 253.443 640.933 253.443H680.28C691.766 253.443 701.137 249.692 708.417 242.166C715.696 234.639 719.324 225.055 719.324 213.387C719.324 201.719 715.696 192.083 708.417 184.556Z" fill="#293147"/>
<path d="M906.936 359.624H886.683C883.434 359.624 880.814 356.915 880.814 353.556V352.618C880.814 347.331 874.668 344.544 870.965 348.191C867.791 351.316 864.391 354.024 860.814 356.29C853.232 361.056 843.584 363.452 831.896 363.452C822.047 363.452 813.583 361.864 806.53 358.686C799.451 355.509 793.658 350.951 789.149 345.013C784.64 339.075 781.365 332.069 779.3 324.022C777.259 315.974 776.227 306.963 776.227 296.988V206.668C776.227 203.308 778.846 200.599 782.096 200.599H804.515C807.764 200.599 810.384 203.308 810.384 206.668V292.196C810.384 304.072 812.601 313.448 817.009 320.35C821.417 327.251 829.377 330.689 840.838 330.689C848.219 330.689 854.365 329.257 859.302 326.392C864.214 323.527 868.169 319.594 871.141 314.62C874.114 309.646 876.28 303.812 877.59 297.118C878.925 290.451 879.58 283.289 879.58 275.658V206.668C879.58 203.308 882.2 200.599 885.449 200.599H906.936C910.185 200.599 912.805 203.308 912.805 206.668V353.556C912.805 356.915 910.185 359.624 906.936 359.624Z" fill="#293147"/>
<path d="M974.597 359.624H952.481C949.231 359.624 946.611 356.915 946.611 353.556V143.068C946.611 139.709 949.231 137 952.481 137H974.597C977.847 137 980.466 139.709 980.466 143.068V353.556C980.466 356.915 977.847 359.624 974.597 359.624Z" fill="#293147"/>
<path d="M1025.38 209.819C1036.03 201.12 1051.02 196.771 1070.29 196.771C1085.05 196.771 1097.37 199.375 1107.2 204.558C1115.31 208.855 1122.26 214.403 1128 221.2C1130.04 223.622 1129.87 227.321 1127.6 229.56L1113.64 243.39C1111.3 245.708 1107.57 245.629 1105.36 243.181C1102.08 239.561 1098.03 236.436 1093.19 233.832C1086.31 230.133 1078.08 228.258 1068.43 228.258C1060.85 228.258 1054.75 229.638 1050.12 232.399C1045.48 235.16 1043.19 238.962 1043.19 243.858C1043.19 249.797 1046.21 253.938 1052.26 256.255C1058.3 258.599 1067.37 261.126 1079.49 263.886C1086.06 265.371 1092.46 267.116 1098.71 269.121C1104.95 271.127 1110.55 273.939 1115.48 277.559C1120.4 281.153 1124.35 285.763 1127.32 291.389C1130.29 297.014 1131.78 304.176 1131.78 312.849C1131.78 321.548 1130.24 329.074 1127.17 335.429C1124.1 341.784 1119.84 347.045 1114.4 351.16C1108.96 355.301 1102.41 358.374 1094.7 360.379C1087.02 362.385 1078.56 363.4 1069.34 363.4C1054.57 363.4 1041.15 360.848 1029.03 355.77C1018.58 351.368 1010.19 344.675 1003.87 335.69C1002.15 333.241 1002.48 329.856 1004.6 327.772L1018.86 313.63C1021.3 311.208 1025.25 311.365 1027.37 314.073C1031.68 319.62 1037.09 323.84 1043.64 326.678C1052.16 330.377 1061.43 332.252 1071.48 332.252C1079.26 332.252 1085.63 330.924 1090.55 328.267C1095.46 325.611 1097.93 321.209 1097.93 315.063C1097.93 308.916 1095.16 304.619 1089.61 302.171C1084.07 299.723 1075.46 297.249 1063.77 294.696C1057.82 293.42 1051.63 291.779 1045.15 289.774C1038.68 287.769 1032.79 284.956 1027.47 281.336C1022.13 277.742 1017.77 273.002 1014.4 267.194C1011.02 261.36 1009.31 254.094 1009.31 245.421C1009.38 230.394 1014.7 218.518 1025.38 209.819Z" fill="#293147"/>
<path d="M1170.7 206.954C1181.45 200.157 1195.86 196.771 1213.92 196.771C1235.66 196.771 1251.81 201.954 1262.36 212.345C1272.92 222.737 1278.21 238.207 1278.21 258.782V353.53C1278.21 356.889 1275.59 359.598 1272.34 359.598H1250.85C1247.6 359.598 1244.98 356.889 1244.98 353.53C1244.98 348.347 1239.14 345.586 1235.33 348.946C1232.46 351.472 1229.26 353.764 1225.76 355.769C1217.65 360.431 1207.78 362.775 1196.09 362.775C1188.1 362.775 1180.87 361.551 1174.4 359.129C1167.93 356.707 1162.51 353.295 1158.1 348.946C1153.69 344.597 1150.27 339.414 1147.8 333.372C1145.33 327.329 1144.1 320.714 1144.1 313.5C1144.1 298.863 1148.76 287.326 1158.1 278.836C1167.42 270.345 1179.16 265.475 1193.32 264.199L1236.07 259.745C1242.01 259.12 1244.98 256.672 1244.98 252.427V248.937C1244.98 242.791 1242.46 237.764 1237.45 233.832C1232.44 229.899 1224.78 227.946 1214.53 227.946C1205.11 227.946 1196.79 229.795 1189.62 233.519C1184.35 236.254 1180.4 240.369 1177.78 245.916C1176.24 249.171 1172.34 250.395 1169.36 248.468L1152.81 237.66C1150.37 236.071 1149.36 232.816 1150.57 230.107C1154.73 220.497 1161.45 212.788 1170.7 206.954ZM1200.67 291.884C1193.09 292.951 1187.5 295.321 1183.9 299.046C1180.32 302.744 1178.51 307.25 1178.51 312.562C1178.51 318.709 1180.6 323.631 1184.8 327.355C1189.01 331.054 1195.31 332.929 1203.72 332.929C1210.07 332.929 1215.81 331.861 1220.95 329.752C1226.06 327.642 1230.37 324.829 1233.87 321.313C1237.35 317.823 1240.07 313.787 1242.04 309.229C1243.97 304.671 1244.96 300.061 1244.96 295.4V293.056C1244.96 289.409 1241.86 286.597 1238.36 287.039L1200.67 291.884Z" fill="#293147"/>
<path d="M1357.71 204.428C1364.99 199.349 1374.05 196.797 1384.94 196.797C1388.39 196.797 1391.79 197.083 1395.14 197.656C1397.96 198.151 1400 200.704 1400 203.647V227.946C1400 231.696 1396.75 234.509 1393.17 233.91C1392.75 233.832 1392.29 233.753 1391.84 233.701C1389.07 233.285 1386.15 233.076 1383.07 233.076C1367.68 233.076 1356.82 237.79 1350.48 247.218C1344.13 256.646 1340.93 269.85 1340.93 286.805V353.582C1340.93 356.941 1338.31 359.65 1335.06 359.65H1313.57C1310.32 359.65 1307.71 356.941 1307.71 353.582V206.694C1307.71 203.334 1310.32 200.625 1313.57 200.625H1333.83C1337.08 200.625 1339.7 203.334 1339.7 206.694V207.11C1339.7 212.606 1346.12 215.158 1349.85 211.225C1352.27 208.647 1354.89 206.381 1357.71 204.428Z" fill="#293147"/>
</svg>
