<svg width="1027" height="197" viewBox="0 0 1027 197" fill="none" xmlns="http://www.w3.org/2000/svg">
<path d="M913.673 121.63L942.584 121.621L942.607 121.663L976.071 183.917L977.486 186.549H980.475H1010H1018.45L1014.38 179.145L979.14 114.874L979.001 114.622C979.093 114.576 979.184 114.531 979.275 114.485C988.927 109.665 996.314 102.815 1001.21 93.9184C1006.09 85.0882 1008.46 74.9913 1008.46 63.7767C1008.46 52.5213 1006.13 42.3826 1001.31 33.5052C996.437 24.455 989.072 17.4328 979.426 12.4324C969.731 7.37729 957.833 5 943.987 5H882.754H877.754V10V32.1976V37.1976H882.754H908.673H941.219C949.338 37.1976 955.411 38.4264 959.742 40.543L959.77 40.557L959.799 40.5706C964.226 42.6647 967.251 45.5632 969.158 49.2411L969.168 49.2617L969.179 49.2821C971.242 53.1731 972.371 57.9487 972.371 63.7767C972.371 69.5644 971.264 74.2121 969.276 77.9117C967.398 81.4063 964.401 84.186 959.962 86.1927L959.953 86.1968L959.944 86.2009C955.565 88.2012 949.524 89.3507 941.554 89.3507H908.673H882.754H877.754V94.3507V181.549V186.549H882.754H908.673H913.673V181.549V121.63Z" fill="#293147" stroke="#293147" stroke-width="10"/>
<path d="M710.114 186.549H713.673L714.839 183.187L759.433 54.504L803.949 183.184L805.113 186.549H808.674H836.187H843.303L840.891 179.854L779.071 8.30489L777.88 5H774.367H744.422H740.909L739.718 8.30489L677.898 179.854L675.485 186.549H682.602H710.114Z" fill="#293147" stroke="#293147" stroke-width="10"/>
<path d="M603.571 57.9713L604.072 62.4106H608.54H633.536H638.659L638.535 57.2893C638.288 47.1214 635.304 37.9778 629.537 30.0235C623.827 22.0941 616.064 15.96 606.423 11.5669C596.768 7.1412 585.775 5 573.561 5C561.441 5 550.384 7.17562 540.483 11.6349C530.599 16.0305 522.608 22.2802 516.675 30.4267C510.631 38.7259 507.664 48.4052 507.664 59.2535C507.664 72.4465 512.14 83.4563 521.298 91.7705L521.305 91.7763L521.311 91.7821C530.099 99.7048 541.776 105.509 556.059 109.394C556.059 109.394 556.06 109.395 556.06 109.395L576.358 114.923L576.378 114.928L576.399 114.934C582.349 116.5 587.608 118.292 592.197 120.294L592.207 120.298L592.216 120.302C596.619 122.2 599.843 124.49 602.103 127.056L602.119 127.074L602.135 127.092C604.083 129.263 605.217 132.165 605.217 136.233C605.217 140.746 603.914 144.525 601.351 147.785C598.675 151.132 594.901 153.896 589.805 155.973C584.798 157.981 578.937 159.043 572.136 159.043C565.986 159.043 560.437 158.142 555.444 156.401C550.655 154.657 546.842 152.08 543.875 148.709C541.143 145.493 539.467 141.374 539.037 136.08L538.664 131.484H534.054H508.051H502.773L503.058 136.755C503.662 147.906 506.854 157.772 512.771 166.169L512.776 166.176L512.781 166.183C518.681 174.494 526.797 180.818 536.929 185.215C547.09 189.624 558.926 191.743 572.303 191.743C586.244 191.743 598.433 189.483 608.7 184.752C618.913 180.071 626.934 173.562 632.502 165.132C638.118 156.714 640.885 147.11 640.885 136.484C640.885 128.119 639.214 120.633 635.65 114.219C632.301 108.092 627.874 102.919 622.387 98.747C617.104 94.7303 611.366 91.4909 605.186 89.0343C599.244 86.6724 593.416 84.7868 587.701 83.3876L570.96 79.0407L570.937 79.0348L570.914 79.0291C567.739 78.2363 564.407 77.2266 560.916 75.9943C557.607 74.772 554.519 73.2794 551.643 71.5202C549.098 69.8789 547.085 67.8966 545.541 65.5705C544.246 63.543 543.499 61.005 543.499 57.7457C543.499 53.9217 544.575 50.6414 546.716 47.7318C548.954 44.7108 552.181 42.2068 556.638 40.3201L556.659 40.3112L556.68 40.302C561.057 38.4015 566.444 37.3651 572.974 37.3651C582.069 37.3651 589.187 39.3979 594.656 43.1169L594.668 43.1252L594.68 43.1335C599.918 46.6509 602.837 51.4647 603.571 57.9713Z" fill="#293147" stroke="#293147" stroke-width="10"/>
<path d="M352.705 181.758V186.758H357.705H461.505H466.505V181.758V159.449V154.449H461.505H388.634V10V5H383.634H357.705H352.705V10V181.758Z" fill="#293147" stroke="#293147" stroke-width="10"/>
<path d="M285.834 5H280.834V10V122.26C280.834 129.397 279.318 135.541 276.415 140.827L276.406 140.843L276.398 140.858C273.564 146.105 269.471 150.24 263.997 153.303C258.661 156.264 252.132 157.85 244.224 157.85C236.381 157.85 229.88 156.268 224.541 153.307C219.117 150.243 214.977 146.096 212.025 140.813C209.127 135.53 207.614 129.39 207.614 122.26V10V5H202.614H177.104H172.104V10V124.383C172.104 137.344 175.073 149.027 181.139 159.282L181.145 159.293C187.194 169.457 195.7 177.44 206.534 183.225L206.543 183.23L206.553 183.235C217.466 189.001 230.074 191.796 244.224 191.796C258.425 191.796 271.061 189.002 281.977 183.235L281.987 183.23L281.997 183.225C292.831 177.44 301.336 169.457 307.385 159.293L307.392 159.282C313.458 149.027 316.427 137.344 316.427 124.383V10V5H311.427H285.834Z" fill="#293147" stroke="#293147" stroke-width="10"/>
<path d="M40.9191 186.203V126.239H71.1489C85.0381 126.239 96.9793 123.707 106.703 118.326L106.712 118.321C116.338 112.967 123.663 105.634 128.51 96.3303C133.34 87.1084 135.704 76.8067 135.704 65.5358C135.704 54.3278 133.371 44.0864 128.6 34.9222C123.759 25.5639 116.46 18.2195 106.87 12.9127C97.1444 7.53053 85.1738 5 71.2328 5H10H5V10V10.0464V10.0929V10.1393V10.1857V10.2321V10.2784V10.3248V10.3711V10.4175V10.4638V10.5101V10.5564V10.6026V10.6489V10.6951V10.7414V10.7876V10.8338V10.88V10.9261V10.9723V11.0184V11.0646V11.1107V11.1568V11.2029V11.249V11.295V11.3411V11.3871V11.4331V11.4791V11.5251V11.5711V11.617V11.663V11.7089V11.7549V11.8008V11.8467V11.8925V11.9384V11.9842V12.0301V12.0759V12.1217V12.1675V12.2133V12.2591V12.3048V12.3506V12.3963V12.442V12.4877V12.5334V12.5791V12.6247V12.6704V12.716V12.7616V12.8072V12.8528V12.8984V12.944V12.9895V13.0351V13.0806V13.1261V13.1716V13.2171V13.2625V13.308V13.3534V13.3989V13.4443V13.4897V13.5351V13.5805V13.6258V13.6712V13.7165V13.7618V13.8072V13.8525V13.8977V13.943V13.9883V14.0335V14.0787V14.124V14.1692V14.2144V14.2595V14.3047V14.3499V14.395V14.4401V14.4852V14.5303V14.5754V14.6205V14.6656V14.7106V14.7556V14.8007V14.8457V14.8907V14.9356V14.9806V15.0256V15.0705V15.1155V15.1604V15.2053V15.2502V15.2951V15.3399V15.3848V15.4296V15.4744V15.5193V15.5641V15.6089V15.6536V15.6984V15.7432V15.7879V15.8326V15.8773V15.922V15.9667V16.0114V16.0561V16.1007V16.1454V16.19V16.2346V16.2792V16.3238V16.3684V16.4129V16.4575V16.502V16.5465V16.5911V16.6356V16.68V16.7245V16.769V16.8134V16.8579V16.9023V16.9467V16.9911V17.0355V17.0799V17.1243V17.1686V17.213V17.2573V17.3016V17.3459V17.3902V17.4345V17.4787V17.523V17.5672V17.6115V17.6557V17.6999V17.7441V17.7883V17.8325V17.8766V17.9208V17.9649V18.009V18.0531V18.0972V18.1413V18.1854V18.2294V18.2735V18.3175V18.3616V18.4056V18.4496V18.4936V18.5376V18.5815V18.6255V18.6694V18.7134V18.7573V18.8012V18.8451V18.889V18.9328V18.9767V19.0206V19.0644V19.1082V19.152V19.1958V19.2396V19.2834V19.3272V19.3709V19.4147V19.4584V19.5021V19.5458V19.5895V19.6332V19.6769V19.7206V19.7642V19.8079V19.8515V19.8951V19.9387V19.9823V20.0259V20.0695V20.113V20.1566V20.2001V20.2437V20.2872V20.3307V20.3742V20.4176V20.4611V20.5046V20.548V20.5915V20.6349V20.6783V20.7217V20.7651V20.8085V20.8518V20.8952V20.9386V20.9819V21.0252V21.0685V21.1118V21.1551V21.1984V21.2417V21.2849V21.3282V21.3714V21.4146V21.4579V21.5011V21.5443V21.5874V21.6306V21.6738V21.7169V21.7601V21.8032V21.8463V21.8894V21.9325V21.9756V22.0187V22.0617V22.1048V22.1478V22.1909V22.2339V22.2769V22.3199V22.3629V22.4058V22.4488V22.4918V22.5347V22.5777V22.6206V22.6635V22.7064V22.7493V22.7922V22.835V22.8779V22.9207V22.9636V23.0064V23.0492V23.092V23.1348V23.1776V23.2204V23.2632V23.3059V23.3487V23.3914V23.4341V23.4768V23.5196V23.5622V23.6049V23.6476V23.6903V23.7329V23.7756V23.8182V23.8608V23.9034V23.946V23.9886V24.0312V24.0738V24.1163V24.1589V24.2014V24.244V24.2865V24.329V24.3715V24.414V24.4565V24.4989V24.5414V24.5838V24.6263V24.6687V24.7111V24.7535V24.7959V24.8383V24.8807V24.9231V24.9654V25.0078V25.0501V25.0925V25.1348V25.1771V25.2194V25.2617V25.304V25.3462V25.3885V25.4308V25.473V25.5152V25.5575V25.5997V25.6419V25.6841V25.7263V25.7684V25.8106V25.8528V25.8949V25.937V25.9792V26.0213V26.0634V26.1055V26.1476V26.1897V26.2317V26.2738V26.3158V26.3579V26.3999V26.4419V26.4839V26.526V26.5679V26.6099V26.6519V26.6939V26.7358V26.7778V26.8197V26.8617V26.9036V26.9455V26.9874V27.0293V27.0712V27.113V27.1549V27.1968V27.2386V27.2804V27.3223V27.3641V27.4059V27.4477V27.4895V27.5313V27.573V27.6148V27.6566V27.6983V27.7401V27.7818V27.8235V27.8652V27.9069V27.9486V27.9903V28.032V28.0736V28.1153V28.1569V28.1986V28.2402V28.2818V28.3234V28.365V28.4066V28.4482V28.4898V28.5314V28.5729V28.6145V28.656V28.6976V28.7391V28.7806V28.8221V28.8636V28.9051V28.9466V28.9881V29.0295V29.071V29.1124V29.1539V29.1953V29.2367V29.2781V29.3195V29.3609V29.4023V29.4437V29.4851V29.5264V29.5678V29.6091V29.6505V29.6918V29.7331V29.7744V29.8157V29.857V29.8983V29.9396V29.9809V30.0221V30.0634V30.1046V30.1459V30.1871V30.2283V30.2695V30.3108V30.3519V30.3931V30.4343V30.4755V30.5167V30.5578V30.599V30.6401V30.6812V30.7224V30.7635V30.8046V30.8457V30.8868V30.9279V30.9689V31.01V31.0511V31.0921V31.1332V31.1742V31.2152V31.2562V31.2973V31.3383V31.3793V31.4202V31.4612V31.5022V31.5432V31.5841V31.6251V31.666V31.707V31.7479V31.7888V31.8297V31.8706V31.9115V31.9524V31.9933V32.0342V32.075V32.1159V32.1567V32.1976V37.1976H10H35.9191H68.4648C76.5873 37.1976 82.6116 38.5503 86.8853 40.8658L86.895 40.871L86.9047 40.8763C91.3692 43.2696 94.4721 46.4677 96.4358 50.4788C98.5122 54.7201 99.6173 59.7001 99.6173 65.5358C99.6173 71.3701 98.5126 76.3872 96.4263 80.6961C94.4439 84.7904 91.3385 88.0758 86.9159 90.5701C82.6409 92.9266 76.7125 94.2928 68.8003 94.2928H35.9191H10H5V99.2928V186.203V191.203H10H35.9191H40.9191V186.203Z" fill="#293147" stroke="#293147" stroke-width="10"/>
</svg>
