<svg width="405" height="424" viewBox="0 0 405 424" fill="none" xmlns="http://www.w3.org/2000/svg">
<path d="M55.595 311.897C60.2184 313.82 64.1795 316.506 67.5037 319.93C70.8152 323.367 73.4135 327.436 75.2857 332.15C77.158 336.865 78.0878 342.013 78.0878 347.584C78.0878 353.154 77.158 358.303 75.2857 363.017C73.4135 367.731 70.8279 371.814 67.5037 375.237C64.1795 378.674 60.2184 381.348 55.6078 383.283C50.9971 385.219 45.9917 386.18 40.6041 386.18H20.6969C19.0539 386.18 17.7293 387.55 17.7293 389.249V418.496C17.7293 420.195 16.4047 421.564 14.7617 421.564H2.96762C1.3246 421.564 0 420.195 0 418.496V312.068C0 310.37 1.3246 309 2.96762 309H40.5914C45.9789 309 50.9844 309.961 55.595 311.897ZM54.8181 333.046C51.1372 329.24 46.3992 327.344 40.5914 327.344H20.6969C19.0539 327.344 17.7293 328.713 17.7293 330.412V364.808C17.7293 366.507 19.0539 367.876 20.6969 367.876H40.5914C46.3992 367.876 51.1372 365.98 54.8181 362.174C58.499 358.369 60.333 353.523 60.333 347.623C60.333 341.724 58.499 336.851 54.8181 333.046Z" fill="#293147"/>
<path d="M155.194 421.564H144.954C143.311 421.564 141.987 420.195 141.987 418.496V418.022C141.987 415.349 138.879 413.94 137.007 415.783C135.402 417.364 133.682 418.733 131.874 419.879C128.04 422.289 123.162 423.5 117.252 423.5C112.272 423.5 107.993 422.697 104.427 421.09C100.848 419.484 97.9182 417.179 95.6383 414.177C93.3585 411.174 91.7027 407.632 90.6584 403.563C89.6267 399.494 89.1045 394.938 89.1045 389.894V344.226C89.1045 342.527 90.4291 341.157 92.0721 341.157H103.408C105.051 341.157 106.375 342.527 106.375 344.226V387.471C106.375 393.476 107.496 398.217 109.725 401.706C111.954 405.196 115.979 406.934 121.774 406.934C125.506 406.934 128.613 406.21 131.11 404.761C133.593 403.313 135.593 401.324 137.096 398.809C138.599 396.294 139.694 393.344 140.356 389.96C141.031 386.589 141.363 382.967 141.363 379.109V344.226C141.363 342.527 142.687 341.157 144.33 341.157H155.194C156.837 341.157 158.162 342.527 158.162 344.226V418.496C158.162 420.195 156.837 421.564 155.194 421.564Z" fill="#293147"/>
<path d="M189.405 421.564H178.222C176.579 421.564 175.255 420.195 175.255 418.496V312.068C175.255 310.37 176.579 309 178.222 309H189.405C191.048 309 192.373 310.37 192.373 312.068V418.496C192.373 420.195 191.048 421.564 189.405 421.564Z" fill="#293147"/>
<path d="M215.083 345.819C220.47 341.421 228.048 339.222 237.792 339.222C245.255 339.222 251.484 340.539 256.451 343.159C260.552 345.332 264.067 348.137 266.971 351.574C268.003 352.798 267.914 354.668 266.767 355.801L259.711 362.793C258.527 363.965 256.642 363.926 255.521 362.688C253.865 360.858 251.815 359.277 249.369 357.96C245.892 356.091 241.727 355.142 236.849 355.142C233.016 355.142 229.933 355.84 227.59 357.236C225.246 358.632 224.087 360.555 224.087 363.03C224.087 366.033 225.616 368.127 228.672 369.299C231.729 370.484 236.314 371.761 242.441 373.157C245.765 373.907 249 374.79 252.159 375.804C255.317 376.818 258.145 378.24 260.641 380.07C263.125 381.888 265.124 384.218 266.627 387.063C268.13 389.907 268.882 393.529 268.882 397.914C268.882 402.312 268.105 406.118 266.551 409.331C264.997 412.544 262.845 415.204 260.094 417.285C257.342 419.378 254.031 420.932 250.134 421.946C246.249 422.96 241.969 423.474 237.308 423.474C229.844 423.474 223.056 422.183 216.929 419.615C211.644 417.39 207.402 414.006 204.206 409.462C203.339 408.225 203.505 406.513 204.575 405.459L211.784 398.309C213.019 397.084 215.019 397.163 216.089 398.533C218.267 401.337 221.005 403.471 224.317 404.906C228.621 406.776 233.309 407.724 238.39 407.724C242.326 407.724 245.548 407.053 248.032 405.709C250.516 404.366 251.764 402.141 251.764 399.033C251.764 395.925 250.363 393.752 247.561 392.515C244.759 391.277 240.403 390.026 234.493 388.735C231.487 388.09 228.354 387.26 225.081 386.246C221.807 385.232 218.827 383.81 216.14 381.98C213.44 380.163 211.236 377.766 209.529 374.829C207.823 371.88 206.957 368.206 206.957 363.82C206.995 356.222 209.682 350.217 215.083 345.819Z" fill="#293147"/>
<path d="M288.559 344.371C293.998 340.934 301.283 339.222 310.415 339.222C321.407 339.222 329.571 341.842 334.908 347.096C340.244 352.351 342.919 360.173 342.919 370.576V418.483C342.919 420.182 341.594 421.551 339.951 421.551H329.087C327.444 421.551 326.119 420.182 326.119 418.483C326.119 415.862 323.164 414.466 321.241 416.165C319.789 417.443 318.172 418.601 316.401 419.615C312.3 421.972 307.307 423.158 301.398 423.158C297.36 423.158 293.705 422.539 290.431 421.314C287.158 420.089 284.42 418.364 282.191 416.165C279.962 413.966 278.23 411.345 276.982 408.29C275.733 405.235 275.109 401.891 275.109 398.243C275.109 390.842 277.466 385.009 282.191 380.716C286.903 376.423 292.839 373.96 299.997 373.315L321.611 371.063C324.616 370.747 326.119 369.509 326.119 367.363V365.598C326.119 362.49 324.846 359.949 322.311 357.96C319.776 355.972 315.905 354.984 310.721 354.984C305.957 354.984 301.754 355.919 298.124 357.802C295.462 359.185 293.463 361.266 292.138 364.071C291.361 365.717 289.387 366.336 287.884 365.361L279.516 359.896C278.281 359.093 277.771 357.447 278.383 356.077C280.484 351.218 283.885 347.32 288.559 344.371ZM303.716 387.313C299.882 387.853 297.054 389.051 295.233 390.934C293.425 392.804 292.508 395.082 292.508 397.769C292.508 400.877 293.565 403.365 295.692 405.248C297.819 407.118 301.003 408.067 305.257 408.067C308.466 408.067 311.37 407.527 313.969 406.46C316.554 405.393 318.732 403.971 320.502 402.193C322.26 400.429 323.636 398.388 324.629 396.083C325.61 393.779 326.107 391.448 326.107 389.091V387.906C326.107 386.062 324.54 384.64 322.77 384.864L303.716 387.313Z" fill="#293147"/>
<path d="M383.115 343.093C386.796 340.525 391.381 339.235 396.883 339.235C398.628 339.235 400.348 339.38 402.042 339.669C403.468 339.92 404.5 341.21 404.5 342.698V354.984C404.5 356.881 402.857 358.303 401.048 358C400.832 357.96 400.602 357.921 400.373 357.895C398.972 357.684 397.495 357.579 395.941 357.579C388.159 357.579 382.669 359.962 379.46 364.729C376.25 369.496 374.633 376.172 374.633 384.745V418.509C374.633 420.208 373.308 421.577 371.665 421.577H360.801C359.158 421.577 357.833 420.208 357.833 418.509V344.239C357.833 342.54 359.158 341.171 360.801 341.171H371.041C372.684 341.171 374.008 342.54 374.008 344.239V344.45C374.008 347.228 377.256 348.519 379.141 346.53C380.364 345.227 381.689 344.081 383.115 343.093Z" fill="#293147"/>
<path d="M327 125C327 194.036 271.036 250 202 250C132.964 250 77 194.036 77 125C77 55.9644 132.964 0 202 0C271.036 0 327 55.9644 327 125Z" fill="#0261F5"/>
<circle cx="202.25" cy="125.25" r="77.25" fill="white"/>
<path fill-rule="evenodd" clip-rule="evenodd" d="M184.02 248.716C161.96 245.539 141.762 236.6 125 223.475V60H184.02V248.716Z" fill="white"/>
<path fill-rule="evenodd" clip-rule="evenodd" d="M219 100.739C214.105 97.1318 208.057 95 201.51 95C185.212 95 172 108.212 172 124.51C172 140.808 185.212 154.02 201.51 154.02C208.057 154.02 214.105 151.888 219 148.281V100.739Z" fill="#0261F5"/>
<path d="M224 48V202.5" stroke="#0261F5" stroke-width="10"/>
<path d="M244 48V202.5" stroke="#0261F5" stroke-width="10"/>
<path d="M264 48V202.5" stroke="#0261F5" stroke-width="10"/>
</svg>
