<svg width="1038" height="1000" viewBox="0 0 1038 1000" fill="none" xmlns="http://www.w3.org/2000/svg">
<circle cx="519" cy="300" r="300" fill="#0261F5"/>
<path fill-rule="evenodd" clip-rule="evenodd" d="M519 450C601.843 450 669 382.843 669 300C669 217.157 601.843 150 519 150C436.157 150 369 217.157 369 300V350V450C424.228 450 469 405.229 469 350V300C469 272.386 491.386 250 519 250C546.614 250 569 272.386 569 300C569 327.614 546.614 350 519 350H509V450H519Z" fill="white"/>
<path d="M87.0117 730.129C107.324 730.52 117.578 744.191 117.773 771.145C117.383 798.098 106.738 811.672 85.8398 811.867H70.3125V730.129H87.0117ZM99.6094 898C98.4375 893.117 95.8008 890.48 91.6992 890.09H70.3125V820.656H94.3359C128.125 820.656 149.316 810.012 157.91 788.723C160.449 782.668 161.719 775.93 161.719 768.508C161.719 750.148 153.516 736.965 137.109 728.957C127.734 724.465 116.602 722.219 103.711 722.219H5.85938V730.129H29.2969V890.09H5.85938V898H99.6094ZM167.578 730.129H191.016V833.547C191.406 878.273 216.113 900.734 265.137 900.93C296.582 900.93 316.406 888.918 324.609 864.895C327.734 855.129 329.297 843.312 329.297 829.445V730.129H352.734V722.219H295.02V730.129H318.457V831.203C318.262 871.633 302.539 891.945 271.289 892.141C251.562 892.141 239.355 881.398 234.668 859.914C232.91 851.906 232.031 842.336 232.031 831.203V730.129H255.469V722.219H167.578V730.129ZM503.613 898L504.785 834.426H496.289L487.793 861.965C483.691 875.051 477.832 883.449 470.215 887.16C465.723 889.113 460.547 890.09 454.688 890.09H424.512V730.129H449.414V722.219H360.059V730.129H383.496V890.09H360.059V898H503.613ZM656.25 849.074C656.25 832.863 647.363 818.996 629.59 807.473C627.051 806.105 616.797 800.637 598.828 791.066C582.422 782.473 572.168 773.977 568.066 765.578C566.113 761.477 565.137 757.18 565.137 752.688C565.137 741.164 570.703 733.547 581.836 729.836C585.547 728.664 589.453 728.078 593.555 728.078C609.57 728.078 621.582 734.133 629.59 746.242C634.473 753.859 637.012 762.941 637.207 773.488H648.633V720.461C643.164 720.461 639.941 722.316 638.965 726.027C638.77 727.395 638.672 728.957 638.672 730.715C622.461 723.098 605.371 719.289 587.402 719.289C563.77 719.289 545.996 725.441 534.082 737.746C526.465 745.754 522.656 755.227 522.656 766.164C522.656 782.375 531.934 796.242 550.488 807.766C552.832 809.328 563.379 814.895 582.129 824.465C598.926 833.254 609.375 841.75 613.477 849.953C615.234 853.859 616.113 857.863 616.113 861.965C616.113 876.027 609.863 885.402 597.363 890.09C592.871 891.652 587.891 892.434 582.422 892.434C561.719 892.434 547.168 882.961 538.77 864.016C535.254 856.008 533.105 846.828 532.324 836.477H520.898V898.586C526.172 898.586 529.297 897.023 530.273 893.898C530.664 891.945 530.859 889.309 530.859 885.988C545.898 895.949 564.062 900.93 585.352 900.93C610.156 900.93 629.199 894.582 642.48 881.887C651.66 872.902 656.25 861.965 656.25 849.074ZM857.812 898C857.812 893.312 856.543 890.773 854.004 890.383C853.027 890.188 851.953 890.09 850.781 890.09H841.992L772.852 722.219H751.172L687.012 890.09H668.262V898H722.168C722.168 893.312 720.898 890.773 718.359 890.383C717.383 890.188 716.309 890.09 715.137 890.09H698.73L719.824 833.84H778.125L800.098 890.09H779.297V898H857.812ZM774.609 825.051H723.34L748.535 757.668L774.609 825.051ZM951.562 898V890.09H928.125V817.727H942.48L986.133 898.293L1037.7 898C1037.7 893.703 1036.13 891.262 1033.01 890.676C1032.03 890.48 1031.05 890.383 1030.08 890.383H1026.27L981.152 814.211C1001.66 808.547 1014.26 797.414 1018.95 780.812C1020.12 776.711 1020.7 772.512 1020.7 768.215C1020.7 753.762 1014.26 742.141 1001.37 733.352C990.43 725.93 977.148 722.219 961.523 722.219H863.672V730.129H887.109V890.09H863.672V898H951.562ZM943.945 730.129C959.961 730.129 970.312 738.039 975 753.859C976.367 758.938 977.051 764.211 977.051 769.68C977.051 786.477 971.973 798.098 961.816 804.543C957.324 807.473 952.148 808.938 946.289 808.938H928.125V730.129H943.945Z" fill="#293147"/>
</svg>
