<svg width="1818" height="500" viewBox="0 0 1818 500" fill="none" xmlns="http://www.w3.org/2000/svg">
<rect width="500" height="500" rx="100" fill="#0261F5"/>
<path fill-rule="evenodd" clip-rule="evenodd" d="M174.766 119.922C244.511 79.6552 333.151 101.764 376.091 168.939L303.479 197.962C280.114 173.877 242.558 167.744 212.174 185.286C181.79 202.828 168.324 238.419 177.5 270.697L116.515 318.71C79.8647 247.948 105.045 160.176 174.766 119.922ZM123.824 331.31C166.906 398.019 255.228 419.878 324.766 379.73C394.328 339.568 419.552 252.103 383.266 181.425L321.848 229.779C331.024 262.057 317.558 297.648 287.174 315.19C256.79 332.732 219.235 326.598 195.869 302.513L123.824 331.31Z" fill="white"/>
<path d="M1684.1 293.957L1720.39 293.945L1720.42 293.987L1760.86 369.227L1762.28 371.859H1765.27H1800.7H1809.14L1805.08 364.455L1762.23 286.317L1762.11 286.105C1762.54 285.903 1762.96 285.698 1763.38 285.488C1774.8 279.785 1783.5 271.701 1789.27 261.217C1795.04 250.79 1797.84 238.846 1797.84 225.532C1797.84 212.166 1795.08 200.167 1789.39 189.682C1783.64 179.012 1774.96 170.722 1763.55 164.806C1752.09 158.835 1737.99 156 1721.48 156H1648H1643V161V187.637V192.637H1648H1679.1H1718.16C1727.99 192.637 1735.44 194.123 1740.82 196.753L1740.85 196.767L1740.88 196.781C1746.37 199.377 1750.17 203.002 1752.57 207.629L1752.58 207.65L1752.59 207.67C1755.16 212.51 1756.54 218.408 1756.54 225.532C1756.54 232.604 1755.19 238.352 1752.71 242.967C1750.34 247.378 1746.56 250.855 1741.06 253.342L1741.05 253.346L1741.04 253.351C1735.61 255.831 1728.21 257.221 1718.56 257.221H1679.1H1648H1643V262.221V366.859V371.859H1648H1679.1H1684.1V366.859V293.957Z" fill="#293147" stroke="#293147" stroke-width="10"/>
<path d="M1447.02 371.859H1450.57L1451.74 368.496L1506.2 211.348L1560.56 368.494L1561.73 371.859H1565.29H1598.3H1605.42L1603.01 365.164L1528.82 159.305L1527.63 156H1524.12H1488.18H1484.67L1483.48 159.305L1409.3 365.164L1406.88 371.859H1414H1447.02Z" fill="#293147" stroke="#293147" stroke-width="10"/>
<path d="M1327.62 218.453L1328.12 222.893H1332.59H1362.58H1367.71L1367.58 217.771C1367.29 205.761 1363.77 194.988 1356.97 185.615C1350.24 176.256 1341.06 168.999 1329.63 163.79C1318.2 158.549 1305.15 156 1290.61 156C1276.19 156 1263.06 158.589 1251.33 163.874C1239.61 169.085 1230.16 176.48 1223.16 186.101C1216.04 195.874 1212.54 207.279 1212.54 220.104C1212.54 235.687 1217.81 248.618 1228.57 258.384L1228.58 258.39L1228.58 258.396C1238.98 267.771 1252.84 274.675 1269.87 279.309L1294.23 285.942L1294.25 285.948L1294.27 285.953C1301.45 287.844 1307.81 290.01 1313.38 292.436L1313.38 292.44L1313.39 292.444C1318.78 294.767 1322.78 297.592 1325.61 300.807L1325.63 300.825L1325.65 300.843C1328.18 303.661 1329.6 307.395 1329.6 312.479C1329.6 318.11 1327.97 322.866 1324.74 326.963C1321.41 331.136 1316.73 334.549 1310.48 337.095C1304.33 339.56 1297.17 340.851 1288.9 340.851C1281.42 340.851 1274.65 339.755 1268.54 337.623C1262.64 335.477 1257.92 332.292 1254.23 328.105C1250.8 324.063 1248.72 318.911 1248.19 312.376L1247.81 307.781H1243.2H1212H1206.72L1207.01 313.051C1207.72 326.269 1211.5 337.922 1218.48 347.827L1218.49 347.834L1218.49 347.841C1225.45 357.648 1235.04 365.129 1247.05 370.34C1259.09 375.565 1273.15 378.091 1289.1 378.091C1305.73 378.091 1320.2 375.396 1332.36 369.793C1344.48 364.241 1353.94 356.542 1360.51 346.605C1367.13 336.679 1370.4 325.349 1370.4 312.781C1370.4 302.874 1368.42 294.064 1364.24 286.545C1360.29 279.312 1355.07 273.213 1348.6 268.292C1342.33 263.527 1335.53 259.685 1328.19 256.77C1321.1 253.951 1314.15 251.702 1307.34 250.035L1287.24 244.817L1287.22 244.811L1287.19 244.805C1283.35 243.845 1279.32 242.623 1275.1 241.134C1271.06 239.643 1267.29 237.821 1263.78 235.671C1260.61 233.627 1258.09 231.148 1256.15 228.23C1254.48 225.611 1253.54 222.37 1253.54 218.295C1253.54 213.499 1254.89 209.353 1257.59 205.684C1260.4 201.893 1264.43 198.785 1269.91 196.463L1269.94 196.454L1269.96 196.445C1275.36 194.098 1281.97 192.838 1289.91 192.838C1300.97 192.838 1309.72 195.312 1316.49 199.913L1316.5 199.922L1316.51 199.93C1323.05 204.318 1326.71 210.361 1327.62 218.453Z" fill="#293147" stroke="#293147" stroke-width="10"/>
<path d="M1033 367.109V372.109H1038H1162.56H1167.56V367.109V340.339V335.339H1162.56H1074.11V161V156H1069.11H1038H1033V161V367.109Z" fill="#293147" stroke="#293147" stroke-width="10"/>
<path d="M958.476 156H953.476V161V295.712C953.476 304.422 951.624 311.965 948.05 318.474L948.042 318.489L948.033 318.505C944.539 324.975 939.488 330.072 932.76 333.837C926.18 337.488 918.17 339.42 908.544 339.42C898.995 339.42 891.019 337.492 884.436 333.841C877.769 330.075 872.665 324.965 869.031 318.459C865.462 311.954 863.613 304.416 863.613 295.712V161V156H858.613H828H823V161V298.259C823 313.655 826.525 327.495 833.703 339.629L833.709 339.64C840.87 351.673 850.939 361.127 863.787 367.988L863.797 367.993L863.806 367.998C876.734 374.828 891.698 378.156 908.544 378.156C925.453 378.156 940.451 374.829 953.381 367.998L953.391 367.993L953.401 367.988C966.249 361.127 976.317 351.673 983.478 339.64L983.485 339.629C990.663 327.495 994.188 313.655 994.188 298.259V161V156H989.188H958.476Z" fill="#293147" stroke="#293147" stroke-width="10"/>
<path d="M670.103 372.443V299.487H707.379C723.93 299.487 738.08 296.469 749.559 290.117L749.568 290.111C760.962 283.774 769.608 275.111 775.326 264.131C781.039 253.223 783.845 241.024 783.845 227.643C783.845 214.334 781.075 202.205 775.431 191.364C769.717 180.321 761.105 171.648 749.76 165.37C738.278 159.016 724.093 156 707.479 156H634H629V161V161.056V161.111V161.167V161.223V161.278V161.334V161.39V161.445V161.501V161.557V161.612V161.668V161.723V161.779V161.834V161.89V161.945V162.001V162.056V162.111V162.167V162.222V162.277V162.333V162.388V162.443V162.499V162.554V162.609V162.665V162.72V162.775V162.83V162.885V162.94V162.996V163.051V163.106V163.161V163.216V163.271V163.326V163.381V163.436V163.491V163.546V163.601V163.656V163.711V163.766V163.821V163.876V163.93V163.985V164.04V164.095V164.15V164.204V164.259V164.314V164.369V164.423V164.478V164.533V164.587V164.642V164.697V164.751V164.806V164.86V164.915V164.97V165.024V165.079V165.133V165.188V165.242V165.297V165.351V165.405V165.46V165.514V165.569V165.623V165.677V165.732V165.786V165.84V165.894V165.949V166.003V166.057V166.111V166.166V166.22V166.274V166.328V166.382V166.436V166.49V166.545V166.599V166.653V166.707V166.761V166.815V166.869V166.923V166.977V167.031V167.085V167.139V167.192V167.246V167.3V167.354V167.408V167.462V167.516V167.569V167.623V167.677V167.731V167.784V167.838V167.892V167.945V167.999V168.053V168.106V168.16V168.214V168.267V168.321V168.374V168.428V168.482V168.535V168.589V168.642V168.696V168.749V168.802V168.856V168.909V168.963V169.016V169.069V169.123V169.176V169.229V169.283V169.336V169.389V169.443V169.496V169.549V169.602V169.656V169.709V169.762V169.815V169.868V169.921V169.974V170.028V170.081V170.134V170.187V170.24V170.293V170.346V170.399V170.452V170.505V170.558V170.611V170.664V170.717V170.77V170.822V170.875V170.928V170.981V171.034V171.087V171.139V171.192V171.245V171.298V171.351V171.403V171.456V171.509V171.561V171.614V171.667V171.719V171.772V171.825V171.877V171.93V171.982V172.035V172.088V172.14V172.193V172.245V172.298V172.35V172.403V172.455V172.507V172.56V172.612V172.665V172.717V172.769V172.822V172.874V172.926V172.979V173.031V173.083V173.136V173.188V173.24V173.292V173.345V173.397V173.449V173.501V173.553V173.605V173.658V173.71V173.762V173.814V173.866V173.918V173.97V174.022V174.074V174.126V174.178V174.23V174.282V174.334V174.386V174.438V174.49V174.542V174.594V174.646V174.698V174.749V174.801V174.853V174.905V174.957V175.009V175.06V175.112V175.164V175.216V175.267V175.319V175.371V175.422V175.474V175.526V175.577V175.629V175.681V175.732V175.784V175.835V175.887V175.939V175.99V176.042V176.093V176.145V176.196V176.248V176.299V176.351V176.402V176.453V176.505V176.556V176.608V176.659V176.71V176.762V176.813V176.864V176.916V176.967V177.018V177.07V177.121V177.172V177.223V177.275V177.326V177.377V177.428V177.479V177.531V177.582V177.633V177.684V177.735V177.786V177.837V177.889V177.94V177.991V178.042V178.093V178.144V178.195V178.246V178.297V178.348V178.399V178.45V178.501V178.552V178.602V178.653V178.704V178.755V178.806V178.857V178.908V178.959V179.009V179.06V179.111V179.162V179.212V179.263V179.314V179.365V179.415V179.466V179.517V179.568V179.618V179.669V179.72V179.77V179.821V179.871V179.922V179.973V180.023V180.074V180.124V180.175V180.226V180.276V180.327V180.377V180.428V180.478V180.529V180.579V180.629V180.68V180.73V180.781V180.831V180.882V180.932V180.982V181.033V181.083V181.133V181.184V181.234V181.284V181.335V181.385V181.435V181.485V181.536V181.586V181.636V181.686V181.737V181.787V181.837V181.887V181.937V181.987V182.038V182.088V182.138V182.188V182.238V182.288V182.338V182.388V182.438V182.488V182.538V182.588V182.638V182.688V182.738V182.788V182.838V182.888V182.938V182.988V183.038V183.088V183.138V183.188V183.238V183.288V183.337V183.387V183.437V183.487V183.537V183.587V183.636V183.686V183.736V183.786V183.835V183.885V183.935V183.985V184.034V184.084V184.134V184.183V184.233V184.283V184.332V184.382V184.432V184.481V184.531V184.581V184.63V184.68V184.729V184.779V184.828V184.878V184.928V184.977V185.027V185.076V185.126V185.175V185.225V185.274V185.323V185.373V185.422V185.472V185.521V185.571V185.62V185.669V185.719V185.768V185.817V185.867V185.916V185.965V186.015V186.064V186.113V186.163V186.212V186.261V186.311V186.36V186.409V186.458V186.507V186.557V186.606V186.655V186.704V186.753V186.803V186.852V186.901V186.95V186.999V187.048V187.097V187.147V187.196V187.245V187.294V187.343V187.392V187.441V187.49V187.539V187.588V187.637V192.637H634H665.103H704.158C714.003 192.637 721.414 194.275 726.739 197.16L726.748 197.165L726.758 197.17C732.285 200.133 736.165 204.119 738.621 209.135C741.189 214.381 742.541 220.512 742.541 227.643C742.541 234.773 741.19 240.946 738.612 246.271C736.137 251.382 732.26 255.471 726.786 258.557C721.46 261.495 714.162 263.151 704.56 263.151H665.103H634H629V268.151V372.443V377.443H634H665.103H670.103V372.443Z" fill="#293147" stroke="#293147" stroke-width="10"/>
</svg>
