<svg width="800" height="927" viewBox="0 0 800 927" fill="none" xmlns="http://www.w3.org/2000/svg">
<circle cx="400" cy="300" r="300" fill="#293147"/>
<path fill-rule="evenodd" clip-rule="evenodd" d="M324.766 169.922C394.511 129.655 483.151 151.764 526.091 218.939L453.479 247.962C430.114 223.877 392.558 217.744 362.174 235.286C331.79 252.828 318.324 288.419 327.5 320.697L266.515 368.71C229.865 297.948 255.045 210.176 324.766 169.922ZM273.824 381.31C316.906 448.019 405.228 469.878 474.766 429.73C544.328 389.568 569.552 302.103 533.266 231.425L471.848 279.779C481.024 312.057 467.558 347.648 437.174 365.19C406.79 382.732 369.235 376.598 345.869 352.513L273.824 381.31Z" fill="white"/>
<path d="M109.953 705.73C119.097 709.532 126.931 714.845 133.505 721.617C140.055 728.414 145.193 736.462 148.896 745.785C152.599 755.109 154.438 765.292 154.438 776.309C154.438 787.325 152.599 797.509 148.896 806.832C145.193 816.156 140.08 824.23 133.505 831.001C126.931 837.799 119.097 843.086 109.978 846.914C100.86 850.743 90.96 852.644 80.3048 852.644H40.9333C37.6838 852.644 35.0641 855.352 35.0641 858.712V916.556C35.0641 919.915 32.4444 922.624 29.1949 922.624H5.8692C2.61973 922.624 0 919.915 0 916.556V706.068C0 702.709 2.61973 700 5.8692 700H80.2796C90.9349 700 100.834 701.901 109.953 705.73ZM108.417 747.556C101.137 740.03 91.7661 736.279 80.2796 736.279H40.9333C37.6838 736.279 35.0641 738.988 35.0641 742.348V810.374C35.0641 813.734 37.6838 816.443 40.9333 816.443H80.2796C91.7661 816.443 101.137 812.692 108.417 805.166C115.696 797.639 119.324 788.055 119.324 776.387C119.324 764.719 115.696 755.083 108.417 747.556Z" fill="#293147"/>
<path d="M306.936 922.624H286.683C283.434 922.624 280.814 919.915 280.814 916.556V915.618C280.814 910.331 274.668 907.544 270.965 911.191C267.791 914.316 264.391 917.024 260.814 919.29C253.232 924.056 243.584 926.452 231.896 926.452C222.047 926.452 213.583 924.864 206.53 921.686C199.451 918.509 193.658 913.951 189.149 908.013C184.64 902.075 181.365 895.069 179.3 887.022C177.259 878.974 176.227 869.963 176.227 859.988V769.668C176.227 766.308 178.846 763.599 182.096 763.599H204.515C207.764 763.599 210.384 766.308 210.384 769.668V855.196C210.384 867.072 212.601 876.448 217.009 883.35C221.417 890.251 229.377 893.689 240.838 893.689C248.219 893.689 254.365 892.257 259.302 889.392C264.214 886.527 268.169 882.594 271.141 877.62C274.114 872.646 276.28 866.812 277.59 860.118C278.925 853.451 279.58 846.289 279.58 838.658V769.668C279.58 766.308 282.2 763.599 285.449 763.599H306.936C310.185 763.599 312.805 766.308 312.805 769.668V916.556C312.805 919.915 310.185 922.624 306.936 922.624Z" fill="#293147"/>
<path d="M374.597 922.624H352.481C349.231 922.624 346.611 919.915 346.611 916.556V706.068C346.611 702.709 349.231 700 352.481 700H374.597C377.847 700 380.466 702.709 380.466 706.068V916.556C380.466 919.915 377.847 922.624 374.597 922.624Z" fill="#293147"/>
<path d="M425.379 772.819C436.035 764.12 451.023 759.771 470.293 759.771C485.054 759.771 497.372 762.375 507.196 767.558C515.307 771.855 522.259 777.403 528.002 784.2C530.043 786.622 529.866 790.321 527.599 792.56L513.644 806.39C511.302 808.708 507.574 808.63 505.357 806.181C502.082 802.561 498.027 799.436 493.19 796.832C486.313 793.133 478.076 791.258 468.429 791.258C460.847 791.258 454.751 792.639 450.116 795.399C445.481 798.16 443.189 801.962 443.189 806.859C443.189 812.797 446.211 816.938 452.257 819.255C458.302 821.599 467.371 824.126 479.487 826.886C486.062 828.371 492.46 830.116 498.707 832.121C504.954 834.127 510.546 836.939 515.483 840.559C520.395 844.154 524.35 848.763 527.322 854.389C530.295 860.014 531.781 867.176 531.781 875.849C531.781 884.548 530.244 892.075 527.171 898.429C524.098 904.784 519.841 910.045 514.4 914.16C508.959 918.301 502.41 921.374 494.702 923.379C487.019 925.385 478.555 926.4 469.336 926.4C454.574 926.4 441.148 923.848 429.032 918.77C418.578 914.368 410.19 907.675 403.867 898.69C402.155 896.242 402.482 892.856 404.598 890.772L418.855 876.63C421.299 874.208 425.254 874.365 427.369 877.073C431.677 882.621 437.093 886.84 443.642 889.678C452.156 893.377 461.426 895.252 471.477 895.252C479.26 895.252 485.633 893.924 490.545 891.267C495.457 888.611 497.926 884.209 497.926 878.063C497.926 871.916 495.155 867.619 489.613 865.171C484.072 862.723 475.457 860.249 463.769 857.696C457.824 856.42 451.627 854.779 445.153 852.774C438.68 850.769 432.785 847.956 427.47 844.336C422.13 840.742 417.772 836.002 414.397 830.194C411.021 824.36 409.308 817.094 409.308 808.421C409.384 793.394 414.699 781.518 425.379 772.819Z" fill="#293147"/>
<path d="M570.698 769.954C581.454 763.157 595.863 759.771 613.924 759.771C635.662 759.771 651.809 764.954 662.363 775.345C672.918 785.737 678.208 801.207 678.208 821.782V916.53C678.208 919.889 675.588 922.598 672.338 922.598H650.852C647.602 922.598 644.982 919.889 644.982 916.53C644.982 911.347 639.138 908.586 635.335 911.946C632.463 914.472 629.264 916.764 625.763 918.77C617.652 923.431 607.777 925.775 596.089 925.775C588.104 925.775 580.875 924.551 574.401 922.129C567.927 919.707 562.511 916.295 558.103 911.946C553.695 907.597 550.269 902.414 547.801 896.372C545.332 890.329 544.098 883.714 544.098 876.5C544.098 861.863 548.758 850.326 558.103 841.836C567.423 833.345 579.162 828.475 593.318 827.199L636.065 822.745C642.01 822.12 644.982 819.672 644.982 815.427V811.937C644.982 805.791 642.463 800.764 637.451 796.832C632.438 792.899 624.78 790.946 614.528 790.946C605.107 790.946 596.795 792.795 589.615 796.519C584.351 799.254 580.396 803.369 577.776 808.916C576.24 812.171 572.335 813.396 569.363 811.468L552.813 800.66C550.37 799.071 549.362 795.816 550.571 793.107C554.728 783.497 561.453 775.788 570.698 769.954ZM600.674 854.884C593.092 855.951 587.5 858.321 583.897 862.046C580.32 865.744 578.507 870.25 578.507 875.563C578.507 881.709 580.598 886.631 584.804 890.356C589.011 894.054 595.308 895.929 603.722 895.929C610.07 895.929 615.813 894.861 620.951 892.752C626.065 890.642 630.372 887.829 633.874 884.313C637.35 880.823 640.07 876.787 642.035 872.229C643.975 867.671 644.957 863.061 644.957 858.4V856.056C644.957 852.409 641.859 849.597 638.358 850.039L600.674 854.884Z" fill="#293147"/>
<path d="M757.707 767.428C764.986 762.349 774.055 759.797 784.937 759.797C788.388 759.797 791.788 760.083 795.138 760.656C797.96 761.151 800 763.704 800 766.647V790.946C800 794.696 796.751 797.509 793.174 796.91C792.745 796.832 792.292 796.753 791.839 796.701C789.068 796.285 786.146 796.076 783.073 796.076C767.682 796.076 756.825 800.79 750.477 810.218C744.129 819.646 740.93 832.85 740.93 849.805V916.582C740.93 919.941 738.31 922.65 735.061 922.65H713.574C710.325 922.65 707.705 919.941 707.705 916.582V769.694C707.705 766.334 710.325 763.625 713.574 763.625H733.827C737.076 763.625 739.696 766.334 739.696 769.694V770.11C739.696 775.606 746.119 778.158 749.847 774.225C752.266 771.647 754.885 769.381 757.707 767.428Z" fill="#293147"/>
</svg>
