<svg width="800" height="827" viewBox="0 0 800 827" fill="none" xmlns="http://www.w3.org/2000/svg">
<circle cx="399" cy="250" r="250" fill="#293147"/>
<path fill-rule="evenodd" clip-rule="evenodd" d="M426.239 126.882C372.892 112.588 318.059 144.246 303.765 197.593C289.47 250.939 321.129 305.773 374.475 320.067L426.239 126.882Z" fill="white"/>
<path fill-rule="evenodd" clip-rule="evenodd" d="M450.388 133.352C503.734 147.647 535.393 202.48 521.099 255.827C506.804 309.173 451.971 340.832 398.624 326.538L450.388 133.352Z" fill="white"/>
<path fill-rule="evenodd" clip-rule="evenodd" d="M303.765 197.593C357.111 211.887 388.77 266.72 374.476 320.067C360.181 373.414 305.348 405.072 252.001 390.778L303.765 197.593Z" fill="white"/>
<path d="M109.953 605.73C119.097 609.532 126.931 614.845 133.505 621.617C140.055 628.414 145.194 636.462 148.896 645.785C152.599 655.109 154.438 665.292 154.438 676.309C154.438 687.325 152.599 697.509 148.896 706.832C145.194 716.156 140.08 724.23 133.505 731.001C126.931 737.799 119.097 743.086 109.978 746.914C100.86 750.743 90.96 752.644 80.3048 752.644H40.9333C37.6838 752.644 35.0641 755.352 35.0641 758.712V816.556C35.0641 819.915 32.4443 822.624 29.1949 822.624H5.8692C2.61973 822.624 0 819.915 0 816.556V606.068C0 602.709 2.61973 600 5.8692 600H80.2796C90.9349 600 100.834 601.901 109.953 605.73ZM108.417 647.556C101.137 640.03 91.7661 636.279 80.2796 636.279H40.9333C37.6838 636.279 35.0641 638.988 35.0641 642.348V710.374C35.0641 713.734 37.6838 716.443 40.9333 716.443H80.2796C91.7661 716.443 101.137 712.692 108.417 705.166C115.696 697.639 119.324 688.055 119.324 676.387C119.324 664.719 115.696 655.083 108.417 647.556Z" fill="#293147"/>
<path d="M306.936 822.624H286.683C283.434 822.624 280.814 819.915 280.814 816.556V815.618C280.814 810.331 274.668 807.544 270.965 811.191C267.791 814.316 264.391 817.024 260.814 819.29C253.232 824.056 243.584 826.452 231.896 826.452C222.047 826.452 213.583 824.864 206.53 821.686C199.451 818.509 193.658 813.951 189.149 808.013C184.64 802.075 181.365 795.069 179.3 787.022C177.259 778.974 176.227 769.963 176.227 759.988V669.668C176.227 666.308 178.846 663.599 182.096 663.599H204.515C207.764 663.599 210.384 666.308 210.384 669.668V755.196C210.384 767.072 212.601 776.448 217.009 783.35C221.417 790.251 229.377 793.689 240.838 793.689C248.219 793.689 254.365 792.257 259.302 789.392C264.214 786.527 268.169 782.594 271.141 777.62C274.114 772.646 276.28 766.812 277.59 760.118C278.925 753.451 279.58 746.289 279.58 738.658V669.668C279.58 666.308 282.2 663.599 285.449 663.599H306.936C310.185 663.599 312.805 666.308 312.805 669.668V816.556C312.805 819.915 310.185 822.624 306.936 822.624Z" fill="#293147"/>
<path d="M374.597 822.624H352.481C349.231 822.624 346.611 819.915 346.611 816.556V606.068C346.611 602.709 349.231 600 352.481 600H374.597C377.847 600 380.466 602.709 380.466 606.068V816.556C380.466 819.915 377.847 822.624 374.597 822.624Z" fill="#293147"/>
<path d="M425.379 672.819C436.035 664.12 451.023 659.771 470.293 659.771C485.054 659.771 497.372 662.375 507.196 667.558C515.307 671.855 522.259 677.403 528.002 684.2C530.043 686.622 529.866 690.321 527.599 692.56L513.644 706.39C511.302 708.708 507.574 708.629 505.357 706.181C502.082 702.561 498.027 699.436 493.19 696.832C486.313 693.133 478.076 691.258 468.429 691.258C460.847 691.258 454.751 692.638 450.116 695.399C445.481 698.16 443.189 701.962 443.189 706.858C443.189 712.797 446.211 716.938 452.257 719.255C458.302 721.599 467.371 724.126 479.487 726.886C486.062 728.371 492.46 730.116 498.707 732.121C504.954 734.127 510.546 736.939 515.483 740.559C520.395 744.153 524.35 748.763 527.322 754.389C530.295 760.014 531.781 767.176 531.781 775.849C531.781 784.548 530.244 792.074 527.171 798.429C524.098 804.784 519.841 810.045 514.4 814.16C508.959 818.301 502.41 821.374 494.702 823.379C487.019 825.385 478.555 826.4 469.336 826.4C454.574 826.4 441.148 823.848 429.032 818.77C418.578 814.368 410.19 807.675 403.867 798.69C402.155 796.241 402.482 792.856 404.598 790.772L418.855 776.63C421.299 774.208 425.254 774.365 427.369 777.073C431.677 782.62 437.093 786.84 443.642 789.678C452.156 793.377 461.426 795.252 471.477 795.252C479.26 795.252 485.633 793.924 490.545 791.267C495.457 788.611 497.926 784.209 497.926 778.063C497.926 771.916 495.155 767.619 489.613 765.171C484.072 762.723 475.457 760.249 463.769 757.696C457.824 756.42 451.627 754.779 445.153 752.774C438.68 750.769 432.785 747.956 427.47 744.336C422.13 740.742 417.772 736.002 414.397 730.194C411.021 724.36 409.308 717.094 409.308 708.421C409.384 693.394 414.699 681.518 425.379 672.819Z" fill="#293147"/>
<path d="M570.698 669.954C581.454 663.157 595.863 659.771 613.924 659.771C635.662 659.771 651.809 664.954 662.363 675.345C672.918 685.737 678.208 701.207 678.208 721.782V816.53C678.208 819.889 675.588 822.598 672.338 822.598H650.852C647.602 822.598 644.982 819.889 644.982 816.53C644.982 811.347 639.138 808.586 635.335 811.946C632.463 814.472 629.264 816.764 625.763 818.769C617.652 823.431 607.777 825.775 596.089 825.775C588.104 825.775 580.875 824.551 574.401 822.129C567.927 819.707 562.511 816.295 558.103 811.946C553.695 807.597 550.269 802.414 547.801 796.372C545.332 790.329 544.098 783.714 544.098 776.5C544.098 761.863 548.758 750.326 558.103 741.836C567.423 733.345 579.162 728.475 593.318 727.199L636.065 722.745C642.01 722.12 644.982 719.672 644.982 715.427V711.937C644.982 705.791 642.463 700.764 637.451 696.832C632.438 692.899 624.78 690.946 614.528 690.946C605.107 690.946 596.795 692.795 589.615 696.519C584.351 699.254 580.396 703.369 577.776 708.916C576.24 712.171 572.335 713.395 569.363 711.468L552.813 700.66C550.37 699.071 549.362 695.816 550.571 693.107C554.728 683.497 561.453 675.788 570.698 669.954ZM600.674 754.884C593.092 755.951 587.5 758.321 583.897 762.046C580.32 765.744 578.507 770.25 578.507 775.562C578.507 781.709 580.598 786.631 584.804 790.355C589.011 794.054 595.308 795.929 603.722 795.929C610.07 795.929 615.813 794.861 620.951 792.752C626.065 790.642 630.372 787.829 633.874 784.313C637.35 780.823 640.07 776.787 642.035 772.229C643.975 767.671 644.957 763.061 644.957 758.4V756.056C644.957 752.409 641.859 749.597 638.358 750.039L600.674 754.884Z" fill="#293147"/>
<path d="M757.707 667.428C764.986 662.349 774.055 659.797 784.937 659.797C788.388 659.797 791.788 660.083 795.138 660.656C797.96 661.151 800 663.704 800 666.647V690.946C800 694.696 796.751 697.509 793.174 696.91C792.745 696.832 792.292 696.753 791.839 696.701C789.068 696.285 786.146 696.076 783.073 696.076C767.682 696.076 756.825 700.79 750.477 710.218C744.129 719.646 740.93 732.85 740.93 749.805V816.582C740.93 819.941 738.31 822.65 735.061 822.65H713.574C710.325 822.65 707.705 819.941 707.705 816.582V669.694C707.705 666.334 710.325 663.625 713.574 663.625H733.827C737.076 663.625 739.696 666.334 739.696 669.694V670.11C739.696 675.606 746.119 678.158 749.847 674.225C752.266 671.647 754.885 669.381 757.707 667.428Z" fill="#293147"/>
</svg>
