<svg width="1818" height="500" viewBox="0 0 1818 500" fill="none" xmlns="http://www.w3.org/2000/svg">
<rect width="500" height="500" rx="100" fill="#293147"/>
<path fill-rule="evenodd" clip-rule="evenodd" d="M174.766 119.922C244.511 79.6552 333.151 101.764 376.091 168.939L303.479 197.962C280.114 173.877 242.558 167.744 212.174 185.286C181.79 202.828 168.324 238.419 177.5 270.697L116.515 318.71C79.8647 247.948 105.045 160.176 174.766 119.922ZM123.824 331.31C166.906 398.019 255.228 419.878 324.766 379.73C394.328 339.568 419.552 252.103 383.266 181.425L321.848 229.779C331.024 262.057 317.558 297.648 287.174 315.19C256.79 332.732 219.235 326.598 195.869 302.513L123.824 331.31Z" fill="white"/>
<path d="M1684.1 276.957L1720.39 276.945L1720.42 276.987L1760.86 352.227L1762.28 354.859H1765.27H1800.7H1809.14L1805.08 347.455L1762.23 269.317L1762.11 269.105C1762.54 268.903 1762.96 268.698 1763.38 268.488C1774.8 262.785 1783.5 254.701 1789.27 244.217C1795.04 233.79 1797.84 221.846 1797.84 208.532C1797.84 195.166 1795.08 183.167 1789.39 172.682C1783.64 162.012 1774.96 153.722 1763.55 147.806C1752.09 141.835 1737.99 139 1721.48 139H1648H1643V144V170.637V175.637H1648H1679.1H1718.16C1727.99 175.637 1735.44 177.123 1740.82 179.753L1740.85 179.767L1740.88 179.781C1746.37 182.377 1750.17 186.002 1752.57 190.629L1752.58 190.65L1752.59 190.67C1755.16 195.51 1756.54 201.408 1756.54 208.532C1756.54 215.604 1755.19 221.352 1752.71 225.967C1750.34 230.378 1746.56 233.855 1741.06 236.342L1741.05 236.346L1741.04 236.351C1735.61 238.831 1728.21 240.221 1718.56 240.221H1679.1H1648H1643V245.221V349.859V354.859H1648H1679.1H1684.1V349.859V276.957Z" fill="#293147" stroke="#293147" stroke-width="10"/>
<path d="M1447.02 354.859H1450.57L1451.74 351.496L1506.2 194.348L1560.56 351.494L1561.73 354.859H1565.29H1598.3H1605.42L1603.01 348.164L1528.82 142.305L1527.63 139H1524.12H1488.18H1484.67L1483.48 142.305L1409.3 348.164L1406.88 354.859H1414H1447.02Z" fill="#293147" stroke="#293147" stroke-width="10"/>
<path d="M1327.62 201.453L1328.12 205.893H1332.59H1362.58H1367.71L1367.58 200.771C1367.29 188.761 1363.77 177.988 1356.97 168.615C1350.24 159.256 1341.06 151.999 1329.63 146.79C1318.2 141.549 1305.15 139 1290.61 139C1276.19 139 1263.06 141.589 1251.33 146.874C1239.61 152.085 1230.16 159.48 1223.16 169.101C1216.04 178.874 1212.54 190.279 1212.54 203.104C1212.54 218.687 1217.81 231.618 1228.57 241.384L1228.58 241.39L1228.58 241.396C1238.98 250.771 1252.84 257.675 1269.87 262.309L1294.23 268.942L1294.25 268.948L1294.27 268.953C1301.45 270.844 1307.81 273.01 1313.38 275.436L1313.38 275.44L1313.39 275.444C1318.78 277.767 1322.78 280.592 1325.61 283.807L1325.63 283.825L1325.65 283.843C1328.18 286.661 1329.6 290.395 1329.6 295.479C1329.6 301.11 1327.97 305.866 1324.74 309.963C1321.41 314.136 1316.73 317.549 1310.48 320.095C1304.33 322.56 1297.17 323.851 1288.9 323.851C1281.42 323.851 1274.65 322.755 1268.54 320.623C1262.64 318.477 1257.92 315.292 1254.23 311.105C1250.8 307.063 1248.72 301.911 1248.19 295.376L1247.81 290.781H1243.2H1212H1206.72L1207.01 296.051C1207.72 309.269 1211.5 320.922 1218.48 330.827L1218.49 330.834L1218.49 330.841C1225.45 340.648 1235.04 348.129 1247.05 353.34C1259.09 358.565 1273.15 361.091 1289.1 361.091C1305.73 361.091 1320.2 358.396 1332.36 352.793C1344.48 347.241 1353.94 339.542 1360.51 329.605C1367.13 319.679 1370.4 308.349 1370.4 295.781C1370.4 285.874 1368.42 277.064 1364.24 269.545C1360.29 262.312 1355.07 256.213 1348.6 251.292C1342.33 246.527 1335.53 242.685 1328.19 239.77C1321.1 236.951 1314.15 234.702 1307.34 233.035L1287.24 227.817L1287.22 227.811L1287.19 227.805C1283.35 226.845 1279.32 225.623 1275.1 224.134C1271.06 222.643 1267.29 220.821 1263.78 218.671C1260.61 216.627 1258.09 214.148 1256.15 211.23C1254.48 208.611 1253.54 205.37 1253.54 201.295C1253.54 196.499 1254.89 192.353 1257.59 188.684C1260.4 184.893 1264.43 181.785 1269.91 179.463L1269.94 179.454L1269.96 179.445C1275.36 177.098 1281.97 175.838 1289.91 175.838C1300.97 175.838 1309.72 178.312 1316.49 182.913L1316.5 182.922L1316.51 182.93C1323.05 187.318 1326.71 193.361 1327.62 201.453Z" fill="#293147" stroke="#293147" stroke-width="10"/>
<path d="M1045 350.109V355.109H1050H1174.56H1179.56V350.109V323.339V318.339H1174.56H1086.11V144V139H1081.11H1050H1045V144V350.109Z" fill="#293147" stroke="#293147" stroke-width="10"/>
<path d="M958.476 139H953.476V144V278.712C953.476 287.422 951.624 294.965 948.05 301.474L948.042 301.489L948.033 301.505C944.539 307.975 939.488 313.072 932.76 316.837C926.18 320.488 918.17 322.42 908.544 322.42C898.995 322.42 891.019 320.492 884.436 316.841C877.769 313.075 872.665 307.965 869.031 301.459C865.462 294.954 863.613 287.416 863.613 278.712V144V139H858.613H828H823V144V281.259C823 296.655 826.525 310.495 833.703 322.629L833.709 322.64C840.87 334.673 850.939 344.127 863.787 350.988L863.797 350.993L863.806 350.998C876.734 357.828 891.698 361.156 908.544 361.156C925.453 361.156 940.451 357.829 953.381 350.998L953.391 350.993L953.401 350.988C966.249 344.127 976.317 334.673 983.478 322.64L983.485 322.629C990.663 310.495 994.188 296.655 994.188 281.259V144V139H989.188H958.476Z" fill="#293147" stroke="#293147" stroke-width="10"/>
<path d="M670.103 355.443V282.487H707.379C723.93 282.487 738.08 279.469 749.559 273.117L749.568 273.111C760.962 266.774 769.608 258.111 775.326 247.131C781.039 236.223 783.845 224.024 783.845 210.643C783.845 197.334 781.075 185.205 775.431 174.364C769.717 163.321 761.105 154.648 749.76 148.37C738.278 142.016 724.093 139 707.479 139H634H629V144V144.056V144.111V144.167V144.223V144.278V144.334V144.39V144.445V144.501V144.557V144.612V144.668V144.723V144.779V144.834V144.89V144.945V145.001V145.056V145.111V145.167V145.222V145.277V145.333V145.388V145.443V145.499V145.554V145.609V145.665V145.72V145.775V145.83V145.885V145.94V145.996V146.051V146.106V146.161V146.216V146.271V146.326V146.381V146.436V146.491V146.546V146.601V146.656V146.711V146.766V146.821V146.876V146.93V146.985V147.04V147.095V147.15V147.204V147.259V147.314V147.369V147.423V147.478V147.533V147.587V147.642V147.697V147.751V147.806V147.86V147.915V147.97V148.024V148.079V148.133V148.188V148.242V148.297V148.351V148.405V148.46V148.514V148.569V148.623V148.677V148.732V148.786V148.84V148.894V148.949V149.003V149.057V149.111V149.166V149.22V149.274V149.328V149.382V149.436V149.49V149.545V149.599V149.653V149.707V149.761V149.815V149.869V149.923V149.977V150.031V150.085V150.139V150.192V150.246V150.3V150.354V150.408V150.462V150.516V150.569V150.623V150.677V150.731V150.784V150.838V150.892V150.945V150.999V151.053V151.106V151.16V151.214V151.267V151.321V151.374V151.428V151.482V151.535V151.589V151.642V151.696V151.749V151.802V151.856V151.909V151.963V152.016V152.069V152.123V152.176V152.229V152.283V152.336V152.389V152.443V152.496V152.549V152.602V152.656V152.709V152.762V152.815V152.868V152.921V152.974V153.028V153.081V153.134V153.187V153.24V153.293V153.346V153.399V153.452V153.505V153.558V153.611V153.664V153.717V153.77V153.822V153.875V153.928V153.981V154.034V154.087V154.139V154.192V154.245V154.298V154.351V154.403V154.456V154.509V154.561V154.614V154.667V154.719V154.772V154.825V154.877V154.93V154.982V155.035V155.088V155.14V155.193V155.245V155.298V155.35V155.403V155.455V155.507V155.56V155.612V155.665V155.717V155.769V155.822V155.874V155.926V155.979V156.031V156.083V156.136V156.188V156.24V156.292V156.345V156.397V156.449V156.501V156.553V156.605V156.658V156.71V156.762V156.814V156.866V156.918V156.97V157.022V157.074V157.126V157.178V157.23V157.282V157.334V157.386V157.438V157.49V157.542V157.594V157.646V157.698V157.749V157.801V157.853V157.905V157.957V158.009V158.06V158.112V158.164V158.216V158.267V158.319V158.371V158.422V158.474V158.526V158.577V158.629V158.681V158.732V158.784V158.835V158.887V158.939V158.99V159.042V159.093V159.145V159.196V159.248V159.299V159.351V159.402V159.453V159.505V159.556V159.608V159.659V159.71V159.762V159.813V159.864V159.916V159.967V160.018V160.07V160.121V160.172V160.223V160.275V160.326V160.377V160.428V160.479V160.531V160.582V160.633V160.684V160.735V160.786V160.837V160.889V160.94V160.991V161.042V161.093V161.144V161.195V161.246V161.297V161.348V161.399V161.45V161.501V161.552V161.602V161.653V161.704V161.755V161.806V161.857V161.908V161.959V162.009V162.06V162.111V162.162V162.212V162.263V162.314V162.365V162.415V162.466V162.517V162.568V162.618V162.669V162.72V162.77V162.821V162.871V162.922V162.973V163.023V163.074V163.124V163.175V163.226V163.276V163.327V163.377V163.428V163.478V163.529V163.579V163.629V163.68V163.73V163.781V163.831V163.882V163.932V163.982V164.033V164.083V164.133V164.184V164.234V164.284V164.335V164.385V164.435V164.485V164.536V164.586V164.636V164.686V164.737V164.787V164.837V164.887V164.937V164.987V165.038V165.088V165.138V165.188V165.238V165.288V165.338V165.388V165.438V165.488V165.538V165.588V165.638V165.688V165.738V165.788V165.838V165.888V165.938V165.988V166.038V166.088V166.138V166.188V166.238V166.288V166.337V166.387V166.437V166.487V166.537V166.587V166.636V166.686V166.736V166.786V166.835V166.885V166.935V166.985V167.034V167.084V167.134V167.183V167.233V167.283V167.332V167.382V167.432V167.481V167.531V167.581V167.63V167.68V167.729V167.779V167.828V167.878V167.928V167.977V168.027V168.076V168.126V168.175V168.225V168.274V168.323V168.373V168.422V168.472V168.521V168.571V168.62V168.669V168.719V168.768V168.817V168.867V168.916V168.965V169.015V169.064V169.113V169.163V169.212V169.261V169.311V169.36V169.409V169.458V169.507V169.557V169.606V169.655V169.704V169.753V169.803V169.852V169.901V169.95V169.999V170.048V170.097V170.147V170.196V170.245V170.294V170.343V170.392V170.441V170.49V170.539V170.588V170.637V175.637H634H665.103H704.158C714.003 175.637 721.414 177.275 726.739 180.16L726.748 180.165L726.758 180.17C732.285 183.133 736.165 187.119 738.621 192.135C741.189 197.381 742.541 203.512 742.541 210.643C742.541 217.773 741.19 223.946 738.612 229.271C736.137 234.382 732.26 238.471 726.786 241.557C721.46 244.495 714.162 246.151 704.56 246.151H665.103H634H629V251.151V355.443V360.443H634H665.103H670.103V355.443Z" fill="#293147" stroke="#293147" stroke-width="10"/>
</svg>
