<svg width="250" height="250" viewBox="0 0 250 250" fill="none" xmlns="http://www.w3.org/2000/svg">
<path d="M250 125C250 194.036 194.036 250 125 250C55.9644 250 0 194.036 0 125C0 55.9644 55.9644 0 125 0C194.036 0 250 55.9644 250 125Z" fill="white"/>
<circle cx="125.25" cy="125.25" r="77.25" fill="#293147"/>
<path fill-rule="evenodd" clip-rule="evenodd" d="M107.02 248.716C84.96 245.539 64.762 236.6 48 223.475V60H107.02V248.716Z" fill="#293147"/>
<path fill-rule="evenodd" clip-rule="evenodd" d="M142 100.739C137.105 97.1318 131.057 95 124.51 95C108.212 95 95 108.212 95 124.51C95 140.808 108.212 154.02 124.51 154.02C131.057 154.02 137.105 151.888 142 148.281V100.739Z" fill="white"/>
<path d="M147 48V202.5" stroke="white" stroke-width="10"/>
<path d="M167 48V202.5" stroke="white" stroke-width="10"/>
<path d="M187 48V202.5" stroke="white" stroke-width="10"/>
</svg>
