<svg width="1401" height="500" viewBox="0 0 1401 500" fill="none" xmlns="http://www.w3.org/2000/svg">
<circle cx="250.377" cy="250" r="250" fill="#0261F5"/>
<path fill-rule="evenodd" clip-rule="evenodd" d="M266.951 125.365C212.562 115.774 160.696 152.091 151.106 206.481C141.516 260.87 177.832 312.736 232.222 322.326L266.951 125.365Z" fill="white"/>
<path fill-rule="evenodd" clip-rule="evenodd" d="M286.647 128.838C341.037 138.428 377.353 190.294 367.763 244.683C358.173 299.073 306.307 335.39 251.918 325.799L286.647 128.838Z" fill="white"/>
<path fill-rule="evenodd" clip-rule="evenodd" d="M151.106 206.481C205.496 216.071 241.812 267.937 232.222 322.326C222.632 376.716 170.766 413.033 116.377 403.442L151.106 206.481Z" fill="white"/>
<rect x="100" y="240" width="150" height="20" fill="#0261F5"/>
<path d="M710.33 142.73C719.474 146.532 727.308 151.845 733.882 158.617C740.432 165.414 745.57 173.462 749.273 182.785C752.976 192.109 754.815 202.292 754.815 213.309C754.815 224.325 752.976 234.509 749.273 243.832C745.57 253.156 740.457 261.23 733.882 268.001C727.308 274.799 719.474 280.086 710.355 283.914C701.237 287.743 691.337 289.644 680.682 289.644H641.31C638.061 289.644 635.441 292.352 635.441 295.712V353.556C635.441 356.915 632.821 359.624 629.572 359.624H606.246C602.997 359.624 600.377 356.915 600.377 353.556V143.068C600.377 139.709 602.997 137 606.246 137H680.657C691.312 137 701.211 138.901 710.33 142.73ZM708.793 184.556C701.514 177.03 692.143 173.279 680.657 173.279H641.31C638.061 173.279 635.441 175.988 635.441 179.348V247.374C635.441 250.734 638.061 253.443 641.31 253.443H680.657C692.143 253.443 701.514 249.692 708.793 242.166C716.073 234.639 719.701 225.055 719.701 213.387C719.701 201.719 716.073 192.083 708.793 184.556Z" fill="#293147"/>
<path d="M907.314 359.624H887.061C883.812 359.624 881.192 356.915 881.192 353.556V352.618C881.192 347.331 875.046 344.544 871.343 348.191C868.169 351.316 864.768 354.024 861.192 356.29C853.609 361.056 843.962 363.452 832.274 363.452C822.425 363.452 813.961 361.864 806.908 358.686C799.829 355.509 794.036 350.951 789.527 345.013C785.018 339.075 781.743 332.069 779.678 324.022C777.637 315.974 776.604 306.963 776.604 296.988V206.668C776.604 203.308 779.224 200.599 782.474 200.599H804.893C808.142 200.599 810.762 203.308 810.762 206.668V292.196C810.762 304.072 812.978 313.448 817.387 320.35C821.795 327.251 829.755 330.689 841.216 330.689C848.597 330.689 854.743 329.257 859.68 326.392C864.592 323.527 868.547 319.594 871.519 314.62C874.492 309.646 876.658 303.812 877.968 297.118C879.303 290.451 879.958 283.289 879.958 275.658V206.668C879.958 203.308 882.578 200.599 885.827 200.599H907.314C910.563 200.599 913.183 203.308 913.183 206.668V353.556C913.183 356.915 910.563 359.624 907.314 359.624Z" fill="#293147"/>
<path d="M974.973 359.624H952.856C949.607 359.624 946.987 356.915 946.987 353.556V143.068C946.987 139.709 949.607 137 952.856 137H974.973C978.223 137 980.842 139.709 980.842 143.068V353.556C980.842 356.915 978.223 359.624 974.973 359.624Z" fill="#293147"/>
<path d="M1025.76 209.819C1036.41 201.12 1051.4 196.771 1070.67 196.771C1085.43 196.771 1097.75 199.375 1107.57 204.558C1115.68 208.855 1122.64 214.403 1128.38 221.2C1130.42 223.622 1130.24 227.321 1127.98 229.56L1114.02 243.39C1111.68 245.708 1107.95 245.629 1105.73 243.181C1102.46 239.561 1098.4 236.436 1093.57 233.832C1086.69 230.133 1078.45 228.258 1068.8 228.258C1061.22 228.258 1055.13 229.638 1050.49 232.399C1045.86 235.16 1043.56 238.962 1043.56 243.858C1043.56 249.797 1046.59 253.938 1052.63 256.255C1058.68 258.599 1067.75 261.126 1079.86 263.886C1086.44 265.371 1092.84 267.116 1099.08 269.121C1105.33 271.127 1110.92 273.939 1115.86 277.559C1120.77 281.153 1124.73 285.763 1127.7 291.389C1130.67 297.014 1132.16 304.176 1132.16 312.849C1132.16 321.548 1130.62 329.074 1127.55 335.429C1124.47 341.784 1120.22 347.045 1114.78 351.16C1109.33 355.301 1102.79 358.374 1095.08 360.379C1087.39 362.385 1078.93 363.4 1069.71 363.4C1054.95 363.4 1041.52 360.848 1029.41 355.77C1018.95 351.368 1010.57 344.675 1004.24 335.69C1002.53 333.241 1002.86 329.856 1004.97 327.772L1019.23 313.63C1021.67 311.208 1025.63 311.365 1027.75 314.073C1032.05 319.62 1037.47 323.84 1044.02 326.678C1052.53 330.377 1061.8 332.252 1071.85 332.252C1079.64 332.252 1086.01 330.924 1090.92 328.267C1095.83 325.611 1098.3 321.209 1098.3 315.063C1098.3 308.916 1095.53 304.619 1089.99 302.171C1084.45 299.723 1075.83 297.249 1064.14 294.696C1058.2 293.42 1052 291.779 1045.53 289.774C1039.06 287.769 1033.16 284.956 1027.85 281.336C1022.51 277.742 1018.15 273.002 1014.77 267.194C1011.4 261.36 1009.68 254.094 1009.68 245.421C1009.76 230.394 1015.07 218.518 1025.76 209.819Z" fill="#293147"/>
<path d="M1171.07 206.954C1181.83 200.157 1196.24 196.771 1214.3 196.771C1236.04 196.771 1252.19 201.954 1262.74 212.345C1273.29 222.737 1278.58 238.207 1278.58 258.782V353.53C1278.58 356.889 1275.96 359.598 1272.72 359.598H1251.23C1247.98 359.598 1245.36 356.889 1245.36 353.53C1245.36 348.347 1239.52 345.586 1235.71 348.946C1232.84 351.472 1229.64 353.764 1226.14 355.769C1218.03 360.431 1208.15 362.775 1196.47 362.775C1188.48 362.775 1181.25 361.551 1174.78 359.129C1168.3 356.707 1162.89 353.295 1158.48 348.946C1154.07 344.597 1150.65 339.414 1148.18 333.372C1145.71 327.329 1144.47 320.714 1144.47 313.5C1144.47 298.863 1149.13 287.326 1158.48 278.836C1167.8 270.345 1179.54 265.475 1193.7 264.199L1236.44 259.745C1242.39 259.12 1245.36 256.672 1245.36 252.427V248.937C1245.36 242.791 1242.84 237.764 1237.83 233.832C1232.81 229.899 1225.16 227.946 1214.91 227.946C1205.48 227.946 1197.17 229.795 1189.99 233.519C1184.73 236.254 1180.77 240.369 1178.15 245.916C1176.62 249.171 1172.71 250.395 1169.74 248.468L1153.19 237.66C1150.75 236.071 1149.74 232.816 1150.95 230.107C1155.1 220.497 1161.83 212.788 1171.07 206.954ZM1201.05 291.884C1193.47 292.951 1187.88 295.321 1184.27 299.046C1180.7 302.744 1178.88 307.25 1178.88 312.562C1178.88 318.709 1180.97 323.631 1185.18 327.355C1189.39 331.054 1195.69 332.929 1204.1 332.929C1210.45 332.929 1216.19 331.861 1221.33 329.752C1226.44 327.642 1230.75 324.829 1234.25 321.313C1237.73 317.823 1240.45 313.787 1242.41 309.229C1244.35 304.671 1245.33 300.061 1245.33 295.4V293.056C1245.33 289.409 1242.24 286.597 1238.73 287.039L1201.05 291.884Z" fill="#293147"/>
<path d="M1358.08 204.428C1365.36 199.349 1374.43 196.797 1385.31 196.797C1388.76 196.797 1392.17 197.083 1395.52 197.656C1398.34 198.151 1400.38 200.704 1400.38 203.647V227.946C1400.38 231.696 1397.13 234.509 1393.55 233.91C1393.12 233.832 1392.67 233.753 1392.22 233.701C1389.44 233.285 1386.52 233.076 1383.45 233.076C1368.06 233.076 1357.2 237.79 1350.85 247.218C1344.51 256.646 1341.31 269.85 1341.31 286.805V353.582C1341.31 356.941 1338.69 359.65 1335.44 359.65H1313.95C1310.7 359.65 1308.08 356.941 1308.08 353.582V206.694C1308.08 203.334 1310.7 200.625 1313.95 200.625H1334.2C1337.45 200.625 1340.07 203.334 1340.07 206.694V207.11C1340.07 212.606 1346.5 215.158 1350.22 211.225C1352.64 208.647 1355.26 206.381 1358.08 204.428Z" fill="#293147"/>
</svg>
