<svg width="2100" height="600" viewBox="0 0 2100 600" fill="none" xmlns="http://www.w3.org/2000/svg">
<circle cx="300" cy="300" r="300" fill="#0261F5"/>
<path fill-rule="evenodd" clip-rule="evenodd" d="M224.766 169.922C294.511 129.655 383.151 151.764 426.091 218.939L353.479 247.962C330.114 223.877 292.558 217.744 262.174 235.286C231.79 252.828 218.324 288.419 227.5 320.697L166.515 368.71C129.865 297.948 155.045 210.176 224.766 169.922ZM173.824 381.31C216.906 448.019 305.228 469.878 374.766 429.73C444.328 389.568 469.552 302.103 433.266 231.425L371.848 279.779C381.024 312.057 367.558 347.648 337.174 365.19C306.79 382.732 269.235 376.598 245.869 352.513L173.824 381.31Z" fill="white"/>
<path d="M832.016 176.172C859.099 176.693 872.771 194.922 873.031 230.859C872.51 266.797 858.318 284.896 830.453 285.156H809.75V176.172H832.016ZM848.812 400C847.25 393.49 843.734 389.974 838.266 389.453H809.75V296.875H841.781C886.833 296.875 915.089 282.682 926.547 254.297C929.932 246.224 931.625 237.24 931.625 227.344C931.625 202.865 920.688 185.286 898.812 174.609C886.312 168.62 871.469 165.625 854.281 165.625H723.812V176.172H755.062V389.453H723.812V400H848.812ZM939.438 176.172H970.688V314.062C971.208 373.698 1004.15 403.646 1069.52 403.906C1111.44 403.906 1137.88 387.891 1148.81 355.859C1152.98 342.839 1155.06 327.083 1155.06 308.594V176.172H1186.31V165.625H1109.36V176.172H1140.61V310.938C1140.35 364.844 1119.39 391.927 1077.72 392.188C1051.42 392.188 1035.14 377.865 1028.89 349.219C1026.55 338.542 1025.38 325.781 1025.38 310.938V176.172H1056.62V165.625H939.438V176.172ZM1387.48 400L1389.05 315.234H1377.72L1366.39 351.953C1360.92 369.401 1353.11 380.599 1342.95 385.547C1336.96 388.151 1330.06 389.453 1322.25 389.453H1282.02V176.172H1315.22V165.625H1196.08V176.172H1227.33V389.453H1196.08V400H1387.48ZM1591 334.766C1591 313.151 1579.15 294.661 1555.45 279.297C1552.07 277.474 1538.4 270.182 1514.44 257.422C1492.56 245.964 1478.89 234.635 1473.42 223.438C1470.82 217.969 1469.52 212.24 1469.52 206.25C1469.52 190.885 1476.94 180.729 1491.78 175.781C1496.73 174.219 1501.94 173.438 1507.41 173.438C1528.76 173.438 1544.78 181.51 1555.45 197.656C1561.96 207.812 1565.35 219.922 1565.61 233.984H1580.84V163.281C1573.55 163.281 1569.26 165.755 1567.95 170.703C1567.69 172.526 1567.56 174.609 1567.56 176.953C1545.95 166.797 1523.16 161.719 1499.2 161.719C1467.69 161.719 1443.99 169.922 1428.11 186.328C1417.95 197.005 1412.88 209.635 1412.88 224.219C1412.88 245.833 1425.24 264.323 1449.98 279.688C1453.11 281.771 1467.17 289.193 1492.17 301.953C1514.57 313.672 1528.5 325 1533.97 335.938C1536.31 341.146 1537.48 346.484 1537.48 351.953C1537.48 370.703 1529.15 383.203 1512.48 389.453C1506.49 391.536 1499.85 392.578 1492.56 392.578C1464.96 392.578 1445.56 379.948 1434.36 354.688C1429.67 344.01 1426.81 331.771 1425.77 317.969H1410.53V400.781C1417.56 400.781 1421.73 398.698 1423.03 394.531C1423.55 391.927 1423.81 388.411 1423.81 383.984C1443.86 397.266 1468.08 403.906 1496.47 403.906C1529.54 403.906 1554.93 395.443 1572.64 378.516C1584.88 366.536 1591 351.953 1591 334.766ZM1859.75 400C1859.75 393.75 1858.06 390.365 1854.67 389.844C1853.37 389.583 1851.94 389.453 1850.38 389.453H1838.66L1746.47 165.625H1717.56L1632.02 389.453H1607.02V400H1678.89C1678.89 393.75 1677.2 390.365 1673.81 389.844C1672.51 389.583 1671.08 389.453 1669.52 389.453H1647.64L1675.77 314.453H1753.5L1782.8 389.453H1755.06V400H1859.75ZM1748.81 302.734H1680.45L1714.05 212.891L1748.81 302.734ZM1984.75 400V389.453H1953.5V292.969H1972.64L2030.84 400.391L2099.59 400C2099.59 394.271 2097.51 391.016 2093.34 390.234C2092.04 389.974 2090.74 389.844 2089.44 389.844H2084.36L2024.2 288.281C2051.55 280.729 2068.34 265.885 2074.59 243.75C2076.16 238.281 2076.94 232.682 2076.94 226.953C2076.94 207.682 2068.34 192.188 2051.16 180.469C2036.57 170.573 2018.86 165.625 1998.03 165.625H1867.56V176.172H1898.81V389.453H1867.56V400H1984.75ZM1974.59 176.172C1995.95 176.172 2009.75 186.719 2016 207.812C2017.82 214.583 2018.73 221.615 2018.73 228.906C2018.73 251.302 2011.96 266.797 1998.42 275.391C1992.43 279.297 1985.53 281.25 1977.72 281.25H1953.5V176.172H1974.59Z" fill="#293147"/>
</svg>
