<svg width="500" height="500" viewBox="0 0 500 500" fill="none" xmlns="http://www.w3.org/2000/svg">
<circle cx="250" cy="250" r="250" fill="white"/>
<path fill-rule="evenodd" clip-rule="evenodd" d="M250 400C332.843 400 400 332.843 400 250C400 167.157 332.843 100 250 100C167.157 100 100 167.157 100 250V325C100 345.987 116.789 363 137.5 363C158.211 363 175 345.987 175 325V250C175 208.579 208.579 175 250 175C291.421 175 325 208.579 325 250C325 291.421 291.421 325 250 325C229.013 325 212 341.789 212 362.5C212 383.211 229.013 400 250 400ZM249.5 287C270.211 287 287 270.211 287 249.5C287 228.789 270.211 212 249.5 212C228.789 212 212 228.789 212 249.5C212 270.211 228.789 287 249.5 287Z" fill="#293147"/>
</svg>
