<svg width="441" height="79" viewBox="0 0 441 79" fill="none" xmlns="http://www.w3.org/2000/svg">
<path d="M35.125 5.375C43.7917 5.54167 48.1667 11.375 48.25 22.875C48.0833 34.375 43.5417 40.1667 34.625 40.25H28V5.375H35.125ZM40.5 77C40 74.9167 38.875 73.7917 37.125 73.625H28V44H38.25C52.6667 44 61.7083 39.4583 65.375 30.375C66.4583 27.7917 67 24.9167 67 21.75C67 13.9167 63.5 8.29167 56.5 4.875C52.5 2.95833 47.75 2 42.25 2H0.5V5.375H10.5V73.625H0.5V77H40.5ZM69.5 5.375H79.5V49.5C79.6667 68.5833 90.2083 78.1667 111.125 78.25C124.542 78.25 133 73.125 136.5 62.875C137.833 58.7083 138.5 53.6667 138.5 47.75V5.375H148.5V2H123.875V5.375H133.875V48.5C133.792 65.75 127.083 74.4167 113.75 74.5C105.333 74.5 100.125 69.9167 98.125 60.75C97.375 57.3333 97 53.25 97 48.5V5.375H107V2H69.5V5.375ZM212.875 77L213.375 49.875H209.75L206.125 61.625C204.375 67.2083 201.875 70.7917 198.625 72.375C196.708 73.2083 194.5 73.625 192 73.625H179.125V5.375H189.75V2H151.625V5.375H161.625V73.625H151.625V77H212.875ZM278 56.125C278 49.2083 274.208 43.2917 266.625 38.375C265.542 37.7917 261.167 35.4583 253.5 31.375C246.5 27.7083 242.125 24.0833 240.375 20.5C239.542 18.75 239.125 16.9167 239.125 15C239.125 10.0833 241.5 6.83333 246.25 5.25C247.833 4.75 249.5 4.5 251.25 4.5C258.083 4.5 263.208 7.08333 266.625 12.25C268.708 15.5 269.792 19.375 269.875 23.875H274.75V1.25C272.417 1.25 271.042 2.04167 270.625 3.625C270.542 4.20833 270.5 4.875 270.5 5.625C263.583 2.375 256.292 0.75 248.625 0.75C238.542 0.75 230.958 3.375 225.875 8.625C222.625 12.0417 221 16.0833 221 20.75C221 27.6667 224.958 33.5833 232.875 38.5C233.875 39.1667 238.375 41.5417 246.375 45.625C253.542 49.375 258 53 259.75 56.5C260.5 58.1667 260.875 59.875 260.875 61.625C260.875 67.625 258.208 71.625 252.875 73.625C250.958 74.2917 248.833 74.625 246.5 74.625C237.667 74.625 231.458 70.5833 227.875 62.5C226.375 59.0833 225.458 55.1667 225.125 50.75H220.25V77.25C222.5 77.25 223.833 76.5833 224.25 75.25C224.417 74.4167 224.5 73.2917 224.5 71.875C230.917 76.125 238.667 78.25 247.75 78.25C258.333 78.25 266.458 75.5417 272.125 70.125C276.042 66.2917 278 61.625 278 56.125ZM364 77C364 75 363.458 73.9167 362.375 73.75C361.958 73.6667 361.5 73.625 361 73.625H357.25L327.75 2H318.5L291.125 73.625H283.125V77H306.125C306.125 75 305.583 73.9167 304.5 73.75C304.083 73.6667 303.625 73.625 303.125 73.625H296.125L305.125 49.625H330L339.375 73.625H330.5V77H364ZM328.5 45.875H306.625L317.375 17.125L328.5 45.875ZM404 77V73.625H394V42.75H400.125L418.75 77.125L440.75 77C440.75 75.1667 440.083 74.125 438.75 73.875C438.333 73.7917 437.917 73.75 437.5 73.75H435.875L416.625 41.25C425.375 38.8333 430.75 34.0833 432.75 27C433.25 25.25 433.5 23.4583 433.5 21.625C433.5 15.4583 430.75 10.5 425.25 6.75C420.583 3.58333 414.917 2 408.25 2H366.5V5.375H376.5V73.625H366.5V77H404ZM400.75 5.375C407.583 5.375 412 8.75 414 15.5C414.583 17.6667 414.875 19.9167 414.875 22.25C414.875 29.4167 412.708 34.375 408.375 37.125C406.458 38.375 404.25 39 401.75 39H394V5.375H400.75Z" fill="#0261F5"/>
</svg>
